<svg xmlns="http://www.w3.org/2000/svg" width="481" height="103.1"><style>.st0{fill:#f25430}</style><path class="st0" d="M25.9 102l-1.5-14.3h-9.8L12.9 102H0L12.3 1.1h15.4L39.2 102H25.9zm-3-26.5c-1.2-13.1-2.5-26.5-3.4-40.2-1 13.7-2.2 27.1-3.7 40.2h7.1zM44.6 102V1.1h28.3v13.4H58v29.9h9.2v13.4H58V102H44.6zM98.2 102c-1.3-15-2.7-30-4.7-45h-2.2v45H77.9V1.1h15.9c12 0 18 4.9 18 18.1V40c0 7.7-1.7 11.8-5.8 14.2 2.6 15.9 4.7 32 6.6 47.7H98.2zm.2-82.8c0-3.2-1.5-4.8-4.5-4.8h-2.6v30.4H94c2.9 0 4.4-1.6 4.4-4.7V19.2zM116.8 17.2C116.8 6 122.2 0 133.2 0s16.4 6 16.4 17.2V86c0 11.2-5.4 17.2-16.4 17.2s-16.4-6-16.4-17.2V17.2zm19.5 0c0-2.6-1-3.8-3.1-3.8-2 0-3.1 1.2-3.1 3.8V86c0 2.6 1.1 3.8 3.1 3.8 2.1 0 3.1-1.2 3.1-3.8V17.2zM157.2 102V1.1h13.4v87.5h15V102h-28.4zM213.6 102l-1.5-14.3h-9.8l-1.7 14.3h-12.9L200 1.1h15.4L227 102h-13.4zm-2.9-26.5c-1.2-13.1-2.5-26.5-3.4-40.2-1 13.7-2.2 27.1-3.7 40.2h7.1zM235.3 102V14.5h-9.8V1.1h32.8v13.4h-9.7V102h-13.3zM263.9 102V1.1h13.4V102h-13.4zM308.7 102c-8.2-39-10.4-50.5-12.4-61.8.4 11.9.4 23.8.4 35.8v26h-11.2V1.1h15.3c6.7 42.7 8.2 52.7 9.8 63.1-.4-10.7-.4-21.2-.4-31.6V1.1h11.2V102h-12.7zM346.2 102V1.1h28.3v13.4h-15v29.9h9.2v13.4h-9.2V102h-13.3zM379.6 102V1.1h27.7v13.4H393v29.4h9.1v13.4H393v31.4h15V102h-28.4zM432.1 72.1c0-5.3-1.7-7.6-9.8-17.9-6.3-8.1-9.4-14-9.4-22.6V16.5c0-11.2 5.4-16.5 16.3-16.5C440.6 0 445 5.4 445 16.5V35h-12.3V16.5c0-2.2-1-3.2-3.2-3.2s-3.2 1-3.2 3.2v15c0 5.1 2.2 7.4 9.7 17.2 7.1 9.4 9.3 14.6 9.3 23.3v14.5c0 10.5-4.8 16.7-16.2 16.7-11.3 0-16.3-6.1-16.3-16.7V65h12.7v21.4c0 2.2 1.1 3.3 3.2 3.3 2.2 0 3.3-1.1 3.3-3.3V72.1zM458 102V14.5h-9.8V1.1H481v13.4h-9.7V102H458z"/></svg>