<svg xmlns="http://www.w3.org/2000/svg" width="676.1" height="112.9" viewBox="0 0 676.1 112.9">
  <style>
    .st0{fill:#f25430}
  </style>
  <path class="st0" d="M0 18.8C0 6.6 5.9 0 18 0s18 6.6 18 18.8v75.3c0 12.2-5.9 18.8-18 18.8S0 106.4 0 94.1V18.8zm21.4 0c0-2.8-1.1-4.2-3.4-4.2-2.1 0-3.4 1.3-3.4 4.2v75.3c0 2.8 1.2 4.2 3.4 4.2 2.3 0 3.4-1.3 3.4-4.2V18.8z"/>
  <path class="st0" d="M43 111.7V91.6c0-13.6 1.7-19.1 10.7-32.8C60.8 47.8 64 40.9 64 30.6V18.8c0-2.8-1.1-4.2-3.4-4.2-2.1 0-3.2 1.3-3.2 4.2v19.6H43V19.1C43 5.5 48.7 0 60.7 0s18 5.9 18 19.1v13.4c0 10.2-3.8 20.3-10.9 31.2-9.3 14-10.2 19.1-10.2 27.9v5.5h21.1v14.6H43z"/>
  <path class="st0" d="M129.5 111.7L127.8 96h-10.7l-1.9 15.7h-14.1L114.5 1.2h16.9L144 111.7h-14.5zm-3.3-29c-1.3-14.4-2.7-29-3.8-44-1.1 15-2.4 29.7-4 44h7.8z"/>
  <path class="st0" d="M172.2 111.7c-1.5-16.4-3-32.9-5.1-49.3h-2.4v49.3H150V1.2h17.5c13.2 0 19.7 5.4 19.7 19.9v22.8c0 8.5-1.9 12.9-6.3 15.6 2.8 17.5 5.1 35.1 7.3 52.2h-16zm.2-90.6c0-3.5-1.6-5.2-5-5.2h-2.8v33.3h3c3.2 0 4.8-1.7 4.8-5.1v-23z"/>
  <path class="st0" d="M194.7 111.7V1.2h30.4v14.6h-15.7V48h9.9v14.6h-9.9V97h16.4v14.6h-31.1z"/>
  <path class="st0" d="M257.7 111.7c-9-42.7-11.4-55.3-13.6-67.7.4 13 .4 26.1.4 39.2v28.5h-12.2V1.2h16.8c7.4 46.7 9 57.7 10.7 69.2-.4-11.7-.4-23.2-.4-34.6V1.2h12.2v110.5h-13.9z"/>
  <path class="st0" d="M305.5 111.7L303.9 96h-10.7l-1.9 15.7h-14.1L290.6 1.2h16.9l12.6 110.5h-14.6zm-3.2-29c-1.3-14.4-2.7-29-3.8-44-1.1 15-2.4 29.7-4 44h7.8z"/>
  <path class="st0" d="M341.1 61.6V50.5H363v11.1h-21.9z"/>
  <path class="st0" d="M386.9 111.7V1.2h14.6v95.9h16.4v14.6h-31z"/>
  <path class="st0" d="M422.9 18.8c0-12.2 5.9-18.8 18-18.8s18 6.6 18 18.8v75.3c0 12.2-5.9 18.8-18 18.8s-18-6.6-18-18.8V18.8zm21.3 0c0-2.8-1.1-4.2-3.4-4.2-2.1 0-3.4 1.3-3.4 4.2v75.3c0 2.8 1.2 4.2 3.4 4.2 2.3 0 3.4-1.3 3.4-4.2V18.8z"/>
  <path class="st0" d="M492.3 111.7c-9-42.7-11.4-55.3-13.6-67.7.4 13 .4 26.1.4 39.2v28.5h-12.2V1.2h16.8c7.4 46.7 9 57.7 10.7 69.2-.4-11.7-.4-23.3-.4-34.7V1.2h12.2v110.5h-13.9z"/>
  <path class="st0" d="M515.1 111.7V1.2H533c12 0 18 7.1 18 18.9v72.8c0 12.8-6 18.8-18 18.8h-17.9zM536.5 20c0-2.7-1.2-4.2-3.5-4.2h-3.2V97h3.2c2.3 0 3.5-1.5 3.5-4.2V20z"/>
  <path class="st0" d="M581.5 111.7c-1.5-16.4-3-32.9-5.1-49.3H574v49.3h-14.6V1.2h17.5c13.2 0 19.7 5.4 19.7 19.9v22.8c0 8.5-1.9 12.9-6.3 15.6 2.8 17.5 5.1 35.1 7.3 52.2h-16.1zm.2-90.6c0-3.5-1.6-5.2-5-5.2h-2.8v33.3h3c3.2 0 4.8-1.7 4.8-5.1v-23z"/>
  <path class="st0" d="M604 111.7V1.2h30.4v14.6h-15.7V48h9.9v14.6h-9.9V97H635v14.6h-31z"/>
  <path class="st0" d="M661.6 79c0-5.8-1.9-8.3-10.7-19.6-6.8-8.9-10.3-15.3-10.3-24.7V18.1c0-12.2 5.9-18.1 17.9-18.1 12.5 0 17.3 5.9 17.3 18.1v20.3h-13.4V18.1c0-2.4-1.1-3.5-3.5-3.5s-3.5 1.1-3.5 3.5v16.4c0 5.6 2.4 8.1 10.6 18.8 7.8 10.3 10.2 16 10.2 25.5v15.8c0 11.5-5.2 18.3-17.7 18.3-12.4 0-17.9-6.7-17.9-18.3V71.2h14v23.5c0 2.4 1.2 3.6 3.5 3.6 2.4 0 3.6-1.2 3.6-3.6V79z"/>
</svg>