<svg xmlns="http://www.w3.org/2000/svg" width="312.5" height="20.5" viewBox="0 0 312.5 20.5">
  <style>
    .st0{fill:#418bc4}
  </style>
  <path class="st0" d="M17.4 8.7c-.1-1.2-.5-2.1-1.3-2.7-.7-.6-1.7-.9-3-.9-1.6 0-2.8.5-3.7 1.4-.9.9-1.3 2.2-1.3 3.9 0 1.7.4 3 1.3 3.9.9.9 2.1 1.3 3.7 1.3 1.2 0 2.1-.3 2.8-.8.7-.5 1.2-1.3 1.4-2.4H26c-.4 2.7-1.7 4.7-3.9 6.1s-5.2 2.1-9.1 2.1c-4.3 0-7.6-.9-9.8-2.6C1.1 16.2 0 13.6 0 10.2c0-3.4 1.1-5.9 3.3-7.7C5.5.9 8.8 0 13.1 0c4 0 7.2.7 9.4 2.2s3.4 3.6 3.5 6.4h-8.6z"/>
  <path class="st0" d="M31 20V.5h20.6v4.8H38.5v2.3h10.6v4.8H38.5V15h13.7v5H31z"/>
  <path class="st0" d="M56.8 20V.5h8.9l7.5 11.2V.5h7.3V20H72L63.9 8.6V20h-7.1z"/>
  <path class="st0" d="M91.9 20V5.4h-7V.5h21.6v4.9h-7.1V20h-7.5z"/>
  <path class="st0" d="M125.7.5c1.7 0 3 .1 4.1.2 1 .2 1.8.4 2.4.8.7.4 1.3 1 1.7 1.7.4.7.6 1.6.6 2.5 0 1.1-.3 2.2-.9 3-.6.9-1.4 1.5-2.4 1.9.9.4 1.5.8 1.8 1.3.3.5.6 1.5.6 2.8v.6c.1 2.5.5 4 1 4.2v.5h-8.4c-.3-.4-.4-1.2-.4-2.4 0-.7 0-1.2-.1-1.6-.1-.7-.3-1.2-.7-1.5-.4-.3-1.1-.4-2-.4h-4.5V20h-7.6V.5h14.8zm-7.2 8.4h4.4c1.1 0 2-.1 2.4-.4.5-.3.7-.7.7-1.4 0-.6-.2-1.1-.7-1.3-.4-.3-1.3-.4-2.7-.4h-4.2v3.5z"/>
  <path class="st0" d="M136.8 20L145.2.5h9.6l7.9 19.5h-8.2l-.6-1.9h-8.3l-.7 1.9h-8.1zm10.6-6.7h4.8l-2.3-6.8-2.5 6.8z"/>
  <path class="st0" d="M166.2 20V.5h7.5v14.1h11.9V20h-19.4z"/>
  <path class="st0" d="M205.2 20V.5h14.6c2.8 0 4.9.6 6.4 1.7s2.2 2.7 2.2 4.7-.7 3.6-2.2 4.7c-1.5 1.1-3.6 1.7-6.4 1.7h-7V20h-7.6zm11.7-15.3h-4.1v4.2h4.1c1.2 0 2.1-.2 2.5-.5.5-.3.7-.9.7-1.6 0-.8-.2-1.3-.7-1.6-.5-.3-1.3-.5-2.5-.5z"/>
  <path class="st0" d="M228.8 20L237.2.5h9.6l7.9 19.5h-8.2l-.6-1.9h-8.3l-.7 1.9h-8.1zm10.6-6.7h4.8l-2.3-6.8-2.5 6.8z"/>
  <path class="st0" d="M273 .5c1.7 0 3 .1 4.1.2 1 .2 1.8.4 2.4.8.7.4 1.3 1 1.7 1.7.4.7.6 1.6.6 2.5 0 1.1-.3 2.2-.9 3-.6.9-1.4 1.5-2.4 1.9.9.4 1.5.8 1.8 1.3.3.5.5 1.5.6 2.8v.6c.1 2.5.5 4 1 4.2v.5h-8.4c-.3-.4-.4-1.2-.4-2.4 0-.7 0-1.2-.1-1.6-.1-.7-.3-1.2-.7-1.5-.4-.3-1.1-.4-2-.4h-4.5V20h-7.6V.5H273zm-7.1 8.4h4.4c1.1 0 2-.1 2.4-.4.5-.3.7-.7.7-1.4 0-.6-.2-1.1-.7-1.3-.4-.3-1.3-.4-2.7-.4h-4.2v3.5z"/>
  <path class="st0" d="M287.1 20V.5h7.5v6.7l6.9-6.7h10.2l-8.1 7 8.9 12.4h-9.4l-5.2-7.9-3.3 2.7V20h-7.5z"/>
</svg>