<svg xmlns="http://www.w3.org/2000/svg" width="583.7" height="216.1" viewBox="0 0 583.7 216.1">
  <style>
    .st0{fill:none;stroke:#3f8bbe;stroke-miterlimit:10}.st1{fill:#f25430}
  </style>
  <path class="st0" d="M41.7 136.1H67v43.5c0 24.6-9.5 36.1-31.7 36.1-22.8 0-34.8-11.5-34.8-35.6V36.8C.5 12.5 12.5.5 35.3.5 56.5.5 67 12 67 36.3v37.3H41.7V36.3c0-5.4-2-7.9-6.4-7.9-4.1 0-6.4 2.6-6.4 7.9v143.5c0 5.4 2.3 7.9 6.4 7.9 4.3 0 6.4-2.6 6.4-7.9v-43.7z"/>
  <path class="st0" d="M82.1 213.3V2.8H110v210.5H82.1z"/>
  <path class="st0" d="M127.9 213.3V2.8h34c25.3 0 37.1 12 37.1 38.1v34.5c0 26.3-11.8 37.9-36.8 37.9h-6.4v100h-27.9zm43.7-172.6c0-6.7-3.1-10-9.7-10h-6.1v55.5h6.4c6.4 0 9.5-3.3 9.5-9.7V40.7z"/>
  <path class="st0" d="M253.2 213.3c-2.8-31.2-5.6-62.7-9.7-93.9h-4.6v93.9H211V2.8h33.3c25.1 0 37.6 10.2 37.6 37.9v43.5c0 16.1-3.6 24.6-12 29.7 5.4 33.3 9.7 66.8 13.8 99.5h-30.5zm.5-172.6c0-6.7-3.1-10-9.5-10h-5.4v63.4h5.6c6.1 0 9.2-3.3 9.2-9.7V40.7z"/>
  <path class="st0" d="M296.7 213.3V2.8h27.9v210.5h-27.9z"/>
  <path class="st0" d="M390.1 213.3l-3.1-29.9h-20.5l-3.6 29.9H336L361.7 2.8h32.2l24 210.5h-27.8zm-6.2-55.2c-2.6-27.4-5.1-55.3-7.2-83.9-2 28.6-4.6 56.5-7.7 83.9h14.9z"/>
  <path class="st0" d="M477 213.3c-17.1-81.3-21.7-105.4-25.8-128.9.8 24.8.8 49.6.8 74.7v54.2h-23.3V2.8h32c14.1 89 17.1 110 20.5 131.7-.8-22.3-.8-44.3-.8-66V2.8h23.3v210.5H477z"/>
  <path class="st0" d="M521 213.3V2.8h27.9v210.5H521z"/>
  <g>
    <path class="st1" d="M583.7 95.7h-16.9v-6.1h16.9v6.1z"/>
    <path class="st1" d="M566.8 69.3c0-2.2.3-3.8 1-4.7s1.7-1.4 3.2-1.4c.8 0 1.6.2 2.2.5.6.4 1.1.9 1.5 1.6.3-.9.8-1.6 1.5-2.1s1.6-.7 2.6-.7c1.6 0 2.8.5 3.6 1.5.8 1 1.2 2.5 1.2 4.4V82h-16.9V69.3zm4 6.6h2.4v-4.1c0-.9-.1-1.5-.3-1.7-.2-.3-.5-.4-.9-.4-.5 0-.8.1-.9.4-.2.2-.3.8-.3 1.8v4zm8.7 0v-4.3c0-1-.1-1.6-.3-1.9-.2-.3-.6-.4-1.1-.4-.5 0-.9.2-1.1.5s-.3.9-.3 1.9V76h2.8z"/>
    <path class="st1" d="M583.7 55.8h-16.9v-6.1h16.9v6.1z"/>
    <path class="st1" d="M583.7 43.2H580l-8.9-9.3v8.7h-4.2v-17h3.8l8.6 9.2v-8.9h4.4v17.3z"/>
    <path class="st1" d="M583.7 21.5l-16.9-6.9V6.9L583.7.5v6.6l-1.7.5v6.7l1.7.6v6.6zm-5.8-8.5V9l-5.9 1.9 5.9 2.1z"/>
  </g>
</svg>