<svg xmlns="http://www.w3.org/2000/svg" width="720.8" height="309.1" viewBox="0 0 720.8 309.1">
  <style>
    .st0{fill:none;stroke:#f25430;stroke-miterlimit:10}
  </style>
  <path class="st0" d="M59.5 194.6h36.3v62.3c0 35.2-13.6 51.7-45.4 51.7-32.6 0-49.8-16.5-49.8-50.9V52.5C.6 17.7 17.8.5 50.4.5 80.8.5 95.8 17 95.8 51.8v53.5H59.5V51.8c0-7.7-2.9-11.4-9.2-11.4-5.9 0-9.2 3.7-9.2 11.4v205.5c0 7.7 3.3 11.4 9.2 11.4 6.2 0 9.2-3.7 9.2-11.4v-62.7z"/>
  <path class="st0" d="M116.6 305.3V3.8h39.9v261.6h44.7v39.9h-84.6z"/>
  <path class="st0" d="M274.1 3.8h39.6v253.5c0 34.4-16.5 51.3-48.7 51.3-32.6 0-49.1-16.9-49.1-51.3V3.8h39.9v253.5c0 7.7 3.3 11.4 9.2 11.4 5.9 0 9.2-3.7 9.2-11.4V3.8z"/>
  <path class="st0" d="M337.5 305.3V3.8h49.8c33 0 46.2 17.2 46.2 53.1v62.3c0 13.9-5.1 26-13.9 30 9.2 2.9 17.6 13.2 17.6 30v75.1c0 35.5-16.9 50.9-49.8 50.9h-49.9zm59-250.2c0-7.3-2.9-11.4-9.2-11.4h-9.9v90.5h10.3c5.9 0 8.8-3.7 8.8-11.4V55.1zm0 125.3c0-7.7-2.9-11.4-8.8-11.4h-10.3v96.3h9.9c6.2 0 9.2-4 9.2-11.4v-73.5z"/>
  <path class="st0" d="M603.4 257.3c0 31.9-16.5 51.3-49.1 51.3s-49.1-19.4-49.1-50.9V51.8c0-31.9 16.5-51.3 49.1-51.3s47.3 19.4 47.3 51.3v52h-38.1v-52c0-7.7-2.9-11.4-9.2-11.4-5.9 0-9.2 3.7-9.2 11.4v72.9c4.8-3.7 11-8.8 23.4-8.8 24.2 0 34.8 13.2 34.8 46.5v94.9zm-39.9-92c0-7.7-2.9-11.4-9.2-11.4-5.5 0-8.1 3.3-9.2 6.6v96.7c0 7.7 3.3 11.4 9.2 11.4 6.2 0 9.2-3.7 9.2-11.4v-91.9z"/>
  <path class="st0" d="M680 179.6c-4.4 3.7-11 8.8-23.1 8.8-24.2 0-34.4-13.2-34.4-46.5V51.8c0-31.9 16.1-51.3 48.7-51.3s49.1 19.4 49.1 50.9v205.9c0 31.9-16.5 51.3-49.1 51.3-30 0-48.4-19.4-48.4-51.3v-52H662v52c0 7.7 2.9 11.4 9.2 11.4 5.9 0 8.8-3.7 8.8-11.4v-77.7zm0-127.8c0-7.7-2.9-11.4-8.8-11.4-6.2 0-9.2 3.7-9.2 11.4v85c0 7.7 2.9 11.7 9.2 11.7 5.5 0 8.1-3.7 8.8-7V51.8z"/>
</svg>