<svg xmlns="http://www.w3.org/2000/svg" width="210.6" height="831.7" viewBox="0 0 210.6 831.7">
  <style>
    .st0{fill:#3f8bbe}
  </style>
  <path class="st0" d="M132.7 791.4v-24.8h42.6c24 0 35.3 9.3 35.3 31 0 22.3-11.3 34.1-34.8 34.1H35.6C11.8 831.7 0 820 0 797.7c0-20.8 11.3-31 35.1-31h36.6v24.8H35.1c-5.3 0-7.8 2-7.8 6.3 0 4 2.5 6.3 7.8 6.3h140.5c5.3 0 7.8-2.3 7.8-6.3 0-4.3-2.5-6.3-7.8-6.3h-42.9z"/>
  <path class="st0" d="M208.3 711.1c-30.5 2.8-61.3 5.5-91.9 9.5v4.5h91.9v27.3H2.3v-32.5c0-24.5 10-36.8 37.1-36.8H82c15.8 0 24 3.5 29 11.8 32.5-5.3 65.3-9.5 97.4-13.5v29.7zm-169-.6c-6.5 0-9.8 3-9.8 9.3v5.3h62.1v-5.5c0-6-3.3-9-9.5-9H39.3z"/>
  <path class="st0" d="M208.3 669H2.3v-56.6h27.3v29.3h60.1v-18.5H117v18.5h64v-30.5h27.3V669z"/>
  <path class="st0" d="M208.3 551.8l-29.3 3v20l29.3 3.5v26.3l-206.1-25v-31.5l206.1-23.5v27.2zm-54.1 6c-26.8 2.5-54.1 5-82.1 7 28 2 55.3 4.5 82.1 7.5v-14.5z"/>
  <path class="st0" d="M208.3 440.1h-58.1c-24 0-48.3-.5-72.4-1.5 23.8 2.3 48.1 5.3 130.4 14.8v23L77.9 490.7c24-1 48.6-1.5 72.6-1.5h57.8V514H2.3v-36c110.9-10.3 127.4-12 143.5-12.8-16-1.3-33-2.8-143.5-13.3v-36.6h206.1v24.8z"/>
  <path class="st0" d="M208.3 398.8H2.3V341h27.3v30.5h61.1v-18.8H118v18.8h90.4v27.3z"/>
  <path class="st0" d="M208.3 330.2H2.3v-27.3h206.1v27.3z"/>
  <path class="st0" d="M208.3 285.4H2.3v-56.6h27.3v29.3h60.1v-18.5H117v18.5h64v-30.5h27.3v57.8z"/>
  <path class="st0" d="M208.3 214.8H2.3v-27.3H181V157h27.3v57.8z"/>
  <path class="st0" d="M208.3 146.2H2.3v-33.3c0-22.3 13.3-33.6 35.3-33.6h135.7c23.8 0 35.1 11.3 35.1 33.6v33.3zm-171-39.8c-5 0-7.8 2.3-7.8 6.5v6H181v-6c0-4.3-2.8-6.5-7.8-6.5H37.3z"/>
  <path class="st0" d="M147.2 27c-10.8 0-15.5 3.5-36.6 20-16.5 12.8-28.5 19.4-46 19.4H33.8C11 66.4 0 55.3 0 33.1 0 9.8 11 .8 33.8.8h37.8v25H33.8c-4.5 0-6.5 2-6.5 6.5s2 6.5 6.5 6.5h30.5c10.5 0 15-4.5 35.1-19.8C118.7 4.5 129.2 0 147 0h29.5c21.5 0 34.1 9.8 34.1 33.1 0 23-12.5 33.3-34.1 33.3h-43.8v-26h43.8c4.5 0 6.8-2.3 6.8-6.5 0-4.5-2.3-6.8-6.8-6.8h-29.3z"/>
</svg>