<svg xmlns="http://www.w3.org/2000/svg" width="303" height="134.8"><style>.st0{fill:#3f8bbe}</style><path class="st0" d="M25.8 84.9h15.9v27.2c0 15.4-5.9 22.6-19.9 22.6-14.3.1-21.8-7.1-21.8-22.2V22.8C0 7.5 7.5 0 21.8 0c13.3 0 19.9 7.2 19.9 22.4v23.4H25.8V22.4c0-3.4-1.3-5-4-5-2.6 0-4 1.6-4 5v89.9c0 3.4 1.4 5 4 5 2.7 0 4-1.6 4-5V84.9zM75.8 1.4h17.3v110.9c0 15.1-7.2 22.4-21.3 22.4-14.3 0-21.5-7.4-21.5-22.4V1.4h17.5v110.9c0 3.4 1.4 5 4 5s4-1.6 4-5V1.4zM103.5 133.3V1.4h21.8c14.4 0 20.2 7.5 20.2 23.2v27.2c0 6.1-2.2 11.4-6.1 13.1 4 1.3 7.7 5.8 7.7 13.1v32.9c0 15.5-7.4 22.3-21.8 22.3h-21.8zm25.8-109.4c0-3.2-1.3-5-4-5H121v39.6h4.5c2.6 0 3.8-1.6 3.8-5V23.9zm0 54.8c0-3.4-1.3-5-3.8-5H121v42.1h4.3c2.7 0 4-1.8 4-5V78.7zM182.5 133.3c-1.8-19.5-3.5-39.3-6.1-58.8h-2.9v58.8H156V1.4h20.8c15.7 0 23.6 6.4 23.6 23.7v27.2c0 10.1-2.2 15.4-7.5 18.6 3.4 20.8 6.1 41.8 8.7 62.3h-19.1zm.3-108.1c0-4.2-1.9-6.2-5.9-6.2h-3.4v39.7h3.5c3.8 0 5.8-2.1 5.8-6.1V25.2zM239.3 133.3l-1.9-18.7h-12.8l-2.2 18.7h-16.8l16-131.9h20.2l15.1 131.9h-17.6zm-3.9-34.6c-1.6-17.1-3.2-34.6-4.5-52.6-1.3 17.9-2.9 35.4-4.8 52.6h9.3zM285.7 94.2c0-6.9-2.2-9.9-12.8-23.4-8.2-10.6-12.3-18.3-12.3-29.5V21.6C260.6 7 267.7 0 281.9 0c14.9 0 20.7 7.1 20.7 21.6v24.2h-16V21.6c0-2.9-1.3-4.2-4.2-4.2s-4.2 1.3-4.2 4.2v19.6c0 6.7 2.9 9.6 12.7 22.4C300.1 76 303 82.7 303 94.1V113c0 13.8-6.3 21.8-21.2 21.8-14.7 0-21.3-8-21.3-21.8V85h16.7v28c0 2.9 1.4 4.3 4.2 4.3 2.9 0 4.3-1.4 4.3-4.3V94.2z"/></svg>