<svg xmlns="http://www.w3.org/2000/svg" width="735.4" height="350.8"><style>.st0{fill:#3f8bbe}</style><path class="st0" d="M1.2 158.8V0h44.6v21H22.2v47.1h14.5v21H22.2v69.6h-21zM53.6 158.8V0h43.6v21H74.7v46.3H89v21H74.7v49.4h23.5v21H53.6zM139.9 158.8c-2.1-23.5-4.2-47.3-7.3-70.8h-3.5v70.8h-21V0h25.1c18.9 0 28.4 7.7 28.4 28.6v32.8c0 12.2-2.7 18.5-9.1 22.4 4.1 25.1 7.3 50.4 10.4 75.1h-23zm.4-130.2c0-5-2.3-7.5-7.1-7.5h-4.1v47.8h4.2c4.6 0 6.9-2.5 6.9-7.3v-33zM172.7 158.8V0h21v158.8h-21zM243.1 158.8l-2.3-22.6h-15.4l-2.7 22.6h-20.3L221.7 0H246l18.1 158.8h-21zm-4.6-41.7c-1.9-20.6-3.9-41.7-5.4-63.3-1.5 21.6-3.5 42.6-5.8 63.3h11.2zM50 350.1l-6.8-6.4c-4.1 5.4-11.6 7.1-18.7 7.1-13.9 0-24.5-6.9-24.5-27v-108c0-17.4 8.7-27.2 26-27.2 17.4 0 24.9 9.8 24.9 27.2v28H32v-28.2c0-4.1-2.1-6-6-6-3.3 0-5 1.9-5 6v108.2c0 4.1 1.7 6 4.8 6 3.9 0 6-1.9 6-6v-31.1H25v-20.1h27V350h-2zM99.7 349.1l-2.3-22.6H82l-2.7 22.6H59l19.3-158.8h24.3l18.1 158.8h-21zm-4.6-41.7c-1.9-20.6-3.9-41.7-5.4-63.3-1.5 21.6-3.5 42.6-5.8 63.3h11.2zM155.7 302c0-8.3-2.7-12-15.4-28.2-9.8-12.7-14.9-22-14.9-35.5v-23.7c0-17.6 8.5-26 25.7-26 17.9 0 24.9 8.5 24.9 26v29.1h-19.3v-29.1c0-3.5-1.5-5-5-5s-5 1.5-5 5v23.5c0 8.1 3.5 11.6 15.2 27 11.2 14.9 14.7 23 14.7 36.7v22.8c0 16.6-7.5 26.2-25.5 26.2-17.8 0-25.7-9.6-25.7-26.2v-33.8h20.1v33.8c0 3.5 1.7 5.2 5 5.2 3.5 0 5.2-1.7 5.2-5.2V302zM196.4 349.1V211.3H181v-21h51.7v21h-15.2v137.8h-21.1zM272.8 349.1c-2.1-23.5-4.2-47.3-7.3-70.8H262v70.8h-21V190.3h25c18.9 0 28.4 7.7 28.4 28.6v32.8c0 12.2-2.7 18.5-9.1 22.4 4.1 25.1 7.3 50.4 10.4 75.1h-22.9zm.4-130.2c0-5-2.3-7.5-7.1-7.5H262v47.8h4.2c4.6 0 6.9-2.5 6.9-7.3v-33zM302.1 215.6c0-17.6 8.5-27 25.9-27s25.9 9.5 25.9 27v108.2c0 17.6-8.5 27-25.9 27s-25.9-9.5-25.9-27V215.6zm30.7 0c0-4.1-1.5-6-4.8-6-3.1 0-4.8 1.9-4.8 6v108.2c0 4.1 1.7 6 4.8 6 3.3 0 4.8-1.9 4.8-6V215.6zM401.9 349.1c-12.9-61.4-16.4-79.5-19.5-97.2.6 18.7.6 37.4.6 56.3v40.9h-17.6V190.3h24.1c10.6 67.1 12.9 83 15.4 99.4-.6-16.8-.6-33.4-.6-49.8v-49.6h17.6v158.8h-20zM433.5 215.6c0-17.6 8.5-27 25.9-27s25.9 9.5 25.9 27v108.2c0 17.6-8.5 27-25.9 27s-25.9-9.5-25.9-27V215.6zm30.7 0c0-4.1-1.5-6-4.8-6-3.1 0-4.8 1.9-4.8 6v108.2c0 4.1 1.7 6 4.8 6 3.3 0 4.8-1.9 4.8-6V215.6zM553.7 349.1v-44.8c0-18.5.4-37.2 1.2-55.8-1.7 18.3-4.1 37-11.4 100.5h-17.8l-11-100.5c.8 18.5 1.2 37.4 1.2 56v44.6h-19.1V190.3h27.8c7.9 85.5 9.3 98.2 9.8 110.5 1-12.3 2.1-25.5 10.2-110.5h28.2v158.8h-19.1zM585.9 349.1V190.3h21v158.8h-21zM650.3 290.8h19.1v32.8c0 18.5-7.1 27.2-23.9 27.2-17.2 0-26.2-8.7-26.2-26.8V216c0-18.3 9.1-27.4 26.2-27.4 16 0 23.9 8.7 23.9 27v28.2h-19.1v-28.2c0-4.1-1.5-6-4.8-6-3.1 0-4.8 1.9-4.8 6v108.2c0 4.1 1.7 6 4.8 6 3.3 0 4.8-1.9 4.8-6v-33zM714.4 349.1l-2.3-22.6h-15.4l-2.7 22.6h-20.3L693 190.3h24.3l18.1 158.8h-21zm-4.6-41.7c-1.9-20.6-3.9-41.7-5.4-63.3-1.5 21.6-3.5 42.6-5.8 63.3h11.2z"/></svg>