<svg xmlns="http://www.w3.org/2000/svg" width="1019.5" height="281.6" viewBox="0 0 1019.5 281.6">
  <style>
    .st0{fill:#f1ede4}.st1{fill:none;stroke:#3f8bbe;stroke-miterlimit:10}
  </style>
  <path class="st0" d="M0 274.7l.4-54.1h7.2l-.3 46.9 8 .1v7.2L0 274.7z"/>
  <path class="st0" d="M30.2 274.9l-.7-7.7h-5.3l-1 7.7h-6.9l6.9-54 8.3.1 5.8 54.1-7.1-.2zm-1.4-14.2c-.6-7-1.2-14.2-1.7-21.6-.6 7.4-1.3 14.5-2.1 21.5l3.8.1z"/>
  <path class="st0" d="M49.9 255.2h6.5l-.1 11.2c0 6.3-2.5 9.3-8.2 9.2-5.8 0-8.9-3-8.9-9.2l.3-36.8c0-6.2 3.2-9.3 9-9.3 5.5 0 8.1 3 8.1 9.3l-.1 9.6H50l.1-9.6c0-1.4-.5-2-1.6-2s-1.6.6-1.7 2l-.3 36.9c0 1.4.6 2 1.6 2 1.1 0 1.6-.6 1.7-2l.1-11.3z"/>
  <path class="st0" d="M60 229.6c0-6 3-9.2 8.9-9.1 5.9 0 8.8 3.3 8.7 9.3l-.3 36.9c0 6-3 9.2-8.9 9.1-5.9 0-8.8-3.3-8.7-9.3l.3-36.9zm10.4.1c0-1.4-.5-2-1.6-2s-1.6.6-1.7 2l-.3 36.9c0 1.4.6 2 1.6 2 1.1 0 1.6-.6 1.7-2l.3-36.9z"/>
  <path class="st0" d="M91.1 259.3c0-2.8-.9-4.1-5.2-9.6-3.3-4.4-5-7.5-5-12.1l.1-8.1c0-6 3-8.9 8.8-8.8 6.1 0 8.5 2.9 8.4 8.9l-.1 9.9h-6.6l.1-9.9c0-1.2-.5-1.7-1.7-1.7s-1.7.5-1.7 1.7l-.1 8c0 2.8 1.2 4 5.1 9.2 3.8 5.1 4.9 7.9 4.9 12.5l-.1 7.8c0 5.7-2.6 8.9-8.7 8.9-6 0-8.7-3.3-8.7-9l.1-11.5h6.8l-.1 11.5c0 1.2.6 1.8 1.7 1.8 1.2 0 1.8-.6 1.8-1.8l.2-7.7z"/>
  <path class="st0" d="M104.9 275.4l.3-46.9h-5.3v-7.2l17.6.1v7.2h-5.2l-.3 46.9-7.1-.1z"/>
  <path class="st0" d="M120.1 275.5l.4-54.1 14.9.1v7.2l-7.7-.1-.1 15.8h4.9v7.2h-4.9l-.1 16.8 8 .1v7.2l-15.4-.2z"/>
  <path class="st0" d="M145.5 275.7l10.7-54h5.2l-10.7 54h-5.2z"/>
  <path class="st0" d="M182.8 256.1h6.5l-.1 11.2c0 6.3-2.5 9.2-8.2 9.2-5.8 0-8.9-3-8.9-9.2l.3-36.8c0-6.2 3.2-9.3 9-9.3 5.5 0 8.1 3 8.1 9.3l-.1 9.6h-6.5l.1-9.6c0-1.4-.5-2-1.6-2s-1.6.6-1.7 2l-.3 36.9c0 1.4.6 2 1.6 2 1.1 0 1.6-.6 1.7-2l.1-11.3z"/>
  <path class="st0" d="M203.3 276.1l.2-24h-3.3l-.2 24h-7.2l.4-54.1h7.2l-.2 22.9h3.3l.2-22.9h7.1l-.4 54.1h-7.1z"/>
  <path class="st0" d="M227.1 276.2l-.7-7.7h-5.3l-1 7.7h-6.9l6.9-54 8.3.1 5.8 54.1-7.1-.2zm-1.5-14.2c-.6-7-1.2-14.2-1.7-21.6-.6 7.4-1.3 14.5-2.1 21.5l3.8.1z"/>
  <path class="st0" d="M249.5 276.4c-4.3-20.9-5.4-27.1-6.4-33.2.2 6.4.1 12.8.1 19.2l-.1 13.9h-6l.4-54.1 8.2.1c3.5 22.9 4.2 28.3 5 33.9-.2-5.7-.1-11.4-.1-17l.1-16.9h6l-.4 54.1h-6.8z"/>
  <path class="st0" d="M260.6 276.5l.4-54.1 14.9.1v7.2l-7.7-.1-.1 15.8h4.9v7.2h-4.9l-.1 16.8 8 .1v7.2l-15.4-.2z"/>
  <path class="st0" d="M279.2 276.6l.4-54.1h7.2l-.3 46.9 8 .1v7.2l-15.3-.1z"/>
  <path class="st0" d="M304.1 276.8l10.7-54h5.2l-10.7 54h-5.2z"/>
  <path class="st0" d="M341.5 277l.2-24h-3.3l-.2 24H331l.4-54.1h7.2l-.2 22.9h3.3l.2-22.9h7.1l-.4 54.1h-7.1z"/>
  <path class="st0" d="M362.8 261.1c0-2.8-.9-4.1-5.2-9.6-3.3-4.4-5-7.5-5-12.1l.1-8.1c0-6 3-8.9 8.8-8.8 6.1 0 8.5 2.9 8.4 8.9l-.1 9.9h-6.6l.1-9.9c0-1.2-.5-1.7-1.7-1.7s-1.7.5-1.7 1.7l-.1 8c0 2.8 1.2 4 5.1 9.2 3.8 5.1 4.9 7.9 4.9 12.5l-.1 7.8c0 5.7-2.6 8.9-8.7 8.9-6 0-8.7-3.3-8.7-9l.1-11.5h6.8l-.1 11.5c0 1.2.6 1.8 1.7 1.8 1.2 0 1.8-.6 1.8-1.8l.2-7.7z"/>
  <path class="st0" d="M373.6 277.2l.4-54.1 8.9.1c5.9 0 8.3 3.1 8.2 9.6L391 244c0 2.5-1 4.7-2.5 5.4 1.6.5 3.1 2.4 3.1 5.4l-.1 13.5c0 6.4-3.1 9.1-9 9.1l-8.9-.2zm10.7-22.3c0-1.4-.5-2-1.6-2h-1.8l-.1 17.3h1.8c1.1 0 1.6-.7 1.7-2v-13.3zm.2-22.5c0-1.3-.5-2-1.6-2h-1.8l-.1 16.2h1.8c1.1 0 1.6-.6 1.6-2l.1-12.2z"/>
  <path class="st0" d="M405.5 257.6h6.5l-.1 11.2c0 6.3-2.5 9.3-8.2 9.2-5.8 0-8.9-3-8.9-9.2l.3-36.8c0-6.2 3.2-9.3 9-9.3 5.5 0 8.1 3 8.1 9.3l-.1 9.6h-6.5l.1-9.6c0-1.4-.5-2-1.6-2s-1.6.6-1.7 2l-.3 36.9c0 1.4.6 2 1.6 2 1.1 0 1.6-.6 1.7-2l.1-11.3z"/>
  <path class="st0" d="M422.5 277.6l10.7-54h5.2l-10.7 54h-5.2z"/>
  <path class="st0" d="M453.4 277.8l-5.3-54.1 7.4.1c2.2 26.8 2.7 34.3 2.9 41.8.5-7.4 1.1-14.8 3.8-41.7h7.1l-6.5 54-9.4-.1z"/>
  <path class="st0" d="M472 277.9l.4-54.1h7.2l-.4 54.1H472z"/>
  <path class="st0" d="M487.4 278l.3-46.9h-5.3v-7.2l17.6.1v7.2h-5.2l-.3 46.9-7.1-.1z"/>
  <path class="st0" d="M512.9 278.2l-.7-7.7h-5.3l-1 7.7H499l6.9-54 8.3.1 5.8 54.1-7.1-.2zm-1.5-14.2c-.6-7-1.2-14.2-1.7-21.6-.6 7.4-1.3 14.5-2.1 21.5l3.8.1z"/>
  <path class="st0" d="M542.2 278.4l.1-15.2c0-6.3.2-12.7.5-19-.6 6.2-1.5 12.6-4.1 34.2h-6l-3.5-34.3c.2 6.3.3 12.8.3 19.1l-.1 15.2h-6.5l.4-54.1 9.5.1c2.5 29.1 2.9 33.5 3.1 37.7.4-4.2.8-8.7 3.7-37.6l9.6.1-.4 54.1-6.6-.3z"/>
  <path class="st0" d="M553.1 278.5l.4-54.1h7.2l-.4 54.1h-7.2z"/>
  <path class="st0" d="M577.2 278.6c-4.3-20.9-5.4-27.1-6.4-33.2.2 6.4.1 12.8.1 19.2l-.1 13.9h-6l.4-54.1 8.2.1c3.5 22.9 4.2 28.3 5 33.9-.2-5.7-.1-11.4-.1-17l.1-16.9h6l-.4 54.1h-6.8z"/>
  <path class="st0" d="M615.4 278.9c-2.3-27-2.6-30.9-2.7-34.9-.2 3.9-.6 7.9-3.5 34.8l-8.3-.1-4.8-54.1 7.5.1c1.8 28.4 2.1 33.1 2.3 37.7.4-4.7.9-9.3 4.1-37.7h6.4c2.4 28.4 2.7 33.1 3 37.7.2-4.7.7-9.3 3.3-37.7l7.5.1-6.4 54-8.4.1z"/>
  <path class="st0" d="M643 279.1l-.7-7.7H637l-1 7.7h-6.9l6.9-54 8.3.1 5.8 54.1-7.1-.2zm-1.5-14.2c-.6-7-1.2-14.2-1.7-21.6-.6 7.4-1.3 14.5-2.1 21.5l3.8.1z"/>
  <path class="st0" d="M654.6 279.2l.3-46.9h-5.3v-7.2l17.6.1v7.2H662l-.3 46.9-7.1-.1z"/>
  <path class="st0" d="M669.8 279.3l.4-54.1 14.9.1v7.2l-7.7-.1-.1 15.8h4.9v7.2h-4.9l-.1 16.8 8 .1v7.2l-15.4-.2z"/>
  <path class="st0" d="M699.2 279.5c-.7-8-1.3-16.1-2.3-24.1h-1.2l-.2 24.1h-7.2l.4-54.1 8.5.1c6.4 0 9.6 2.7 9.6 9.8l-.1 11.2c0 4.1-1 6.3-3.1 7.6 1.3 8.6 2.4 17.2 3.4 25.6l-7.8-.2zm.4-44.4c0-1.7-.8-2.6-2.4-2.6h-1.4l-.1 16.3h1.4c1.6 0 2.4-.8 2.4-2.5l.1-11.2z"/>
  <path class="st0" d="M717.1 279.6l10.7-54h5.2l-10.7 54h-5.2z"/>
  <path class="st0" d="M744 279.8l.4-54.1 15.2.1v7.2l-8-.1-.1 16h4.9v7.2h-4.9l-.2 23.7H744z"/>
  <path class="st0" d="M772.2 280l-.7-7.7h-5.3l-1 7.7h-6.9l6.9-54 8.3.1 5.8 54.1-7.1-.2zm-1.5-14.2c-.6-7-1.2-14.2-1.7-21.6-.6 7.4-1.3 14.5-2.1 21.5l3.8.1z"/>
  <path class="st0" d="M791.3 264.1c0-2.8-.9-4.1-5.2-9.6-3.3-4.4-5-7.5-5-12.1l.1-8.1c0-6 3-8.9 8.8-8.8 6.1 0 8.5 2.9 8.4 8.9l-.1 9.9h-6.6l.1-9.9c0-1.2-.5-1.7-1.7-1.7s-1.7.5-1.7 1.7l-.1 8c0 2.8 1.2 4 5.1 9.2 3.8 5.1 4.9 7.9 4.9 12.5l-.1 7.8c0 5.7-2.6 8.9-8.7 8.9-6 0-8.7-3.3-8.7-9l.1-11.5h6.8l-.1 11.5c0 1.2.6 1.8 1.7 1.8 1.2 0 1.8-.6 1.8-1.8l.2-7.7z"/>
  <path class="st0" d="M812.6 280.2l.2-24h-3.3l-.2 24h-7.2l.4-54.1h7.2l-.2 22.9h3.3l.2-22.9h7.1l-.4 54.1h-7.1z"/>
  <path class="st0" d="M824.1 234.8c0-6 3-9.2 8.9-9.1 5.9 0 8.8 3.3 8.7 9.3l-.3 36.9c0 6-3 9.2-8.9 9.1s-8.8-3.3-8.7-9.3l.3-36.9zm10.4.1c0-1.4-.5-2-1.6-2s-1.6.6-1.7 2l-.3 36.9c0 1.4.6 2 1.6 2 1.1 0 1.6-.6 1.7-2l.3-36.9z"/>
  <path class="st0" d="M857.7 280.5c-4.3-20.9-5.4-27.1-6.4-33.2.2 6.4.1 12.8.1 19.2l-.1 13.9h-6l.4-54.1 8.2.1c3.5 22.9 4.2 28.3 5 33.9-.2-5.7-.1-11.4-.1-17l.1-16.9h6l-.4 54.1h-6.8z"/>
  <path class="st0" d="M881.5 280.7l.3-46.9h-5.3v-7.2l17.6.1v7.2h-5.2l-.3 46.9-7.1-.1z"/>
  <path class="st0" d="M900.6 280.8l-5.3-54.1 7.4.1c2.2 26.8 2.7 34.3 2.9 41.8.5-7.4 1.1-14.8 3.8-41.7h7.1l-6.5 54-9.4-.1z"/>
  <path class="st0" d="M926 281l10.7-54h5.2l-10.7 54H926z"/>
  <path class="st0" d="M953 281.2l.4-54.1h7.2l-.3 46.9 8 .1v7.2l-15.3-.1z"/>
  <path class="st0" d="M983.2 281.4l-.7-7.7h-5.3l-1 7.7h-6.9l6.9-54 8.3.1 5.8 54.1-7.1-.2zm-1.5-14.2c-.6-7-1.2-14.2-1.7-21.6-.6 7.4-1.3 14.5-2.1 21.5l3.8.1z"/>
  <path class="st0" d="M1005.5 281.6c-4.3-20.9-5.4-27.1-6.4-33.2.2 6.4.1 12.8.1 19.2l-.1 13.9h-6l.4-54.1 8.2.1c3.5 22.9 4.2 28.3 5 33.9-.2-5.7-.1-11.4-.1-17l.1-16.9h6l-.4 54.1h-6.8z"/>
  <g>
    <path class="st1" d="M1.8 174.6L3 1.2l48.7.3-.2 23-25.7-.2-.4 51.4 15.8.1-.2 23-15.8-.1-.5 76.1-22.9-.2z"/>
    <path class="st1" d="M59.6 175L60.8 1.6l23 .2-1.2 173.5-23-.3z"/>
    <path class="st1" d="M97.3 175.3L98.5 1.8l47.6.3-.2 23-24.7-.2-.2 50.6 15.6.1-.2 23-15.6-.1-.4 54 25.7.2-.2 23-48.6-.4z"/>
    <path class="st1" d="M188.1 124.5c.1-9.1-2.9-13.1-16.7-30.9-10.7-14-16.1-24.1-16-38.9l.2-25.9C155.7 9.6 165.1.4 183.8.5c19.6.1 27.1 9.5 27 28.6l-.1 31.9-21.1-.1.2-31.8c0-3.8-1.6-5.5-5.4-5.5-3.8 0-5.5 1.6-5.5 5.4l-.2 25.7c-.1 8.9 3.7 12.7 16.5 29.6 12.1 16.3 15.8 25.2 15.7 40.2l-.2 24.9c-.1 18.1-8.4 28.6-28 28.5-19.4-.1-28-10.7-27.8-28.9l.3-36.9 21.9.1-.3 36.9c0 3.8 1.9 5.7 5.4 5.7 3.8 0 5.7-1.9 5.7-5.7l.2-24.6z"/>
    <path class="st1" d="M232.2 176.2l1-150.5-16.9-.1.2-23L273 3l-.2 23-16.7-.1-1 150.5-22.9-.2z"/>
    <path class="st1" d="M313.8 176.8l-2.4-24.7-16.9-.1-3.1 24.6-22.1-.2L291.6 3.1l26.6.2 18.6 173.6-23-.1zm-4.8-45.6c-2-22.6-3.9-45.6-5.4-69.2-1.8 23.6-4.1 46.6-6.8 69.1l12.2.1z"/>
    <path class="st1" d="M375.3 125.8c.1-9.1-2.9-13.1-16.7-30.9-10.7-14-16.1-24.1-16-38.9l.2-25.9c.1-19.2 9.5-28.4 28.2-28.3 19.6.1 27.1 9.5 27 28.6l-.2 31.8-21.1-.1.2-31.8c0-3.8-1.6-5.5-5.4-5.5-3.8 0-5.5 1.6-5.5 5.4l-.2 25.7c-.1 8.9 3.7 12.7 16.5 29.6 12.1 16.3 15.8 25.2 15.7 40.2l-.2 24.9c-.1 18.1-8.4 28.6-28 28.5-19.4-.1-28-10.7-27.8-28.9l.3-36.9 21.9.1-.3 36.9c0 3.8 1.9 5.7 5.4 5.7 3.8 0 5.7-1.9 5.7-5.7l.3-24.5z"/>
    <path class="st1" d="M438.6 177.6l1.2-173.5 28 .2c18.8.1 28.2 11.4 28 29.9l-.8 114.3c-.1 20-9.7 29.4-28.4 29.3l-28-.2zm34.5-143.7c0-4.2-1.9-6.5-5.4-6.6h-5.1l-.9 127.5h5.1c3.6 0 5.5-2.3 5.5-6.5l.8-114.4z"/>
    <path class="st1" d="M507.9 178.1l1.2-173.5 47.6.3-.2 23-24.7-.2-.3 50.6 15.6.1-.2 23-15.6-.1-.4 54 25.7.2-.2 23-48.5-.4z"/>
    <path class="st1" d="M657.8 179.1l.3-48.9c.1-20.2.7-40.7 1.7-60.9-2 20-4.7 40.4-13.2 109.7l-19.4-.1L616 69c.7 20.2 1 40.9.8 61.1l-.3 48.7-20.9-.1 1.2-173.5 30.4.2c8 93.4 9.4 107.4 9.9 120.9 1.1-13.5 2.5-27.8 12-120.7l30.8.2-1.2 173.5-20.9-.2z"/>
    <path class="st1" d="M731.8 179.6l-2.4-24.7-16.9-.1-3.1 24.6-22.1-.2L709.6 6l26.6.2 18.6 173.6-23-.2zm-4.8-45.5c-2-22.6-3.9-45.6-5.4-69.2-1.8 23.6-4.1 46.6-6.8 69.1l12.2.1z"/>
    <path class="st1" d="M798.8 180.1c-2.1-25.7-4.3-51.7-7.5-77.4h-3.8L787 180l-23-.2 1.2-173.5 27.4.2c20.7.1 30.9 8.6 30.8 31.4l-.2 35.8c-.1 13.3-3.1 20.2-10.1 24.4 4.2 27.4 7.6 55.1 10.8 82.1l-25.1-.1zm1.4-142.3c0-5.5-2.5-8.2-7.7-8.3h-4.4l-.4 52.3h4.6c5.1 0 7.6-2.7 7.6-8l.3-36z"/>
    <path class="st1" d="M865.2 116.9l20.9.1-.2 35.8c-.1 20.2-8 29.7-26.3 29.5-18.8-.1-28.6-9.7-28.5-29.5l.8-118C832 14.8 842 5 860.7 5.1c17.5.1 26.1 9.7 25.9 29.7l-.2 30.8-20.9-.1.2-30.8c0-4.4-1.6-6.5-5.2-6.6-3.4 0-5.3 2.1-5.3 6.5l-.8 118.3c0 4.4 1.9 6.5 5.2 6.6 3.6 0 5.3-2.1 5.3-6.5l.3-36.1z"/>
    <path class="st1" d="M934.8 181l-2.4-24.7-16.9-.1-3.1 24.6-22.1-.2L912.6 7.4l26.6.2 18.6 173.6-23-.2zm-4.8-45.6c-2-22.6-3.9-45.6-5.4-69.2-1.8 23.6-4.1 46.6-6.8 69.1l12.2.1z"/>
    <path class="st1" d="M996.2 130c.1-9.1-2.9-13.1-16.7-30.9-10.7-14-16.1-24.1-16-38.9l.2-25.9c.2-19.2 9.6-28.4 28.3-28.3 19.6.1 27.1 9.5 27 28.6l-.2 31.8-21.1-.1.2-31.8c0-3.8-1.6-5.5-5.4-5.5-3.8 0-5.5 1.6-5.5 5.4l-.2 25.7c-.1 8.9 3.7 12.7 16.5 29.6 12.1 16.3 15.8 25.2 15.7 40.2l-.2 24.9c-.1 18.1-8.4 28.6-28 28.5-19.4-.1-28-10.7-27.8-28.9l.3-36.9 21.9.1-.3 36.9c0 3.8 1.9 5.7 5.4 5.7 3.8 0 5.7-1.9 5.7-5.7l.2-24.5z"/>
  </g>
</svg>