<svg xmlns="http://www.w3.org/2000/svg" width="1145.1" height="270.5" viewBox="0 0 1145.1 270.5">
  <style>
    .st0{fill:#ddd}
  </style>
  <path class="st0" d="M0 267.6V0h73.8v30.2H29.9v87.1h28.6v30.2H29.9v120H0z"/>
  <path class="st0" d="M142.4 0h29.9v225c0 30.6-14.3 45.5-42.6 45.5s-42.6-15-42.6-45.5V0H117v225c0 10.4 4.6 15.6 12.7 15.6 8.5 0 12.7-5.2 12.7-15.6V0z"/>
  <path class="st0" d="M194.8 267.6V0H267v30.2h-42.3V116H253v30.2h-28.3v91.4h43.9v29.9h-73.8z"/>
  <path class="st0" d="M344 267.6c-4.6-40.3-9.1-80.3-15.6-120.3H316v120.3h-30.2V0h41.6c31.2 0 47.1 13 47.1 48.1v54.3c0 20.2-5.5 31.9-17.6 38.7 7.8 42.3 14 85.2 19.8 126.5H344zm0-213.3c0-16.3-2.3-24.1-16.6-24.1H316V120h11.7c11.4 0 16.3-5.5 16.3-17.2V54.3z"/>
  <path class="st0" d="M390.2 267.6V237l55.3-207.8h-53V0h82.9v27l-54 210h54v30.6h-85.2z"/>
  <path class="st0" d="M558.3 267.6l-4.9-41.3h-32.8c-2 14-3.6 27.6-5.2 41.3h-29.3L520.9 0h34.8l32.8 267.6h-30.2zm-8.2-68.9c-4.6-40-9.1-80.6-13-121.6-3.9 41-8.5 81.6-13.7 121.6h26.7z"/>
  <path class="st0" d="M648.3 267.6V0h43.2c28.9 0 40.3 14.6 40.3 46.5v54.3c0 14.6-5.2 25-14.3 28.3 9.4 2.3 17.6 11.1 17.6 28v65.4c0 31.5-14.6 45.2-43.6 45.2h-43.2zm55.6-222.1c0-11.1-3.6-15.3-12.4-15.3h-13.3v87.5h13.7c8.5 0 12-4.2 12-14V45.5zm.7 114.1c0-11.1-3.3-15.6-12.7-15.6h-13.7v93.6h13.3c8.8 0 13-5.2 13-15.6v-62.4z"/>
  <path class="st0" d="M812.5 267.6c-4.6-40.3-9.1-80.3-15.6-120.3h-12.4v120.3h-30.2V0h41.6C827.1 0 843 13 843 48.1v54.3c0 20.2-5.5 31.9-17.6 38.7 7.8 42.3 14 85.2 19.8 126.5h-32.7zm0-213.3c0-16.3-2.3-24.1-16.6-24.1h-11.4V120h11.7c11.4 0 16.3-5.5 16.3-17.2V54.3z"/>
  <path class="st0" d="M916.9 0h29.9v225c0 30.6-14.3 45.5-42.6 45.5s-42.6-15-42.6-45.5V0h29.9v225c0 10.4 4.6 15.6 12.7 15.6 8.5 0 12.7-5.2 12.7-15.6V0z"/>
  <path class="st0" d="M988.7 267.6V30.2h-28V0h85.8v30.2h-28v237.3h-29.8z"/>
  <path class="st0" d="M1114.9 267.6l-4.9-41.3h-32.8c-2 14-3.6 27.6-5.2 41.3h-29.3L1077.5 0h34.8l32.8 267.6h-30.2zm-8.2-68.9c-4.6-40-9.1-80.6-13-121.6-3.9 41-8.5 81.6-13.7 121.6h26.7z"/>
</svg>