<svg xmlns="http://www.w3.org/2000/svg" width="797" height="329.9"><style>.st0{fill:none;stroke:#f25430;stroke-miterlimit:10}</style><path class="st0" d="M101.8 327.9L88.1 315c-8.2 11-23.5 14.5-37.9 14.5C22 329.5.5 315.4.5 274.7v-219C.5 20.5 18.1.6 53.3.6s50.5 19.9 50.5 55.1v56.7H65.4V55.3c0-8.2-4.3-12.1-12.1-12.1-6.6 0-10.2 3.9-10.2 12.1v219.4c0 8.2 3.5 12.1 9.8 12.1 7.8 0 12.1-3.9 12.1-12.1v-63H51.3V171h54.8v156.8h-4.3zM202.7 325.9l-4.7-45.8h-31.3l-5.5 45.8h-41.1L159.3 4h49.3l36.8 321.9h-42.7zm-9.4-84.5c-3.9-41.8-7.8-84.5-11-128.3-3.1 43.8-7 86.4-11.7 128.3h22.7zM262.5 325.9V4h42.6v279.3h47.7v42.6h-90.3zM369.7 325.9V4h88.4v42.6h-45.8v93.9h28.9v42.6h-28.9v100.1H460v42.6h-90.3zM544.5 325.9c-4.3-47.7-8.6-95.8-14.9-143.5h-7v143.5H480V4h50.8c38.3 0 57.5 15.6 57.5 57.9v66.5c0 24.6-5.5 37.5-18.4 45.4 8.2 50.8 14.9 102.1 21.1 152.1h-46.5zm.8-264c0-10.2-4.7-15.3-14.5-15.3h-8.2v97h8.6c9.4 0 14.1-5.1 14.1-14.9V61.9zM611 325.9V4h42.6v321.9H611zM753.8 325.9l-4.7-45.8h-31.3l-5.5 45.8h-41.1L710.4 4h49.3l36.8 321.9h-42.7zm-9.4-84.5c-3.9-41.8-7.8-84.5-11-128.3-3.1 43.8-7 86.4-11.7 128.3h22.7z"/></svg>