<svg xmlns="http://www.w3.org/2000/svg" width="551.9" height="836.8" viewBox="0 0 551.9 836.8">
  <style>
    .st0{fill:#418bc4}.st1{stroke-width:.75}.st1,.st2{fill:none;stroke:#418bc4;stroke-miterlimit:10}
  </style>
  <path class="st0" d="M2.9 421.3h544.2v16.1H2.9z"/>
  <path class="st0" d="M5.8 829.6h546v7.1H5.8z"/>
  <path class="st1" d="M.4 138.1V1.9h18v118.2h20.2v18H.4z"/>
  <path class="st1" d="M77.4 138.1l-2-19.4H62.1l-2.3 19.4H42.4L59 1.9h20.9l15.6 136.3H77.4zm-4-35.7c-1.7-17.7-3.3-35.8-4.6-54.3-1.3 18.5-3 36.6-5 54.3h9.6z"/>
  <path class="st1" d="M152.5 88.1h16.4v28.1c0 15.9-6.1 23.3-20.5 23.3-14.7 0-22.5-7.5-22.5-23V23.9c0-15.7 7.8-23.5 22.5-23.5 13.7 0 20.5 7.5 20.5 23.2v24.2h-16.4V23.6c0-3.5-1.3-5.1-4.1-5.1-2.6 0-4.1 1.7-4.1 5.1v92.9c0 3.5 1.5 5.1 4.1 5.1 2.8 0 4.1-1.7 4.1-5.1V88.1z"/>
  <path class="st1" d="M208.3 138.1l-2-19.4h-13.2l-2.3 19.4h-17.4L190 1.9h20.9l15.6 136.3h-18.2zm-3.9-35.7c-1.7-17.7-3.3-35.8-4.6-54.3-1.3 18.5-3 36.6-5 54.3h9.6z"/>
  <path class="st1" d="M261.8 138.1c-1.8-20.2-3.6-40.6-6.3-60.8h-3v60.8h-18V1.9H256c16.2 0 24.3 6.6 24.3 24.5v28.1c0 10.4-2.3 15.9-7.8 19.2 3.5 21.5 6.3 43.2 8.9 64.4h-19.6zm.4-111.7c0-4.3-2-6.5-6.1-6.5h-3.5V61h3.6c4 0 6-2.2 6-6.3V26.4z"/>
  <path class="st1" d="M321.3 138.1l-2-19.4H306l-2.3 19.4h-17.4L302.9 1.9h20.9l15.6 136.3h-18.1zm-4-35.7c-1.7-17.7-3.3-35.8-4.6-54.3-1.3 18.5-3 36.6-5 54.3h9.6z"/>
  <path class="st1" d="M371.4 88.1h16.4v28.1c0 15.9-6.1 23.3-20.5 23.3-14.7 0-22.5-7.5-22.5-23V23.9c0-15.7 7.8-23.5 22.5-23.5 13.7 0 20.5 7.5 20.5 23.2v24.2h-16.4V23.6c0-3.5-1.3-5.1-4.1-5.1-2.6 0-4.1 1.7-4.1 5.1v92.9c0 3.5 1.5 5.1 4.1 5.1 2.8 0 4.1-1.7 4.1-5.1V88.1z"/>
  <path class="st1" d="M397.1 23.6c0-15.1 7.3-23.2 22.2-23.2 14.9 0 22.2 8.1 22.2 23.2v92.9c0 15.1-7.3 23.2-22.2 23.2-14.9 0-22.2-8.1-22.2-23.2V23.6zm26.3 0c0-3.5-1.3-5.1-4.1-5.1-2.6 0-4.1 1.7-4.1 5.1v92.9c0 3.5 1.5 5.1 4.1 5.1 2.8 0 4.1-1.7 4.1-5.1V23.6z"/>
  <path class="st1" d="M452.6 138.1V1.9h18v118.2h20.2v18h-38.2z"/>
  <path class="st1" d="M529.6 138.1l-2-19.4h-13.2l-2.3 19.4h-17.4L511.2 1.9H532l15.6 136.3h-18zm-4-35.7c-1.7-17.7-3.3-35.8-4.6-54.3-1.3 18.5-3 36.6-5 54.3h9.6z"/>
  <g>
    <path class="st0" d="M1.3 228.7V162h66.5v16.4H27.1v9.1h33.3v16.4H27.1v24.8H1.3z"/>
    <path class="st0" d="M70.2 228.7L99.1 162h32.8l27 66.7h-28l-2.2-6.5h-28.4l-2.4 6.5H70.2zm36.1-22.9h16.5l-8-23.4-8.5 23.4z"/>
    <path class="st0" d="M166.7 208.5H198c.2 1.8 1.4 3.2 3.4 4.2s4.8 1.5 8.2 1.5c3.5 0 6.1-.4 7.8-1.2 1.7-.8 2.6-2 2.6-3.6 0-1.4-.8-2.5-2.3-3.4-1.5-.9-3.8-1.5-6.9-1.9l-19.3-2.4c-8-1-14-3.1-18.1-6.4-4-3.3-6.1-7.8-6.1-13.4 0-7.5 3.1-12.9 9.2-16.3 6.1-3.4 15.9-5.1 29.2-5.1 13.9 0 24.2 1.7 31 5.1s10.4 8.8 11 16h-30c-.3-2.1-1.6-3.7-3.8-4.8-2.2-1.1-5.3-1.6-9.2-1.6-2.9 0-5.2.4-6.8 1.2-1.7.8-2.5 1.9-2.5 3.2 0 1.3.6 2.2 1.9 2.9 1.3.7 3.9 1.3 8 1.8l23.5 3.3c7.4 1.1 12.9 3.2 16.5 6.4 3.6 3.2 5.5 7.6 5.5 13.1 0 8.2-3.6 14.2-10.9 18-7.3 3.8-18.7 5.7-34.4 5.7-12.4 0-22-1.9-28.6-5.8-6.7-3.8-10.1-9.4-10.2-16.5z"/>
    <path class="st0" d="M258.7 228.7l28.9-66.7h32.8l27 66.7h-28l-2.2-6.5h-28.4l-2.4 6.5h-27.7zm36.1-22.9h16.5l-8-23.4-8.5 23.4z"/>
    <path class="st0" d="M359.3 228.7V162h30.6l25.7 38.4V162h25v66.7h-29l-28-39v39h-24.3z"/>
    <path class="st0" d="M458.7 195.4c0-11.6 3.8-20.4 11.3-26.3 7.5-5.9 18.7-8.9 33.5-8.9s26 3 33.5 8.9 11.3 14.7 11.3 26.3c0 11.6-3.8 20.3-11.3 26.2-7.5 5.9-18.7 8.9-33.5 8.9s-26-3-33.5-8.9-11.3-14.6-11.3-26.2zm27.8 0c0 5.8 1.5 10.2 4.4 13.3 2.9 3.1 7.2 4.6 12.7 4.6 5.5 0 9.8-1.5 12.7-4.6 2.9-3.1 4.4-7.5 4.4-13.3 0-5.8-1.5-10.3-4.4-13.4-2.9-3.1-7.2-4.6-12.7-4.6-5.5 0-9.8 1.5-12.7 4.6-2.9 3.1-4.4 7.6-4.4 13.4z"/>
  </g>
  <g>
    <path class="st2" d="M1.5 786.9l36.1-.1c.3 2.1 1.6 3.7 3.9 4.8 2.3 1.1 5.5 1.7 9.5 1.7s7-.5 9-1.4c2-.9 3-2.3 3-4.1 0-1.6-.9-2.9-2.6-3.9-1.7-1-4.4-1.7-8-2.2L30.1 779c-9.2-1.1-16.2-3.6-20.8-7.4-4.7-3.8-7-9-7-15.4 0-8.6 3.5-14.9 10.6-18.8 7.1-4 18.3-5.9 33.7-5.9 16 0 27.9 2 35.7 5.9 7.8 4 12 10.1 12.6 18.5H60.3c-.4-2.4-1.8-4.3-4.4-5.5-2.5-1.2-6.1-1.8-10.7-1.8-3.3 0-5.9.5-7.9 1.4-1.9.9-2.9 2.2-2.9 3.7s.7 2.6 2.2 3.3c1.5.8 4.5 1.5 9.2 2.1l27.1 3.8c8.5 1.2 14.8 3.7 19 7.4 4.2 3.7 6.3 8.7 6.3 15.1 0 9.4-4.2 16.3-12.6 20.8-8.4 4.4-21.6 6.6-39.7 6.6-14.4 0-25.4-2.2-33.1-6.7-7.3-4.5-11.2-10.9-11.3-19.2z"/>
    <path class="st2" d="M148.9 733.4V771c0 7.7 1.2 13.1 3.5 16.1 2.3 3 6.4 4.5 12.1 4.5 5.8 0 9.8-1.5 12.1-4.5 2.3-3 3.5-8.4 3.5-16.1v-37.6H210v40.4c0 13.3-3.6 23.1-10.9 29.3-7.3 6.2-18.8 9.3-34.5 9.3-15.6 0-27.1-3.1-34.5-9.4s-11-16-11-29.3v-40.4h29.8z"/>
    <path class="st2" d="M299.4 765.7c-.5-4.8-2.2-8.4-5-10.9-2.9-2.5-6.8-3.7-11.8-3.7-6.4 0-11.3 1.8-14.6 5.4-3.4 3.6-5.1 8.7-5.1 15.4 0 6.7 1.7 11.8 5.1 15.3 3.4 3.5 8.3 5.3 14.6 5.3 4.6 0 8.3-1 11.2-3.1 2.8-2.1 4.7-5.2 5.6-9.3h34.4c-1.6 10.6-6.7 18.7-15.3 24.1-8.7 5.4-20.6 8.2-35.8 8.2-17.1 0-30-3.4-38.7-10.2-8.7-6.8-13.1-16.9-13.1-30.2 0-13.4 4.4-23.5 13.1-30.3 8.7-6.8 21.6-10.2 38.7-10.2 15.9 0 28.3 3 37 8.9s13.4 14.4 13.9 25.5h-34.2z"/>
    <path class="st2" d="M411.8 733.4c6.7 0 12 .3 16.1 1 4 .6 7.2 1.6 9.4 3 2.9 1.7 5.1 4 6.6 6.8s2.3 6.2 2.3 9.9c0 4.5-1.1 8.5-3.4 12s-5.4 5.9-9.3 7.5c3.4 1.4 5.8 3.2 7.2 5.3 1.4 2.1 2.2 5.8 2.4 11.1 0 .6.1 1.4.1 2.4.5 10.1 1.8 15.6 4.1 16.7v1.2h-33.1c-1-1.6-1.6-4.8-1.7-9.5-.1-2.7-.2-4.9-.4-6.3-.3-2.8-1.3-4.8-2.8-5.9-1.6-1.1-4.2-1.7-7.9-1.7h-17.8v23.5h-30.2v-76.9h58.4zm-28.3 33.2h17.4c4.5 0 7.7-.5 9.6-1.6 1.9-1.1 2.8-2.9 2.8-5.4 0-2.5-.9-4.2-2.6-5.2-1.8-1-5.2-1.5-10.5-1.5h-16.6v13.7z"/>
    <path class="st2" d="M467.4 810.3v-76.9h81.5v18.9h-51.7v9.2h41.9v19h-41.9v10.1h54.2v19.8h-84z"/>
  </g>
  <g>
    <path class="st2" d="M4.5 394V258.3h22.4c14.8 0 20.8 7.7 20.8 23.9v28c0 6.3-2.3 11.7-6.3 13.5 4.1 1.3 7.9 5.9 7.9 13.5V371c0 16-7.6 22.9-22.4 22.9H4.5zm26.6-112.6c0-3.3-1.3-5.1-4.1-5.1h-4.4V317h4.6c2.6 0 4-1.6 4-5.1v-30.5zm0 56.4c0-3.5-1.3-5.1-4-5.1h-4.6V376h4.4c2.8 0 4.1-1.8 4.1-5.1v-33.1z"/>
    <path class="st2" d="M88.4 394l-2-19.3H73.2L70.9 394H53.6l16.5-135.6h20.8L106.4 394h-18zm-3.9-35.6c-1.6-17.6-3.3-35.6-4.6-54.1-1.3 18.5-3 36.4-4.9 54.1h9.5z"/>
    <path class="st2" d="M110 376.3c1.8.3 4.1.5 7.1.5 2.8 0 4.4-2 4.4-5.9V258.3h18v112.6c0 16.6-7.7 24.1-22.4 24.1-2.6 0-4.9-.3-7.1-.8v-17.9z"/>
    <path class="st2" d="M150 279.9c0-15 7.3-23.1 22.1-23.1s22.1 8.1 22.1 23.1v92.5c0 15-7.3 23.1-22.1 23.1s-22.1-8.1-22.1-23.1v-92.5zm26.3 0c0-3.5-1.3-5.1-4.1-5.1-2.6 0-4.1 1.6-4.1 5.1v92.5c0 3.5 1.5 5.1 4.1 5.1 2.8 0 4.1-1.6 4.1-5.1v-92.5z"/>
    <path class="st2" d="M228.5 394V258.3h37.2v18h-19.3v39.6h12.2v18h-12.2V376h20.1v18h-38z"/>
    <path class="st2" d="M275.8 394V258.3h18V376h20.1v18h-38.1z"/>
    <path class="st2" d="M352.4 394l-2-19.3h-13.2L335 394h-17.3l16.5-135.6H355L370.4 394h-18zm-3.9-35.6c-1.6-17.6-3.3-35.6-4.6-54.1-1.3 18.5-3 36.4-4.9 54.1h9.5z"/>
    <path class="st2" d="M378.5 394V258.3h18V376h20.1v18h-38.1z"/>
    <path class="st2" d="M472.7 394v-38.2c0-15.8.3-31.8 1-47.6-1.5 15.7-3.5 31.6-9.7 85.9h-15.2l-9.4-85.9c.7 15.8 1 32 1 47.8v38h-16.3V258.3h23.7c6.8 73 7.9 83.9 8.4 94.4.8-10.5 1.8-21.8 8.7-94.4H489V394h-16.3z"/>
    <path class="st2" d="M531.4 394l-2-19.3h-13.2l-2.3 19.3h-17.3l16.5-135.6h20.8L549.4 394h-18zm-3.9-35.6c-1.6-17.6-3.3-35.6-4.6-54.1-1.3 18.5-3 36.4-4.9 54.1h9.5z"/>
  </g>
  <g>
    <path class="st0" d="M43.8 710.3l-2.5-24.1H24.8l-2.9 24.1H.4L20.9 541h25.9l19.3 169.3H43.8zm-5-44.5c-2.1-22-4.1-44.4-5.8-67.5-1.6 23-3.7 45.5-6.2 67.5h12z"/>
    <path class="st0" d="M81.2 710.3V563.4H64.7V541h55.1v22.4h-16.3v146.9H81.2z"/>
    <path class="st0" d="M129.7 710.3V541h22.4v146.9h25.1v22.4h-47.5z"/>
    <path class="st0" d="M225.4 710.3l-2.5-24.1h-16.5l-2.9 24.1H182L202.6 541h25.9l19.3 169.3h-22.4zm-5-44.5c-2.1-22-4.1-44.4-5.8-67.5-1.6 23-3.7 45.5-6.2 67.5h12z"/>
    <path class="st0" d="M296.3 710.3c-13.8-65.4-17.5-84.8-20.8-103.7.6 20 .6 39.9.6 60.1v43.6h-18.7V541h25.7c11.3 71.6 13.8 88.5 16.5 105.9-.6-17.9-.6-35.6-.6-53.1V541h18.7v169.3h-21.4z"/>
    <path class="st0" d="M343.7 710.3V563.4h-16.5V541h55.1v22.4H366v146.9h-22.3z"/>
    <path class="st0" d="M392.6 710.3V541H415v169.3h-22.4z"/>
    <path class="st0" d="M462.3 648.1h20.4v35c0 19.7-7.6 29-25.5 29-18.3 0-28-9.3-28-28.6V568.3c0-19.5 9.7-29.2 28-29.2 17.1 0 25.5 9.3 25.5 28.8v30h-20.4v-30c0-4.3-1.6-6.4-5.1-6.4-3.3 0-5.1 2.1-5.1 6.4v115.4c0 4.3 1.9 6.4 5.1 6.4 3.5 0 5.1-2.1 5.1-6.4v-35.2z"/>
    <path class="st0" d="M494.2 567.9c0-18.7 9.1-28.8 27.6-28.8s27.6 10.1 27.6 28.8v115.4c0 18.7-9.1 28.8-27.6 28.8s-27.6-10.1-27.6-28.8V567.9zm32.7 0c0-4.3-1.6-6.4-5.1-6.4-3.3 0-5.1 2.1-5.1 6.4v115.4c0 4.3 1.9 6.4 5.1 6.4 3.5 0 5.1-2.1 5.1-6.4V567.9z"/>
  </g>
  <g>
    <path class="st0" d="M3 521.2v-53.4h53.3v13.1H23.7v7.3h26.7v13.2H23.7v19.9H3z"/>
    <path class="st0" d="M68.9 521.2v-53.4h20.7v38.8h32.6v14.7H68.9z"/>
    <path class="st0" d="M131.5 494.5c0-9.3 3-16.3 9.1-21 6-4.7 15-7.1 26.9-7.1 11.9 0 20.8 2.4 26.9 7.1 6 4.7 9.1 11.7 9.1 21s-3 16.3-9.1 21c-6 4.7-15 7.1-26.9 7.1-11.9 0-20.8-2.4-26.9-7.1-6-4.7-9.1-11.7-9.1-21zm22.3 0c0 4.6 1.2 8.2 3.5 10.7s5.7 3.7 10.2 3.7 7.8-1.2 10.2-3.7c2.3-2.5 3.5-6 3.5-10.7 0-4.7-1.2-8.3-3.5-10.7-2.3-2.5-5.7-3.7-10.2-3.7s-7.8 1.2-10.2 3.7c-2.3 2.4-3.5 6-3.5 10.7z"/>
    <path class="st0" d="M258.7 467.7c4.6 0 8.4.2 11.2.7 2.8.4 5 1.1 6.5 2.1 2 1.2 3.5 2.8 4.6 4.8s1.6 4.3 1.6 6.9c0 3.2-.8 5.9-2.3 8.3-1.6 2.4-3.7 4.1-6.5 5.2 2.4 1 4 2.2 5 3.7s1.5 4 1.7 7.7c0 .4 0 1 .1 1.7.3 7 1.3 10.9 2.8 11.6v.8h-23c-.7-1.1-1.1-3.3-1.2-6.6 0-1.9-.1-3.4-.3-4.4-.2-2-.9-3.3-2-4.1-1.1-.8-2.9-1.2-5.5-1.2H239v16.3h-21v-53.4h40.7zM239 490.8h12c3.2 0 5.4-.4 6.7-1.1 1.3-.7 1.9-2 1.9-3.8 0-1.7-.6-2.9-1.8-3.6-1.2-.7-3.6-1-7.3-1H239v9.5z"/>
    <path class="st0" d="M297.2 521.2v-53.4h56.6v13.1h-35.9v6.4H347v13.2h-29.1v7h37.7v13.8h-58.4z"/>
    <path class="st0" d="M408.9 467.7c4.6 0 8.4.2 11.2.7 2.8.4 5 1.1 6.5 2.1 2 1.2 3.5 2.8 4.6 4.8s1.6 4.3 1.6 6.9c0 3.2-.8 5.9-2.3 8.3-1.6 2.4-3.7 4.1-6.5 5.2 2.4 1 4 2.2 5 3.7s1.5 4 1.7 7.7c0 .4 0 1 .1 1.7.3 7 1.3 10.9 2.8 11.6v.8h-23c-.7-1.1-1.1-3.3-1.2-6.6 0-1.9-.1-3.4-.3-4.4-.2-2-.9-3.3-2-4.1-1.1-.8-2.9-1.2-5.5-1.2h-12.4v16.3h-21v-53.4h40.7zm-19.7 23.1h12.1c3.2 0 5.4-.4 6.7-1.1 1.3-.7 1.9-2 1.9-3.8 0-1.7-.6-2.9-1.8-3.6-1.2-.7-3.6-1-7.3-1h-11.6v9.5z"/>
    <path class="st0" d="M447.5 521.2v-53.4h20.7v53.4h-20.7z"/>
    <path class="st0" d="M477.7 521.2l23.2-53.4h26.3l21.6 53.4h-22.4l-1.8-5.2h-22.7l-1.9 5.2h-22.3zm29-18.4H520l-6.4-18.8-6.9 18.8z"/>
  </g>
</svg>