<svg xmlns="http://www.w3.org/2000/svg" width="906" height="370.1"><style>.st0{fill:#f25430}</style><path class="st0" d="M0 29.6V.8h21.5c4.1 0 7.2.8 9.4 2.4 2.2 1.6 3.3 3.9 3.3 6.9 0 3-1.1 5.3-3.3 6.9-2.2 1.6-5.4 2.4-9.4 2.4H11.2v10.1H0zM17.3 7h-6.1v6.2h6.1c1.8 0 3.1-.2 3.8-.7.7-.5 1-1.3 1-2.4 0-1.2-.3-2-1-2.4-.7-.5-2-.7-3.8-.7zM35 29.6L47.5.8h14.2l11.6 28.8H61.2l-1-2.8H48l-1 2.8H35zm15.6-10h7.1L54.3 9.5l-3.7 10.1zM100.4.8c2.5 0 4.5.1 6 .4 1.5.2 2.7.6 3.5 1.1 1.1.6 1.9 1.5 2.5 2.6s.8 2.3.8 3.7c0 1.7-.4 3.2-1.3 4.5s-2 2.2-3.5 2.8c1.3.5 2.2 1.2 2.7 2s.8 2.2.9 4.2v.9c.2 3.8.7 5.9 1.5 6.3v.4h-12.4c-.4-.6-.6-1.8-.6-3.5 0-1-.1-1.8-.1-2.4-.1-1.1-.5-1.8-1.1-2.2-.6-.4-1.6-.6-3-.6h-6.7v8.8H78.5V.8h21.9zM89.8 13.2h6.5c1.7 0 2.9-.2 3.6-.6.7-.4 1-1.1 1-2 0-.9-.3-1.6-1-2S97.9 8 96 8h-6.2v5.2zM116.9 29.6L129.4.8h14.2l11.6 28.8h-12.1l-1-2.8h-12.3l-1 2.8h-11.9zm15.7-10h7.1l-3.5-10.1-3.6 10.1zM160.4.7h18.5c6 0 10.5 1.2 13.7 3.7 3.1 2.5 4.7 6 4.7 10.8 0 4.7-1.6 8.3-4.7 10.7s-7.7 3.7-13.7 3.7h-18.5V.7zm11.2 7.2v14h5.6c2.9 0 5-.5 6.2-1.6s1.9-2.9 1.9-5.4c0-2.5-.6-4.3-1.9-5.4-1.3-1.1-3.3-1.6-6.2-1.6h-5.6zM203.5 15.2c0-5 1.6-8.8 4.9-11.3 3.3-2.6 8.1-3.8 14.5-3.8s11.2 1.3 14.5 3.8c3.3 2.6 4.9 6.3 4.9 11.3 0 5-1.6 8.8-4.9 11.3-3.3 2.6-8.1 3.8-14.5 3.8s-11.2-1.3-14.5-3.8c-3.3-2.6-4.9-6.3-4.9-11.3zm12 0c0 2.5.6 4.4 1.9 5.7 1.3 1.3 3.1 2 5.5 2s4.2-.7 5.5-2c1.3-1.3 1.9-3.2 1.9-5.7s-.6-4.4-1.9-5.8c-1.3-1.3-3.1-2-5.5-2s-4.2.7-5.5 2c-1.3 1.3-1.9 3.3-1.9 5.8zM272 .8c2.5 0 4.5.1 6 .4 1.5.2 2.7.6 3.5 1.1 1.1.6 1.9 1.5 2.5 2.6s.8 2.3.8 3.7c0 1.7-.4 3.2-1.3 4.5s-2 2.2-3.5 2.8c1.3.5 2.2 1.2 2.7 2s.8 2.2.9 4.2v.9c.2 3.8.7 5.9 1.5 6.3v.4h-12.4c-.4-.6-.6-1.8-.6-3.5 0-1-.1-1.8-.1-2.4-.1-1.1-.5-1.8-1.1-2.2-.6-.4-1.6-.6-3-.6h-6.7v8.8h-11.3V.8H272zm-10.6 12.4h6.5c1.7 0 2.9-.2 3.6-.6.7-.4 1-1.1 1-2 0-.9-.3-1.6-1-2-.7-.4-2-.6-3.9-.6h-6.2v5.2z"/><g><path class="st0" d="M4 366.9V74.5h38.7v253.7h43.4v38.7H4zM167.5 366.9l-4.3-41.6h-28.4l-5 41.6H92.5L128 74.4h44.8l33.4 292.5h-38.7zm-8.5-76.7c-3.6-38-7.1-76.8-10-116.6-2.8 39.8-6.4 78.5-10.7 116.6H159zM326.7 366.9V237.2h-17.8v129.7h-38.7V74.5h38.7v124h17.8v-124h38.4V367h-38.4zM444.7 74.5h38.4v245.9c0 33.4-16 49.8-47.3 49.8-31.6 0-47.6-16.3-47.6-49.8V74.5h38.7v245.9c0 7.5 3.2 11 8.9 11s8.9-3.6 8.9-11V74.5zM506.2 366.9V74.5h80.3v38.7h-41.6v85.3h26.3v38.7h-26.3v91h43.4v38.7h-82.1zM606.4 366.9V74.5h38.7v253.7h43.4v38.7h-82.1zM703.7 366.9V74.5h38.7v253.7h43.4v38.7h-82.1zM867.2 366.9l-4.3-41.6h-28.4l-5 41.6h-37.3l35.5-292.5h44.8L906 366.9h-38.8zm-8.5-76.7c-3.6-38-7.1-76.8-10-116.6-2.8 39.8-6.4 78.5-10.7 116.6h20.7z"/></g></svg>