<svg xmlns="http://www.w3.org/2000/svg" width="1303.2" height="213"><style>.st0{fill:#f1ede4}.st1{fill:none;stroke:#f1ede4;stroke-miterlimit:10}</style><path class="st0" d="M74.3 210.2v-58.5c0-24.2.5-48.6 1.5-72.8-2.3 23.9-5.3 48.4-14.9 131.3H37.8L23.4 78.9c1 24.2 1.5 48.9 1.5 73.1v58.2H0V2.8h36.3c10.3 111.6 12.1 128.3 12.9 144.4 1.3-16.1 2.8-33.3 13.4-144.4h36.8v207.4H74.3zM115.9 210.2V2.8h57v27.5h-29.5v60.5h18.7v27.5h-18.7v64.5h30.7v27.5h-58.2zM200.9 210.2v-180h-20.2V2.8h67.5v27.5h-19.9v179.9h-27.4zM300.7 210.2c-2.8-30.7-5.5-61.7-9.6-92.5h-4.5v92.5h-27.5V2.8h32.8c24.7 0 37 10.1 37 37.3v42.8c0 15.9-3.5 24.2-11.8 29.2 5.3 32.8 9.6 65.8 13.6 98h-30zm.5-170.1c0-6.6-3-9.8-9.3-9.8h-5.3v62.5h5.5c6 0 9.1-3.3 9.1-9.6V40.1zM339 35.8C339 12.9 350.1.5 372.8.5c22.7 0 33.8 12.3 33.8 35.3v141.4c0 22.9-11.1 35.3-33.8 35.3-22.7 0-33.8-12.3-33.8-35.3V35.8zm40 0c0-5.3-2-7.8-6.3-7.8-4 0-6.3 2.5-6.3 7.8v141.4c0 5.3 2.3 7.8 6.3 7.8 4.3 0 6.3-2.5 6.3-7.8V35.8zM422.1 210.2V2.8h33.5c22.4 0 33.8 13.4 33.8 35.5v136.6c0 23.9-11.3 35.3-33.8 35.3h-33.5zm40.1-172.1c0-5-2.3-7.8-6.6-7.8h-6v152.5h6c4.3 0 6.6-2.8 6.6-7.8V38.1zM549.4 210.2l-3-29.5h-20.2l-3.5 29.5h-26.5L521.4 2.8h31.8l23.7 207.4h-27.5zm-6-54.4c-2.5-27-5-54.4-7.1-82.7-2 28.2-4.5 55.7-7.6 82.7h14.7zM635.1 210.2c-16.9-80.1-21.4-103.8-25.5-127 .8 24.4.8 48.9.8 73.6v53.4h-22.9V2.8H619c13.9 87.7 16.9 108.4 20.2 129.8-.8-21.9-.8-43.6-.8-65V2.8h22.9v207.4h-26.2zM717 134.1h25v42.8c0 24.2-9.3 35.5-31.3 35.5-22.4 0-34.3-11.3-34.3-35V36.3c0-23.9 11.8-35.8 34.3-35.8C731.6.5 742 11.8 742 35.8v36.8h-25V35.8c0-5.3-2-7.8-6.3-7.8-4 0-6.3 2.5-6.3 7.8v141.4c0 5.3 2.3 7.8 6.3 7.8 4.3 0 6.3-2.5 6.3-7.8v-43.1zM756.3 210.2V2.8h57v27.5h-29.5v60.5h18.7v27.5h-18.7v64.5h30.7v27.5h-58.2z"/><path class="st1" d="M886.6 123.7c-3 2.5-7.6 6-15.9 6-16.6 0-23.7-9.1-23.7-32v-62C847 13.8 858.1.4 880.5.4s33.8 13.4 33.8 35V177c0 21.9-11.3 35.3-33.8 35.3-20.7 0-33.3-13.4-33.3-35.3v-35.8h27V177c0 5.3 2 7.8 6.3 7.8 4 0 6-2.5 6-7.8v-53.3zm0-87.9c0-5.3-2-7.8-6-7.8-4.3 0-6.3 2.5-6.3 7.8v58.5c0 5.3 2 8.1 6.3 8.1 3.8 0 5.5-2.5 6-4.8V35.8zM968.5 109.9c0-4-2.5-7.1-7.3-7.1-5.3 0-8.6 4-9.3 9.8l-23.4-1 2.8-108.9h62.5v27.5H956l-2 54.7c3.8-4 9.3-6.3 18.1-6.3 13.9 0 22.9 8.8 22.9 32v67c0 23.4-10.3 34.8-32.8 34.8s-33.5-11.3-33.5-34.8V134h27v43.1c0 5.3 2.3 7.8 6.3 7.8 4.3 0 6.6-2.5 6.6-7.8v-67.2zM1008.6 210.2v-31.5h25.5v31.5h-25.5zM1056.2 210.2V44.9h-11.6V18.1h5.3c6 0 9.1-3.3 9.1-10.3v-5h24.4v207.4h-27.2zM1135.3 210.2V2.8h58.2v27.5h-30.7v61.5h18.9v27.5h-18.9v91h-27.5zM1277.7 210.2v-58.5c0-24.2.5-48.6 1.5-72.8-2.3 23.9-5.3 48.4-14.9 131.3h-23.2l-14.4-131.3c1 24.2 1.5 48.9 1.5 73.1v58.2h-25V2.8h36.3c10.3 111.6 12.1 128.3 12.9 144.4 1.3-16.1 2.8-33.3 13.4-144.4h36.8v207.4h-24.9z"/></svg>