<svg xmlns="http://www.w3.org/2000/svg" width="17.8" height="273.5"><style>.st0{fill:#f25430}</style><path class="st0" d="M17.3 273.5H.4v-16.8h4.1v10.6h2v-8.6h4.2v8.6H13v-11.2h4.3v17.4zM17.3 254.8L.4 248v-7.8l16.9-6.4v6.6l-1.7.5v6.7l1.7.6v6.6zm-5.8-8.6v-3.9l-5.9 1.9 5.9 2zM.4 218.9c0-1.4.1-2.5.2-3.3.1-.8.4-1.5.7-1.9.4-.6.9-1 1.5-1.4.6-.3 1.4-.5 2.2-.5 1 0 1.9.2 2.6.7s1.3 1.1 1.6 1.9c.3-.7.7-1.2 1.2-1.5.5-.3 1.3-.4 2.4-.5h.5c2.2-.1 3.4-.4 3.7-.8h.3v6.8c-.4.2-1 .3-2.1.3-.6 0-1.1 0-1.4.1-.6.1-1 .3-1.3.6-.3.3-.4.9-.4 1.6v3.7h5.1v6.2H.4v-12zm7.3 5.8v-3.6c0-.9-.1-1.6-.4-2s-.6-.6-1.2-.6c-.5 0-.9.2-1.1.5s-.3 1.1-.3 2.2v3.4h3zM17.3 207.4H.4v-6.1h12.2v-9.7h4.6v15.8zM17.3 185.7h-4.8L.4 192.6v-7.2l6.9-2.8-6.9-3v-7.1l12.1 7.1h4.8v6.1zM15.8 141.1c.7.7 1.2 1.6 1.5 2.7.3 1.1.5 2.5.5 4.2 0 3.5-.7 6.2-2.2 8-1.5 1.8-3.7 2.7-6.6 2.7-2.9 0-5.2-.9-6.6-2.7-1.5-1.8-2.2-4.4-2.2-8 0-3 .5-5.3 1.6-7.1 1.1-1.8 2.6-2.8 4.5-3v6.7c-.7.3-1.2.8-1.5 1.3-.3.5-.5 1.2-.5 2 0 1.3.4 2.3 1.3 3.1.9.8 2 1.2 3.5 1.2s2.6-.4 3.5-1.1 1.2-1.8 1.2-3.2c0-1-.2-1.9-.6-2.5s-.9-1.1-1.6-1.2v2.5H7.7v-8.8h9.6v2.8l-1.5.4zM.4 120.9c0-1.4.1-2.5.2-3.3.1-.8.4-1.5.7-1.9.4-.6.9-1 1.5-1.4.6-.3 1.4-.5 2.2-.5 1 0 1.9.2 2.6.7s1.3 1.1 1.6 1.9c.3-.7.7-1.2 1.2-1.5.5-.3 1.3-.4 2.4-.5h.5c2.2-.1 3.4-.4 3.7-.8h.3v6.8c-.4.2-1 .3-2.1.3-.6 0-1.1 0-1.4.1-.6.1-1 .3-1.3.6-.3.3-.4.9-.4 1.6v3.7h5.1v6.2H.4v-12zm7.3 5.8v-3.6c0-.9-.1-1.6-.4-2s-.6-.6-1.2-.6c-.5 0-.9.2-1.1.5s-.3 1.1-.3 2.2v3.4h3zM8.9 110.4c-2.9 0-5.2-.9-6.6-2.7-1.5-1.8-2.2-4.4-2.2-8s.7-6.2 2.2-8S6 89 8.9 89c2.9 0 5.1.9 6.6 2.7s2.2 4.4 2.2 8-.7 6.2-2.2 8c-1.5 1.8-3.7 2.7-6.6 2.7zm0-6.6c1.5 0 2.6-.3 3.4-1 .8-.7 1.2-1.7 1.2-3s-.4-2.3-1.2-3c-.8-.7-1.9-1-3.4-1s-2.6.3-3.4 1c-.8.7-1.2 1.7-1.2 3s.4 2.3 1.2 3c.8.6 1.9 1 3.4 1zM8.9 85.7c-2.9 0-5.2-.9-6.6-2.7C.7 81.2 0 78.6 0 75s.7-6.2 2.2-8 3.7-2.7 6.6-2.7c2.9 0 5.1.9 6.6 2.7s2.2 4.4 2.2 8-.7 6.2-2.2 8c-1.4 1.8-3.6 2.7-6.5 2.7zm0-6.6c1.5 0 2.6-.3 3.4-1 .8-.7 1.2-1.7 1.2-3s-.4-2.3-1.2-3c-.8-.7-1.9-1-3.4-1s-2.6.3-3.4 1c-.8.7-1.2 1.7-1.2 3s.4 2.3 1.2 3c.8.7 1.9 1 3.4 1zM17.3 56.2l-16.9 7v-6.9L11.7 53 .4 49.4v-6.9l16.9 7.3v6.4zM17.3 40H.4V23.2h4.1v10.6h2v-8.6h4.2v8.6H13V22.7h4.3V40zM12.2 20v-7.4c.5-.1.8-.3 1.1-.8.2-.5.4-1.1.4-2 0-.8-.1-1.4-.3-1.9-.2-.4-.5-.6-.9-.6s-.6.2-.9.5c-.2.4-.4.9-.5 1.6l-.6 4.6c-.2 1.9-.8 3.3-1.6 4.3s-2 1.4-3.4 1.4c-1.9 0-3.3-.7-4.1-2.2-1-1.3-1.4-3.7-1.4-6.8C0 7.4.4 5 1.3 3.3 2.2 1.7 3.5.8 5.3.7v7.1c-.5.1-.9.4-1.2.9-.2.6-.4 1.3-.4 2.2 0 .7.1 1.2.3 1.6s.5.6.8.6c.3 0 .6-.2.7-.5.2-.3.3-.9.5-1.9l.8-5.6c.3-1.7.8-3.1 1.6-3.9.9-.8 2-1.2 3.4-1.2 2.1 0 3.6.9 4.6 2.6s1.4 4.4 1.4 8.2c0 3-.5 5.2-1.5 6.8-.9 1.5-2.3 2.3-4.1 2.4z"/></svg>