<svg xmlns="http://www.w3.org/2000/svg" width="751.8" height="286.2"><style>.st0{fill:#f25430}</style><path class="st0" d="M100.4 283.2v-79c0-32.7.7-65.7 2-98.4-3.1 32.3-7.1 65.3-20.1 177.3H51.1L31.7 105.8c1.4 32.7 2 66 2 98.7v78.6H0V3.1h49c14 150.8 16.3 173.2 17.4 195 1.7-21.8 3.7-44.9 18-195h49.7v280.1h-33.7zM209.7 3.1h36.8v235.5c0 32-15.3 47.6-45.3 47.6-30.3 0-45.6-15.7-45.6-47.6V3.1h37.1v235.5c0 7.1 3.1 10.6 8.5 10.6s8.5-3.4 8.5-10.6V3.1zM318.6 200.1c0-14.6-4.8-21.1-27.2-49.7-17.4-22.5-26.2-38.8-26.2-62.6V45.9c0-31 15-45.9 45.3-45.9 31.7 0 43.9 15 43.9 45.9v51.4h-34V45.9c0-6.1-2.7-8.8-8.8-8.8s-8.8 2.7-8.8 8.8v41.5c0 14.3 6.1 20.4 26.9 47.6 19.7 26.2 25.9 40.5 25.9 64.7v40.2c0 29.3-13.3 46.3-44.9 46.3-31.3 0-45.3-17-45.3-46.3v-59.6h35.4v59.6c0 6.1 3.1 9.2 8.8 9.2 6.1 0 9.2-3.1 9.2-9.2v-39.8zM375.7 283.2V3.1h37.1v280.1h-37.1zM489.4 180.4h33.7v57.9c0 32.7-12.6 48-42.2 48-30.3 0-46.3-15.3-46.3-47.3V48.3c0-32.3 16-48.3 46.3-48.3 28.2 0 42.2 15.3 42.2 47.6v49.7h-33.7V47.6c0-7.1-2.7-10.6-8.5-10.6-5.4 0-8.5 3.4-8.5 10.6v190.9c0 7.1 3.1 10.6 8.5 10.6 5.8 0 8.5-3.4 8.5-10.6v-58.1zM540.5 47.6c0-31 15-47.6 45.6-47.6s45.6 16.7 45.6 47.6v190.9c0 31-15 47.6-45.6 47.6s-45.6-16.7-45.6-47.6V47.6zm54.1 0c0-7.1-2.7-10.6-8.5-10.6-5.4 0-8.5 3.4-8.5 10.6v190.9c0 7.1 3.1 10.6 8.5 10.6 5.8 0 8.5-3.4 8.5-10.6V47.6zM716.4 283.2C693.6 175 687.5 143 682 111.7c1 33 1 66 1 99.4v72.2h-31V3.1h42.5c18.7 118.4 22.8 146.3 27.2 175.3-1-29.6-1-58.9-1-87.8V3.1h31v280.1h-35.3z"/></svg>