<svg xmlns="http://www.w3.org/2000/svg" width="852" height="274.6" viewBox="0 0 852 274.6">
  <style>
    .st0{fill:none;stroke:#3f8bbe;stroke-miterlimit:10}
  </style>
  <path class="st0" d="M62 271.2c-21.8-103.5-27.7-134.1-32.9-164 1 31.6 1 63.1 1 95v69H.5V3.4h40.7C59.1 116.7 63 143.3 67.2 171c-1-28.3-1-56.3-1-83.9V3.4h29.6v267.8H62z"/>
  <path class="st0" d="M117.3 271.2V3.4h73.5v35.5h-38.1V117h24.1v35.5h-24.1v83.3h39.7v35.5h-75.1z"/>
  <path class="st0" d="M298.9 271.2c-12.4-133.4-14-152.9-14.6-172.5-1 19.5-2.6 39-16.3 172.5h-41.3L200.9 3.4H238c9.8 140.6 11.4 163.7 12.7 186.8 1.6-23.1 3.9-46.2 18.9-186.8h31.6c12.7 140.6 14.6 163.7 16.3 186.8 1-23.1 2.9-46.2 15.3-186.8h37.1L340 271.2h-41.1z"/>
  <path class="st0" d="M453.1 271.2V157L418.9 3.4h37.4c11.1 66.1 14 83.6 16.3 101.5 2.6-17.9 5.5-35.8 17.2-101.5h34.5L488.9 157v114.2h-35.8z"/>
  <path class="st0" d="M532.1 46.1c0-29.6 14.3-45.6 43.6-45.6s43.6 15.9 43.6 45.6v182.5c0 29.6-14.3 45.6-43.6 45.6s-43.6-15.9-43.6-45.6V46.1zm51.8 0c0-6.8-2.6-10.1-8.1-10.1-5.2 0-8.1 3.3-8.1 10.1v182.5c0 6.8 2.9 10.1 8.1 10.1 5.5 0 8.1-3.3 8.1-10.1V46.1z"/>
  <path class="st0" d="M693.2 271.2c-3.6-39.7-7.2-79.7-12.4-119.4H675v119.4h-35.5V3.4h42.3c31.9 0 47.8 13 47.8 48.2v55.3c0 20.5-4.6 31.2-15.3 37.7 6.8 42.3 12.4 84.9 17.6 126.6h-38.7zm.7-219.6c0-8.5-3.9-12.7-12-12.7H675v80.7h7.2c7.8 0 11.7-4.2 11.7-12.4V51.6z"/>
  <path class="st0" d="M811 271.2c-20.8-86.9-24.7-108.7-28.6-127.5 1 18.9 1 40 1 69.6v57.9h-35.5V3.4h35.5v53.4c0 29.6 0 43.9-1 58.9 2.9-14.6 6.8-32.5 28-112.3h37.7l-35.5 119.4 38.7 148.4H811z"/>
</svg>