<svg xmlns="http://www.w3.org/2000/svg" width="1128.2" height="177.6"><style>.st0{fill:none;stroke:#f1ede4;stroke-miterlimit:10}</style><path class="st0" d="M.5 29.9C.5 10.8 9.7.5 28.6.5s28.1 10.3 28.1 29.4v117.8c0 19.1-9.2 29.4-28.1 29.4S.5 166.8.5 147.7V29.9zm33.4 0c0-4.4-1.7-6.5-5.2-6.5-3.4 0-5.2 2.1-5.2 6.5v117.8c0 4.4 1.9 6.5 5.2 6.5 3.6 0 5.2-2.1 5.2-6.5V29.9zM79.2 175.2V25.3H62.4V2.4h56.3v22.9h-16.6v149.9H79.2zM162.4 175.2c-2.3-25.6-4.6-51.4-8-77.1h-3.8v77.1h-22.9V2.4H155c20.6 0 30.9 8.4 30.9 31.1v35.7c0 13.2-2.9 20.2-9.9 24.4 4.4 27.3 8 54.8 11.3 81.7h-24.9zm.4-141.7c0-5.5-2.5-8.2-7.8-8.2h-4.4v52.1h4.6c5 0 7.6-2.7 7.6-8V33.5zM236.7 175.2l-2.5-24.6h-16.8l-2.9 24.6h-22l21-172.8H240l19.7 172.8h-23zm-5-45.4c-2.1-22.5-4.2-45.4-5.9-68.9-1.7 23.5-3.8 46.4-6.3 68.9h12.2zM297.6 124c0-9-2.9-13-16.8-30.7-10.7-13.9-16.2-23.9-16.2-38.6V28.8c0-19.1 9.2-28.3 27.9-28.3 19.5 0 27.1 9.2 27.1 28.3v31.7h-21V28.8c0-3.8-1.7-5.5-5.5-5.5s-5.5 1.7-5.5 5.5v25.6c0 8.8 3.8 12.6 16.6 29.4 12.2 16.2 16 25 16 39.9v24.8c0 18.1-8.2 28.6-27.7 28.6-19.3 0-27.9-10.5-27.9-28.6v-36.7h21.8v36.7c0 3.8 1.9 5.7 5.5 5.7 3.8 0 5.7-1.9 5.7-5.7V124zM361 175.2V2.4h28c20.8 0 30.4 9.9 30.4 31.3V62c0 21.6-9.7 31.1-30.2 31.1H384v82.1h-23zm35.9-141.7c0-5.5-2.5-8.2-8-8.2h-5v45.6h5.2c5.2 0 7.8-2.7 7.8-8V33.5zM463.9 175.2c-2.3-25.6-4.6-51.4-8-77.1h-3.8v77.1h-22.9V2.4h27.3c20.6 0 30.9 8.4 30.9 31.1v35.7c0 13.2-2.9 20.2-9.9 24.4 4.4 27.3 8 54.8 11.3 81.7h-24.9zm.4-141.7c0-5.5-2.5-8.2-7.8-8.2h-4.4v52.1h4.6c5 0 7.6-2.7 7.6-8V33.5zM495.8 29.9c0-19.1 9.2-29.4 28.1-29.4S552 10.8 552 29.9v117.8c0 19.1-9.2 29.4-28.1 29.4s-28.1-10.3-28.1-29.4V29.9zm33.4 0c0-4.4-1.7-6.5-5.2-6.5-3.4 0-5.2 2.1-5.2 6.5v117.8c0 4.4 1.9 6.5 5.2 6.5 3.6 0 5.2-2.1 5.2-6.5V29.9zM565.1 175.2V2.4H593c18.7 0 28.1 11.1 28.1 29.6v113.8c0 19.9-9.4 29.4-28.1 29.4h-27.9zm33.4-143.4c0-4.2-1.9-6.5-5.5-6.5h-5v127h5c3.6 0 5.5-2.3 5.5-6.5v-114zM667 2.4h22.7v145.3c0 19.7-9.4 29.4-27.9 29.4-18.7 0-28.1-9.7-28.1-29.4V2.4h22.9v145.3c0 4.4 1.9 6.5 5.2 6.5 3.4 0 5.2-2.1 5.2-6.5V2.4zM735.8 111.8h20.8v35.7c0 20.2-7.8 29.6-26 29.6-18.7 0-28.6-9.4-28.6-29.2V30.3C702 10.4 711.9.5 730.6.5c17.4 0 26 9.4 26 29.4v30.7h-20.8V29.9c0-4.4-1.7-6.5-5.3-6.5-3.4 0-5.2 2.1-5.2 6.5v117.8c0 4.4 1.9 6.5 5.2 6.5 3.6 0 5.3-2.1 5.3-6.5v-35.9zM801.1 111.8h20.8v35.7c0 20.2-7.8 29.6-26 29.6-18.7 0-28.6-9.4-28.6-29.2V30.3c0-19.9 9.9-29.8 28.6-29.8 17.4 0 26 9.4 26 29.4v30.7h-20.8V29.9c0-4.4-1.7-6.5-5.3-6.5-3.4 0-5.2 2.1-5.2 6.5v117.8c0 4.4 1.9 6.5 5.2 6.5 3.6 0 5.3-2.1 5.3-6.5v-35.9zM834.3 175.2V2.4h22.9v172.8h-22.9zM870.7 29.9c0-19.1 9.2-29.4 28.1-29.4 18.9 0 28.1 10.3 28.1 29.4v117.8c0 19.1-9.2 29.4-28.1 29.4-18.9 0-28.1-10.3-28.1-29.4V29.9zm33.3 0c0-4.4-1.7-6.5-5.2-6.5-3.4 0-5.3 2.1-5.3 6.5v117.8c0 4.4 1.9 6.5 5.3 6.5 3.6 0 5.2-2.1 5.2-6.5V29.9zM979.2 175.2c-14.1-66.8-17.8-86.5-21.2-105.8.6 20.4.6 40.7.6 61.3v44.5h-19.1V2.4h26.2c11.5 73.1 14.1 90.3 16.8 108.1-.6-18.3-.6-36.3-.6-54.2v-54h19.1v172.8h-21.8zM1014.9 175.2V2.4h47.5v22.9h-24.6v50.4h15.5v22.9h-15.5v53.8h25.6v22.9h-48.5zM1105 124c0-9-2.9-13-16.8-30.7-10.7-13.9-16.2-23.9-16.2-38.6V28.8c0-19.1 9.2-28.3 27.9-28.3 19.5 0 27.1 9.2 27.1 28.3v31.7h-21V28.8c0-3.8-1.7-5.5-5.5-5.5s-5.5 1.7-5.5 5.5v25.6c0 8.8 3.8 12.6 16.6 29.4 12.2 16.2 16 25 16 39.9v24.8c0 18.1-8.2 28.6-27.7 28.6-19.3 0-27.9-10.5-27.9-28.6v-36.7h21.8v36.7c0 3.8 1.9 5.7 5.5 5.7 3.8 0 5.7-1.9 5.7-5.7V124z"/></svg>