<svg xmlns="http://www.w3.org/2000/svg" width="535.3" height="17.4"><style>.st0{fill:#418bc4}</style><path class="st0" d="M0 .4h9.6c3.1 0 5.5.6 7.1 1.9 1.6 1.3 2.5 3.2 2.5 5.6 0 2.5-.8 4.3-2.4 5.6-1.6 1.3-4 1.9-7.1 1.9H0V.4zm5.8 3.7v7.3h2.9c1.5 0 2.6-.3 3.3-.9.7-.6 1-1.5 1-2.8 0-1.3-.3-2.2-1-2.8-.7-.6-1.7-.9-3.2-.9h-3zM23.4 15.4V.4h15.9v3.7H29.2v1.8h8.2v3.7h-8.2v2h10.6v3.9H23.4zM42.4 10.9h7.1c.1.4.3.7.8.9.5.2 1.1.3 1.9.3s1.4-.1 1.8-.3.6-.4.6-.8c0-.3-.2-.6-.5-.8-.3-.2-.9-.3-1.6-.4L48 9.3c-1.8-.2-3.2-.7-4.1-1.5s-1.4-1.8-1.4-3c0-1.7.7-2.9 2.1-3.7C46 .4 48.2 0 51.2 0c3.1 0 5.5.4 7 1.2 1.5.8 2.4 2 2.5 3.6h-6.8c-.1-.5-.4-.8-.9-1.1-.5-.2-1.2-.4-2.1-.4-.7 0-1.2.1-1.5.3s-.5.4-.5.7c0 .3.1.5.4.7.3.1.9.3 1.8.4l5.3.8c1.7.2 2.9.7 3.7 1.4.8.7 1.2 1.7 1.2 2.9 0 1.8-.8 3.2-2.5 4.1-1.6.9-4.2 1.3-7.8 1.3-2.8 0-5-.4-6.5-1.3s-2.1-2.1-2.1-3.7zM65.4 15.4V.4h15v3.7h-9.2v2h7.5v3.7h-7.5v5.6h-5.8zM83.9 15.4V.4h5.8v15h-5.8zM94.7 15.4V.4h5.8v10.9h9.2v4.1h-15zM113.2 15.4V.4h15.9v3.7H119v1.8h8.2v3.7H119v2h10.6v3.9h-16.4zM132.3 10.9h7.1c.1.4.3.7.8.9.5.2 1.1.3 1.9.3s1.4-.1 1.8-.3.6-.4.6-.8c0-.3-.2-.6-.5-.8-.3-.2-.9-.3-1.6-.4l-4.4-.5c-1.8-.2-3.2-.7-4.1-1.5s-1.4-1.8-1.4-3c0-1.7.7-2.9 2.1-3.7 1.4-.8 3.6-1.2 6.6-1.2 3.1 0 5.5.4 7 1.2 1.5.8 2.4 2 2.5 3.6h-6.8c-.1-.5-.4-.8-.9-1.1-.5-.2-1.2-.4-2.1-.4-.7 0-1.2.1-1.5.3s-.6.4-.6.7c0 .3.1.5.4.7.3.1.9.3 1.8.4l5.3.8c1.7.2 2.9.7 3.7 1.4.8.7 1.2 1.7 1.2 2.9 0 1.8-.8 3.2-2.5 4.1-1.6.9-4.2 1.3-7.8 1.3-2.8 0-5-.4-6.5-1.3s-2.1-2-2.1-3.6zM164.5 17.4L172.7 0h2.6l-8.1 17.4h-2.7zM190.1 15.4V.4H206v3.7h-10v1.8h8.2v3.7H196v2h10.6v3.9h-16.5zM214.2 15.4l-6.6-15h6.6l3.2 10.1L220.8.4h6.5l-6.9 15h-6.2zM229.6 15.4V.4h15.9v3.7h-10.1v1.8h8.2v3.7h-8.2v2H246v3.9h-16.4zM249.6 15.4V.4h6.9l5.8 8.7V.4h5.6v15h-6.5l-6.3-8.8v8.8h-5.5zM276.7 15.4V4.2h-5.4V.4H288v3.8h-5.5v11.2h-5.8zM290.5 7.9c0-2.6.9-4.6 2.6-5.9 1.7-1.3 4.2-2 7.6-2s5.9.7 7.6 2c1.7 1.3 2.6 3.3 2.6 5.9 0 2.6-.9 4.6-2.6 5.9-1.7 1.3-4.2 2-7.6 2s-5.9-.7-7.6-2c-1.8-1.3-2.6-3.3-2.6-5.9zm6.3 0c0 1.3.3 2.3 1 3 .7.7 1.6 1 2.9 1s2.2-.3 2.9-1c.7-.7 1-1.7 1-3s-.3-2.3-1-3c-.7-.7-1.6-1-2.9-1s-2.2.3-2.9 1c-.7.7-1 1.7-1 3zM313.9 10.9h7.1c.1.4.3.7.8.9.5.2 1.1.3 1.9.3s1.4-.1 1.8-.3.6-.4.6-.8c0-.3-.2-.6-.5-.8-.3-.2-.9-.3-1.6-.4l-4.4-.5c-1.8-.2-3.2-.7-4.1-1.5s-1.4-1.8-1.4-3c0-1.7.7-2.9 2.1-3.7 1.4-.8 3.6-1.2 6.6-1.2 3.1 0 5.5.4 7 1.2 1.5.8 2.4 2 2.5 3.6h-6.8c-.1-.5-.4-.8-.9-1.1-.5-.2-1.2-.4-2.1-.4-.7 0-1.2.1-1.5.3s-.6.4-.6.7c0 .3.1.5.4.7.3.1.9.3 1.8.4l5.3.8c1.7.2 2.9.7 3.7 1.4.8.7 1.2 1.7 1.2 2.9 0 1.8-.8 3.2-2.5 4.1-1.6.9-4.2 1.3-7.8 1.3-2.8 0-5-.4-6.5-1.3s-2.1-2-2.1-3.6zM348.5.4h9.6c3.1 0 5.5.6 7.1 1.9 1.6 1.3 2.5 3.2 2.5 5.6 0 2.5-.8 4.3-2.4 5.6-1.6 1.3-4 1.9-7.1 1.9h-9.6V.4zm5.8 3.7v7.3h2.9c1.5 0 2.6-.3 3.3-.9.7-.6 1-1.5 1-2.8 0-1.3-.3-2.2-1-2.8-.7-.6-1.7-.9-3.2-.9h-3zM371.9 15.4V.4h15.9v3.7h-10.1v1.8h8.2v3.7h-8.2v2h10.6v3.9h-16.4zM403.5 15.4V.4h8.6l2.5 9.2 2.7-9.2h8.5v15h-5.4V3.7L417 15.4h-4.5L409 3.6v11.8h-5.5zM428.6 15.4l6.5-15h7.4l6.1 15h-6.3l-.5-1.5h-6.4l-.5 1.5h-6.3zm8.2-5.1h3.7L438.7 5l-1.9 5.3zM462.8.4c1.3 0 2.4.1 3.1.2.8.1 1.4.3 1.8.6.6.3 1 .8 1.3 1.3.3.6.4 1.2.4 1.9 0 .9-.2 1.7-.7 2.3-.4.7-1 1.2-1.8 1.5.7.3 1.1.6 1.4 1 .3.4.4 1.1.5 2.2v.5c.1 2 .4 3.1.8 3.3v.2h-6.5c-.2-.3-.3-.9-.3-1.9 0-.5 0-.9-.1-1.2-.1-.5-.2-.9-.6-1.2-.3-.2-.8-.3-1.6-.3H457v4.6h-5.9V.4h11.7zm-5.5 6.5h3.4c.9 0 1.5-.1 1.9-.3s.5-.6.5-1.1c0-.5-.2-.8-.5-1-.3-.2-1-.3-2.1-.3h-3.3v2.7zM486.2 6.7c-.1-.9-.4-1.6-1-2.1s-1.3-.7-2.3-.7c-1.2 0-2.2.3-2.9 1-.7.7-1 1.7-1 3s.3 2.3 1 3c.7.7 1.6 1 2.9 1 .9 0 1.6-.2 2.2-.6s.9-1 1.1-1.8h6.7c-.3 2.1-1.3 3.7-3 4.7-1.7 1.1-4 1.6-7 1.6-3.3 0-5.9-.7-7.6-2-1.7-1.3-2.6-3.3-2.6-5.9 0-2.6.9-4.6 2.6-5.9 1.7-1.3 4.2-2 7.6-2 3.1 0 5.5.6 7.2 1.7s2.6 2.8 2.7 5h-6.6zM494.5 15.4l6.5-15h7.4l6.1 15h-6.3l-.5-1.5h-6.4l-.5 1.5h-6.3zm8.2-5.1h3.7L504.6 5l-1.9 5.3zM516.3 10.9h7.1c.1.4.3.7.8.9.5.2 1.1.3 1.9.3s1.4-.1 1.8-.3.6-.4.6-.8c0-.3-.2-.6-.5-.8-.3-.2-.9-.3-1.6-.4l-4.4-.5c-1.8-.2-3.2-.7-4.1-1.5s-1.4-1.8-1.4-3c0-1.7.7-2.9 2.1-3.7 1.4-.8 3.6-1.2 6.6-1.2 3.1 0 5.5.4 7 1.2 1.5.8 2.4 2 2.5 3.6h-6.8c-.1-.5-.4-.8-.9-1.1-.5-.2-1.2-.4-2.1-.4-.7 0-1.2.1-1.5.3s-.6.4-.6.7c0 .3.1.5.4.7.3.1.9.3 1.8.4l5.3.8c1.7.2 2.9.7 3.7 1.4.8.7 1.2 1.7 1.2 2.9 0 1.8-.8 3.2-2.5 4.1-1.6.9-4.2 1.3-7.8 1.3-2.8 0-5-.4-6.5-1.3s-2.1-2-2.1-3.6z"/></svg>