<svg xmlns="http://www.w3.org/2000/svg" width="536.1" height="97.7"><style>.st0{fill:#f1ede4}</style><path class="st0" d="M1.8 37L2 .2h4.9l-.2 32h5.5v4.9L1.8 37zM23.7 37.2l-.5-5.2h-3.6l-.6 5.1h-4.7L19 .3h5.6l4 36.9h-4.9zm-1-9.7c-.4-4.8-.8-9.7-1.2-14.7-.4 5-.9 9.9-1.4 14.7h2.6zM38.5 23.8h4.4l-.1 7.6c0 4.3-1.7 6.3-5.6 6.3-4 0-6.1-2.1-6-6.3l.2-25.1C31.4 2 33.5 0 37.5 0 41.2 0 43 2.1 43 6.3v6.5h-4.4V6.3c0-.9-.3-1.4-1.1-1.4-.7 0-1.1.4-1.1 1.4l-.2 25.1c0 .9.4 1.4 1.1 1.4.8 0 1.1-.4 1.1-1.4l.1-7.6zM46.7 6.3c0-4.1 2-6.3 6-6.2 4 0 6 2.2 6 6.3l-.2 25.1c0 4.1-2 6.3-6 6.2-4 0-6-2.2-6-6.3l.2-25.1zm7.1.1c0-.9-.3-1.4-1.1-1.4-.7 0-1.1.4-1.1 1.4l-.2 25.1c0 .9.4 1.4 1.1 1.4.8 0 1.1-.4 1.1-1.4l.2-25.1zM69.3 26.6c0-1.9-.6-2.8-3.5-6.6-2.3-3-3.4-5.1-3.4-8.3V6.2c0-4.1 2-6 6-6 4.2 0 5.8 2 5.7 6.1v6.8h-4.5V6.3c0-.8-.4-1.2-1.2-1.2-.8 0-1.2.4-1.2 1.2v5.5c0 1.9.8 2.7 3.5 6.3 2.6 3.5 3.4 5.4 3.3 8.5v5.3c0 3.9-1.8 6.1-6 6.1-4.1 0-5.9-2.3-5.9-6.1l.1-7.8h4.7l-.1 7.8c0 .8.4 1.2 1.2 1.2.8 0 1.2-.4 1.2-1.2l.1-5.3zM80 37.6l.2-32h-3.6V.7l12 .1v4.9h-3.5l-.2 32-4.9-.1zM91.7 37.6L92 .7l10.1.1v4.9h-5.2l-.1 10.8h3.3v4.9h-3.3l-.1 11.5h5.5v4.9l-10.5-.2zM111.7 37.8L119 1h3.5l-7.3 36.8h-3.5zM139.8 24.4h4.4l-.1 7.6c0 4.3-1.7 6.3-5.6 6.3-4 0-6.1-2.1-6.1-6.3l.3-25c0-4.3 2.1-6.3 6.1-6.3 3.7 0 5.5 2.1 5.5 6.3v6.5h-4.4V7c0-.9-.3-1.4-1.1-1.4-.7 0-1.1.4-1.1 1.4l-.2 25.1c0 .9.4 1.4 1.1 1.4.8 0 1.1-.4 1.1-1.4l.1-7.7zM155.2 38.1l.1-16.4h-2.2l-.1 16.4h-4.9l.3-36.9h4.9l-.1 15.6h2.2l.1-15.6h4.8l-.3 36.9h-4.8zM172.7 38.2l-.5-5.2h-3.6l-.7 5.2h-4.7L168 1.3h5.6l4 36.9h-4.9zm-1-9.7c-.4-4.8-.8-9.7-1.2-14.7-.4 5-.9 9.9-1.4 14.7h2.6zM189.3 38.3c-2.9-14.3-3.7-18.5-4.4-22.6.1 4.3.1 8.7 0 13.1l-.1 9.5h-4.1l.3-36.9h5.6c2.4 15.6 2.9 19.3 3.4 23.1-.1-3.9-.1-7.8-.1-11.6l.1-11.5h4.1l-.1 36.9h-4.7zM198.3 38.4l.3-36.9 10.1.1v4.9h-5.2l-.1 10.8h3.3v4.9h-3.3l-.1 11.5h5.5v4.9l-10.5-.2zM212.3 38.5l.3-36.9h4.9l-.2 32h5.5v4.9h-10.5zM231.9 38.6l7.3-36.8h3.5l-7.3 36.8h-3.5zM260.1 38.8l.1-16.4H258l-.1 16.4H253l.3-36.9h4.9l-.2 15.6h2.2l.1-15.6h4.8l-.3 36.9h-4.7zM276 28c0-1.9-.6-2.8-3.5-6.6-2.3-3-3.4-5.1-3.4-8.3V7.6c0-4.1 2-6 6-6 4.2 0 5.8 2 5.7 6.1v6.8h-4.5V7.7c0-.8-.4-1.2-1.2-1.2-.8 0-1.2.4-1.2 1.2v5.5c0 1.9.8 2.7 3.5 6.3 2.6 3.5 3.4 5.4 3.3 8.5v5.3c0 3.9-1.8 6.1-6 6.1-4.1 0-5.9-2.3-5.9-6.1l.1-7.8h4.7l-.1 7.8c0 .8.4 1.2 1.2 1.2.8 0 1.2-.4 1.2-1.2l.1-5.3zM284.7 39l.3-36.9h6.1c4 0 5.6 2.1 5.6 6.5l-.1 7.6c0 1.7-.6 3.2-1.7 3.7 1.1.4 2.1 1.6 2.1 3.7l-.1 9.2c0 4.3-2.1 6.2-6.1 6.2h-6.1zm7.3-15.3c0-.9-.3-1.4-1.1-1.4h-1.3l-.1 11.8h1.2c.8 0 1.1-.5 1.1-1.4l.2-9zm.1-15.3c0-.9-.3-1.4-1.1-1.4h-1.2l-.1 11.1h1.3c.7 0 1.1-.4 1.1-1.4V8.4zM307.8 25.6h4.4l-.1 7.6c0 4.3-1.7 6.3-5.6 6.3-4 0-6.1-2.1-6.1-6.3l.2-25.1c0-4.3 2.1-6.3 6.1-6.3 3.7 0 5.5 2.1 5.5 6.3v6.5h-4.4V8.1c0-.9-.3-1.4-1.1-1.4-.7 0-1.1.4-1.1 1.4l-.2 25.1c0 .9.4 1.4 1.1 1.4.8 0 1.1-.4 1.1-1.4l.2-7.6zM322.1 39.2l7.3-36.8h3.5l-7.3 36.8h-3.5zM345.9 39.4l-3.6-36.9h5.1c1.5 18.2 1.8 23.4 2 28.5.3-5.1.7-10.1 2.6-28.4h4.8l-4.4 36.8h-6.5zM359.9 39.5l.3-36.9h4.9l-.3 36.9h-4.9zM371.7 39.6l.2-32h-3.6V2.7l12 .1v4.9h-3.5l-.2 32-4.9-.1zM390.4 39.7l-.5-5.2h-3.6l-.7 5.2h-4.7l4.7-36.8h5.6l4 36.9-4.8-.1zm-1-9.7c-.4-4.8-.8-9.7-1.2-14.7-.4 5-.9 9.9-1.4 14.7h2.6zM411.7 39.8l.1-10.4c0-4.3.1-8.6.4-12.9-.4 4.3-1 8.6-2.8 23.3h-4.1l-2.4-23.4c.1 4.3.2 8.7.2 13l-.1 10.3h-4.4l.3-36.9h6.5c1.7 19.9 2 22.8 2.1 25.7.2-2.9.5-5.9 2.5-25.7h6.5l-.3 36.9-4.5.1zM420.5 39.9l.3-36.9h4.9l-.3 36.9h-4.9zM438.3 40c-2.9-14.3-3.7-18.5-4.4-22.6.1 4.3.1 8.7 0 13.1l-.1 9.5h-4.1l.3-36.9h5.6c2.4 15.6 2.9 19.3 3.4 23.1-.1-3.9-.1-7.8-.1-11.6l.1-11.5h4.1l-.2 36.9h-4.6zM467 40.2c-1.6-18.4-1.8-21.1-1.9-23.8-.2 2.7-.4 5.4-2.4 23.7H457l-3.3-36.9h5.1c1.2 19.4 1.4 22.5 1.6 25.7.2-3.2.6-6.4 2.8-25.7h4.3c1.6 19.4 1.9 22.5 2.1 25.7.2-3.2.4-6.4 2.3-25.7h5.1L472.6 40l-5.6.2zM487.2 40.3l-.5-5.2h-3.6l-.7 5.2h-4.7l4.7-36.8h5.6l4 36.9-4.8-.1zm-1-9.6c-.4-4.8-.8-9.7-1.2-14.7-.4 5-.9 9.9-1.4 14.7h2.6zM496.4 40.4l.2-32H493V3.5l12 .1v4.9h-3.5l-.2 32-4.9-.1zM508.1 40.5l.3-36.9 10.1.1v4.9h-5.2l-.1 10.8h3.3v4.9h-3.3l-.2 11.3h5.5v4.9h-10.4zM529.5 40.6c-.5-5.5-.9-11-1.6-16.5h-.8l-.1 16.5h-4.9l.3-36.9h5.8c4.4 0 6.6 1.8 6.5 6.7l-.1 7.6c0 2.8-.7 4.3-2.1 5.2.9 5.8 1.6 11.7 2.3 17.4h-5.3zm.3-30.2c0-1.2-.5-1.8-1.6-1.8h-.9l-.1 11.1h1c1.1 0 1.6-.6 1.6-1.7v-7.6zM0 94l7.3-36.8h3.5L3.5 94H0zM21.1 94.2l.3-36.9 10.3.1v4.9h-5.5l-.1 10.9h3.4v4.9h-3.4L26 94.3l-4.9-.1zM41.6 94.3l-.5-5.2h-3.6l-.7 5.2h-4.7l4.7-36.8h5.6l4 36.9-4.8-.1zm-1-9.7c-.4-4.8-.8-9.7-1.2-14.7-.4 5-.9 9.9-1.4 14.7h2.6zM56 83.5c0-1.9-.6-2.8-3.5-6.6-2.3-3-3.4-5.1-3.4-8.3v-5.5c0-4.1 2-6 6-6 4.2 0 5.8 2 5.7 6.1V70h-4.5v-6.8c0-.8-.4-1.2-1.2-1.2-.8 0-1.2.4-1.2 1.2v5.5c0 1.9.8 2.7 3.5 6.3 2.6 3.5 3.4 5.4 3.3 8.5v5.3c0 3.9-1.8 6.1-6 6.1-4.1 0-5.9-2.3-5.9-6.1l.1-7.8h4.7l-.1 7.8c0 .8.4 1.2 1.2 1.2.8 0 1.2-.4 1.2-1.2l.1-5.3zM71.8 94.5l.1-16.4h-2.2l-.1 16.4h-4.9l.3-36.9h4.9l-.1 15.6H72l.1-15.6h4.8l-.3 36.9h-4.8zM81 63.6c0-4.1 2-6.3 6-6.2 4 0 6 2.2 6 6.3l-.2 25.1c0 4.1-2 6.3-6 6.2-4 0-6-2.2-6-6.3l.2-25.1zm7.1 0c0-.9-.3-1.4-1.1-1.4-.7 0-1.1.4-1.1 1.4l-.2 25.1c0 .9.4 1.4 1.1 1.4.8 0 1.1-.4 1.1-1.4l.2-25.1zM105.3 94.7c-2.9-14.3-3.7-18.5-4.4-22.6.1 4.3.1 8.7 0 13.1l-.1 9.5h-4.1l.3-36.9h5.6c2.4 15.6 2.9 19.3 3.4 23.1V69.4l.1-11.5h4.1l-.3 36.9-4.6-.1zM124.1 94.9l.2-32h-3.6V58l12 .1V63h-3.5l-.2 32-4.9-.1zM138.6 95L135 58.1h5.1c1.5 18.2 1.8 23.4 2 28.5.3-5.1.7-10.1 2.6-28.4h4.8L145.1 95h-6.5zM158.6 95.1l7.3-36.8h3.5l-7.3 36.8h-3.5zM179.6 95.2l.3-36.9h4.9l-.2 32h5.5v4.9h-10.5zM201.6 95.4l-.5-5.2h-3.6l-.7 5.2h-4.7l4.7-36.8h5.6l4 36.9-4.8-.1zm-1-9.7c-.4-4.8-.8-9.7-1.2-14.7-.4 5-.9 9.9-1.4 14.7h2.6zM218.1 95.5c-2.9-14.3-3.7-18.5-4.4-22.6.1 4.3.1 8.7 0 13.1l-.1 9.5h-4.1l.3-36.9h5.6c2.4 15.6 2.9 19.3 3.4 23.1-.1-3.9-.1-7.8-.1-11.6l.1-11.5h4.1l-.3 36.9h-4.5zM233.1 95.6l7.3-36.8h3.5l-7.3 36.8h-3.5zM261.3 95.8l.1-16.4h-2.2l-.1 16.4h-4.9l.3-36.9h4.9l-.1 15.6h2.2l.1-15.6h4.8l-.3 36.9h-4.8zM277.2 85c0-1.9-.6-2.8-3.5-6.6-2.3-3-3.4-5.1-3.4-8.3v-5.5c0-4.1 2-6 6-6 4.2 0 5.8 2 5.7 6.1v6.8h-4.5v-6.8c0-.8-.4-1.2-1.2-1.2-.8 0-1.2.4-1.2 1.2v5.5c0 1.9.8 2.7 3.5 6.3 2.6 3.5 3.4 5.4 3.3 8.5v5.3c0 3.9-1.8 6.1-6 6.1-4.1 0-5.9-2.3-5.9-6.1l.1-7.8h4.7l-.1 7.8c0 .8.4 1.2 1.2 1.2.8 0 1.2-.4 1.2-1.2l.1-5.3zM285.9 96l.3-36.9h6.1c4 0 5.6 2.1 5.6 6.5l-.1 7.6c0 1.7-.6 3.2-1.7 3.7 1.1.4 2.1 1.6 2.1 3.7l-.1 9.2c0 4.3-2.1 6.2-6.1 6.2h-6.1zm7.3-15.3c0-.9-.3-1.4-1.1-1.4h-1.3l-.1 11.8h1.2c.8 0 1.1-.5 1.1-1.4l.2-9zm.1-15.3c0-.9-.3-1.4-1.1-1.4H291l-.1 11.1h1.3c.7 0 1.1-.4 1.1-1.4v-8.3zM309 82.6h4.4l-.1 7.6c0 4.3-1.7 6.3-5.6 6.3-4 0-6.1-2.1-6.1-6.3l.2-25.1c0-4.3 2.1-6.3 6.1-6.3 3.7 0 5.5 2.1 5.5 6.3v6.5H309v-6.5c0-.9-.3-1.4-1.1-1.4-.7 0-1.1.4-1.1 1.4l-.2 25.1c0 .9.4 1.4 1.1 1.4.8 0 1.1-.4 1.1-1.4l.2-7.6zM323.3 96.2l7.3-36.8h3.5l-7.3 36.8h-3.5zM347.1 96.4l-3.6-36.9h5.1c1.5 18.2 1.8 23.4 2 28.5.3-5.1.7-10.1 2.6-28.4h4.8l-4.4 36.8h-6.5zM361.1 96.5l.3-36.9h4.9l-.3 36.9h-4.9zM372.9 96.6l.2-32h-3.6v-4.9l12 .1v4.9H378l-.2 32-4.9-.1zM391.6 96.7l-.5-5.2h-3.6l-.7 5.2h-4.7l4.7-36.8h5.6l4 36.9-4.8-.1zm-1-9.7c-.4-4.8-.8-9.7-1.2-14.7-.4 5-.9 9.9-1.4 14.7h2.6zM412.9 96.8l.1-10.4c0-4.3.1-8.6.4-12.9-.4 4.3-1 8.6-2.8 23.3h-4.1L404 73.4c.1 4.3.2 8.7.2 13l-.1 10.3h-4.4l.3-36.9h6.5c1.7 19.9 2 22.8 2.1 25.7.2-2.9.5-5.9 2.5-25.7h6.5l-.3 36.9-4.4.1zM421.8 96.9L422 60h4.9l-.3 36.9h-4.8zM439.5 97c-2.9-14.3-3.7-18.5-4.4-22.6.1 4.3.1 8.7 0 13.1L435 97h-4.1l.3-36.9h5.6c2.4 15.6 2.9 19.3 3.4 23.1-.1-3.9-.1-7.8-.1-11.6l.1-11.5h4.1l-.1 36.9h-4.7zM468.3 97.2c-1.6-18.4-1.8-21.1-1.9-23.8-.2 2.7-.4 5.4-2.4 23.7h-5.7L455 60.3h5.1c1.2 19.4 1.4 22.5 1.6 25.7.2-3.2.6-6.4 2.8-25.7h4.3c1.6 19.4 1.9 22.5 2.1 25.7.2-3.2.4-6.4 2.3-25.7h5.1l-4.4 36.8-5.6.1zM488.4 97.4l-.5-5.2h-3.6l-.7 5.2h-4.7l4.7-36.8h5.6l4 36.9-4.8-.1zm-1-9.7c-.4-4.8-.8-9.7-1.2-14.7-.4 5-.9 9.9-1.4 14.7h2.6zM497.7 97.4l.2-32h-3.6v-4.9l12 .1v4.9h-3.5l-.2 32-4.9-.1zM509.4 97.5l.3-36.9 10.1.1v4.9h-5.2l-.1 10.8h3.3v4.9h-3.3l-.1 11.5h5.5v4.9l-10.5-.2zM530.7 97.6c-.5-5.5-.9-11-1.6-16.5h-.8l-.1 16.4h-4.9l.3-36.9h5.8c4.4 0 6.6 1.8 6.5 6.7l-.1 7.6c0 2.8-.7 4.3-2.1 5.2.9 5.8 1.6 11.7 2.3 17.4l-5.3.1zm.3-30.2c0-1.2-.5-1.7-1.6-1.8h-.9l-.1 11.1h1c1.1 0 1.6-.6 1.6-1.7v-7.6z"/></svg>