<svg xmlns="http://www.w3.org/2000/svg" width="898.7" height="125.4"><style>.st0{fill:#f1ede4}.st1{fill:none;stroke:#f25430;stroke-width:5;stroke-miterlimit:10}</style><path class="st0" d="M4.5 55.2V24.8h8.4v4H8.6v8.9h2.7v4H8.6v9.5h4.5v4H4.5zM21.3 55.2c-.4-4.5-.8-9.1-1.4-13.6h-.7v13.6h-4V24.8H20c3.6 0 5.4 1.5 5.4 5.5v6.3c0 2.3-.5 3.6-1.7 4.3.8 4.8 1.4 9.7 2 14.4h-4.4zm.1-25c0-1-.4-1.4-1.4-1.4h-.8V38h.8c.9 0 1.3-.5 1.3-1.4v-6.4zM27.8 55.2V24.8h4v30.5h-4zM40.3 44H44v6.3c0 3.6-1.4 5.2-4.6 5.2-3.3 0-5-1.7-5-5.1V29.7c0-3.5 1.7-5.3 5-5.3 3.1 0 4.6 1.7 4.6 5.2V35h-3.7v-5.4c0-.8-.3-1.1-.9-1.1-.6 0-.9.4-.9 1.1v20.8c0 .8.3 1.1.9 1.1.6 0 .9-.4.9-1.1V44zM62.4 55.2v-8.6c0-3.6.1-7.1.2-10.7-.3 3.5-.8 7.1-2.2 19.3H57l-2.1-19.3c.1 3.6.2 7.2.2 10.7v8.6h-3.7V24.8h5.3c1.5 16.4 1.8 18.8 1.9 21.2.2-2.4.4-4.9 2-21.2H66v30.5h-3.6zM68.4 29.6c0-3.4 1.6-5.2 5-5.2s5 1.8 5 5.2v20.8c0 3.4-1.6 5.2-5 5.2s-5-1.8-5-5.2V29.6zm5.9 0c0-.8-.3-1.1-.9-1.1-.6 0-.9.4-.9 1.1v20.8c0 .8.3 1.1.9 1.1.6 0 .9-.4.9-1.1V29.6zM86.9 55.2c-.4-4.5-.8-9.1-1.4-13.6h-.7v13.6h-4V24.8h4.8c3.6 0 5.4 1.5 5.4 5.5v6.3c0 2.3-.5 3.6-1.7 4.3.8 4.8 1.4 9.7 2 14.4h-4.4zm.1-25c0-1-.4-1.4-1.4-1.4h-.8V38h.8c.9 0 1.3-.5 1.3-1.4v-6.4zM93.4 55.2V24.8h4v30.5h-4zM100.2 55.2V24.8h4v26.4h4.5v4h-8.5zM110.6 55.2V24.8h4v26.4h4.5v4h-8.5zM120.7 29.6c0-3.4 1.6-5.2 5-5.2s5 1.8 5 5.2v20.8c0 3.4-1.6 5.2-5 5.2s-5-1.8-5-5.2V29.6zm5.9 0c0-.8-.3-1.1-.9-1.1-.6 0-.9.4-.9 1.1v20.8c0 .8.3 1.1.9 1.1.6 0 .9-.4.9-1.1V29.6zM137.2 55.2l5.8-30.5h2.9l-5.8 30.5h-2.9zM158.2 46.2c0-1.6-.5-2.3-3-5.4-1.9-2.4-2.9-4.2-2.9-6.8v-4.6c0-3.4 1.6-5 4.9-5 3.4 0 4.8 1.6 4.8 5V35h-3.7v-5.6c0-.7-.3-1-1-1s-1 .3-1 1v4.5c0 1.6.7 2.2 2.9 5.2 2.1 2.9 2.8 4.4 2.8 7v4.4c0 3.2-1.4 5-4.9 5-3.4 0-4.9-1.9-4.9-5V44h3.9v6.5c0 .7.3 1 1 1s1-.3 1-1v-4.3zM166.2 55.2V28.8h-3v-4h9.9v4h-2.9v26.4h-4zM174.9 55.2V24.8h8.4v4H179v8.9h2.7v4H179v9.5h4.5v4h-8.6zM185.5 55.2V24.8h4.9c3.7 0 5.4 1.7 5.4 5.5v5c0 3.8-1.7 5.5-5.3 5.5h-.9v14.5h-4.1zm6.4-25c0-1-.4-1.4-1.4-1.4h-.9v8h.9c.9 0 1.4-.5 1.4-1.4v-5.2zM203.6 55.2V41.7h-1.9v13.5h-4V24.8h4v12.9h1.9V24.8h4v30.5h-4zM217.2 55.2l-.4-4.3h-3l-.5 4.3h-3.9l3.7-30.5h4.7l3.5 30.5h-4.1zm-.8-8c-.4-4-.7-8-1-12.1-.3 4.1-.7 8.2-1.1 12.1h2.1zM230 55.2c-2.5-11.8-3.1-15.3-3.7-18.7.1 3.6.1 7.2.1 10.8v7.9H223V24.8h4.6c2 12.9 2.5 15.9 3 19.1-.1-3.2-.1-6.4-.1-9.6v-9.5h3.4v30.5H230zM236.5 55.2V24.8h8.4v4h-4.3v8.9h2.7v4h-2.7v9.5h4.5v4h-8.6zM252.4 55.2V24.8h4.9c3.7 0 5.4 1.7 5.4 5.5v5c0 3.8-1.7 5.5-5.3 5.5h-.9v14.5h-4.1zm6.3-25c0-1-.4-1.4-1.4-1.4h-.9v8h.9c.9 0 1.4-.5 1.4-1.4v-5.2zM264.4 29.6c0-3.4 1.6-5.2 5-5.2s5 1.8 5 5.2v20.8c0 3.4-1.6 5.2-5 5.2s-5-1.8-5-5.2V29.6zm5.8 0c0-.8-.3-1.1-.9-1.1-.6 0-.9.4-.9 1.1v20.8c0 .8.3 1.1.9 1.1.6 0 .9-.4.9-1.1V29.6zM287.6 55.2v-8.6c0-3.6.1-7.1.2-10.7-.3 3.5-.8 7.1-2.2 19.3h-3.4l-2.1-19.3c.1 3.6.2 7.2.2 10.7v8.6h-3.7V24.8h5.3c1.5 16.4 1.8 18.8 1.9 21.2.2-2.4.4-4.9 2-21.2h5.4v30.5h-3.6zM293.9 55.2V24.8h4.9c3.7 0 5.4 1.7 5.4 5.5v5c0 3.8-1.7 5.5-5.3 5.5h-.9v14.5h-4.1zm6.3-25c0-1-.4-1.4-1.4-1.4h-.9v8h.9c.9 0 1.4-.5 1.4-1.4v-5.2zM305.9 29.6c0-3.4 1.6-5.2 5-5.2s5 1.8 5 5.2v20.8c0 3.4-1.6 5.2-5 5.2s-5-1.8-5-5.2V29.6zm5.9 0c0-.8-.3-1.1-.9-1.1-.6 0-.9.4-.9 1.1v20.8c0 .8.3 1.1.9 1.1.6 0 .9-.4.9-1.1V29.6zM324.1 24.8h4v25.6c0 3.5-1.7 5.2-4.9 5.2-3.3 0-5-1.7-5-5.2V24.8h4v25.6c0 .8.3 1.1.9 1.1.6 0 .9-.4.9-1.1V24.8zM340.1 55.4l-1.3-1.2c-.8 1-2.2 1.4-3.6 1.4-2.7 0-4.7-1.3-4.7-5.2V29.6c0-3.3 1.7-5.2 5-5.2s4.8 1.9 4.8 5.2V35h-3.6v-5.4c0-.8-.4-1.1-1.1-1.1-.6 0-1 .4-1 1.1v20.8c0 .8.3 1.1.9 1.1.7 0 1.1-.4 1.1-1.1v-6h-1.3v-3.9h5.2v14.9h-.4zM349.8 55.2c-2.5-11.8-3.1-15.3-3.7-18.7.1 3.6.1 7.2.1 10.8v7.9h-3.4V24.8h4.6c2 12.9 2.5 15.9 3 19.1-.1-3.2-.1-6.4-.1-9.6v-9.5h3.4v30.5h-3.9zM363.2 55.2l-.4-4.3h-3l-.5 4.3h-3.9l3.7-30.5h4.7l3.5 30.5h-4.1zm-.9-8c-.4-4-.7-8-1-12.1-.3 4.1-.7 8.2-1.1 12.1h2.1zM374.4 44h3.7v6.3c0 3.6-1.4 5.2-4.6 5.2-3.3 0-5-1.7-5-5.1V29.7c0-3.5 1.7-5.3 5-5.3 3.1 0 4.6 1.7 4.6 5.2V35h-3.7v-5.4c0-.8-.3-1.1-.9-1.1-.6 0-.9.4-.9 1.1v20.8c0 .8.3 1.1.9 1.1.6 0 .9-.4.9-1.1V44zM392.8 58.2c-3.9 0-5.8-1.9-5.8-6.4V28.2c0-4.5 1.9-6.4 5.8-6.4h.3v2.9h-.3c-2 0-2.9 1.1-2.9 3.5v23.6c0 2.4.9 3.5 2.9 3.5h.3v2.9h-.3zM401 44h3.7v6.3c0 3.6-1.4 5.2-4.6 5.2-3.3 0-5-1.7-5-5.1V29.7c0-3.5 1.7-5.3 5-5.3 3.1 0 4.6 1.7 4.6 5.2V35H401v-5.4c0-.8-.3-1.1-.9-1.1-.6 0-.9.4-.9 1.1v20.8c0 .8.3 1.1.9 1.1.6 0 .9-.4.9-1.1V44zM413.5 55.2l-.4-4.3h-3l-.5 4.3h-3.9l3.7-30.5h4.7l3.5 30.5h-4.1zm-.9-8c-.4-4-.7-8-1-12.1-.3 4.1-.7 8.2-1.1 12.1h2.1zM419.4 55.2V24.8h8.6v4h-4.5v9h2.8v4h-2.8v13.4h-4.1zM429.6 55.2V24.8h8.4v4h-4.3v8.9h2.7v4h-2.7v9.5h4.5v4h-8.6zm1.5-31.8l4-6h4.6l-5.2 6h-3.4zM445.5 55.2V24.8h4.9c3.3 0 5 2 5 5.2v20c0 3.5-1.7 5.2-5 5.2h-4.9zm5.9-25.3c0-.7-.3-1.1-1-1.1h-.9v22.4h.9c.6 0 1-.4 1-1.1V29.9zM457.8 55.2V24.8h8.4v4h-4.3v8.9h2.7v4h-2.7v9.5h4.5v4h-8.6zM468.5 55.2V24.8h4v26.4h4.5v4h-8.5zM494.9 55.2v-8.6c0-3.6.1-7.1.2-10.7-.3 3.5-.8 7.1-2.2 19.3h-3.4l-2.1-19.3c.1 3.6.2 7.2.2 10.7v8.6h-3.7V24.8h5.3c1.5 16.4 1.8 18.8 1.9 21.2.2-2.4.4-4.9 2-21.2h5.4v30.5h-3.6zM508.1 55.2l-.4-4.3h-3l-.5 4.3h-3.9l3.7-30.5h4.7l3.5 30.5h-4.1zm-.9-8c-.4-4-.7-8-1-12.1-.3 4.1-.7 8.2-1.1 12.1h2.1zM520 55.2c-.4-4.5-.8-9.1-1.4-13.6h-.7v13.6h-4V24.8h4.8c3.6 0 5.4 1.5 5.4 5.5v6.3c0 2.3-.5 3.6-1.7 4.3.8 4.8 1.4 9.7 2 14.4H520zm.1-25c0-1-.4-1.4-1.4-1.4h-.8V38h.8c.9 0 1.3-.5 1.3-1.4v-6.4zM527.8 58.2v-2.9h.3c2 0 2.9-1.1 2.9-3.5V28.2c0-2.4-.9-3.5-2.9-3.5h-.3v-2.9h.3c3.9 0 5.8 1.9 5.8 6.4v23.6c0 4.5-1.9 6.4-5.8 6.4h-.3zM540.2 55.2l5.8-30.5h2.9l-5.8 30.5h-2.9zM561.8 55.2c-.4-4.5-.8-9.1-1.4-13.6h-.7v13.6h-4V24.8h4.8c3.6 0 5.4 1.5 5.4 5.5v6.3c0 2.3-.5 3.6-1.7 4.3.8 4.8 1.4 9.7 2 14.4h-4.4zm.1-25c0-1-.4-1.4-1.4-1.4h-.8V38h.8c.9 0 1.3-.5 1.3-1.4v-6.4zM567.6 29.6c0-3.4 1.6-5.2 5-5.2s5 1.8 5 5.2v20.8c0 3.4-1.6 5.2-5 5.2s-5-1.8-5-5.2V29.6zm5.9 0c0-.8-.3-1.1-.9-1.1-.6 0-.9.4-.9 1.1v20.8c0 .8.3 1.1.9 1.1.6 0 .9-.4.9-1.1V29.6zM580.1 55.2V24.8h5c3.3 0 4.7 1.7 4.7 5.4v6.3c0 1.4-.5 2.6-1.4 3 .9.3 1.8 1.3 1.8 3v7.6c0 3.6-1.7 5.1-5 5.1h-5.1zm5.9-25.3c0-.7-.3-1.1-.9-1.1h-1v9.1h1c.6 0 .9-.4.9-1.1v-6.9zm0 12.7c0-.8-.3-1.1-.9-1.1h-1v9.7h1c.6 0 .9-.4.9-1.1v-7.5zM607 55.4l-1.3-1.2c-.8 1-2.2 1.4-3.6 1.4-2.7 0-4.7-1.3-4.7-5.2V29.6c0-3.3 1.7-5.2 5-5.2s4.8 1.9 4.8 5.2V35h-3.6v-5.4c0-.8-.4-1.1-1.1-1.1-.6 0-1 .4-1 1.1v20.8c0 .8.3 1.1.9 1.1.7 0 1.1-.4 1.1-1.1v-6h-1.3v-3.9h5.2v14.9h-.4zM616.7 55.2l-.4-4.3h-3l-.5 4.3h-3.9l3.7-30.5h4.7l3.5 30.5h-4.1zm-.9-8c-.4-4-.7-8-1-12.1-.3 4.1-.7 8.2-1.1 12.1h2.1zM628.7 55.2c-.4-4.5-.8-9.1-1.4-13.6h-.7v13.6h-4V24.8h4.8c3.6 0 5.4 1.5 5.4 5.5v6.3c0 2.3-.5 3.6-1.7 4.3.8 4.8 1.4 9.7 2 14.4h-4.4zm.1-25c0-1-.4-1.4-1.4-1.4h-.8V38h.8c.9 0 1.3-.5 1.3-1.4v-6.4zM634.6 55.2v-4.1l5.9-22.4h-5.6v-3.9h9.6v3.6l-5.7 22.7h5.7v4.1h-9.9zM653.6 55.2l-.4-4.3h-3l-.5 4.3h-3.9l3.7-30.5h4.7l3.5 30.5h-4.1zm-.8-8c-.4-4-.7-8-1-12.1-.3 4.1-.7 8.2-1.1 12.1h2.1zM671.9 58.2c-3.9 0-5.8-1.9-5.8-6.4V28.2c0-4.5 1.9-6.4 5.8-6.4h.3v2.9h-.3c-2 0-2.9 1.1-2.9 3.5v23.6c0 2.4.9 3.5 2.9 3.5h.3v2.9h-.3zM676.4 55.2V28.8h-3v-4h9.9v4h-2.9v26.4h-4zM685.2 55.2V24.8h4v30.5h-4zM692.1 55.2V24.8h8.4v4h-4.3v8.9h2.7v4h-2.7v9.5h4.5v4h-8.6zM704.9 55.2l-3.2-30.5h4.2c1.3 15.1 1.6 19.3 1.8 23.5.3-4.2.6-8.4 2-23.5h4l-3.4 30.5h-5.4zM715.5 55.2V24.8h8.4v4h-4.3v8.9h2.7v4h-2.7v9.5h4.5v4h-8.6zM732.3 55.2c-.4-4.5-.8-9.1-1.4-13.6h-.7v13.6h-4V24.8h4.8c3.6 0 5.4 1.5 5.4 5.5v6.3c0 2.3-.5 3.6-1.7 4.3.8 4.8 1.4 9.7 2 14.4h-4.4zm.1-25c0-1-.4-1.4-1.4-1.4h-.8V38h.8c.9 0 1.3-.5 1.3-1.4v-6.4zM741.2 55.2v-13l-3.9-17.5h4.3c1.3 7.5 1.6 9.5 1.9 11.6.3-2 .6-4.1 2-11.6h3.9l-4 17.5v13h-4.2zM761.9 44h3.7v6.3c0 3.6-1.4 5.2-4.6 5.2-3.3 0-5-1.7-5-5.1V29.7c0-3.5 1.7-5.3 5-5.3 3.1 0 4.6 1.7 4.6 5.2V35h-3.7v-5.4c0-.8-.3-1.1-.9-1.1-.6 0-.9.4-.9 1.1v20.8c0 .8.3 1.1.9 1.1.6 0 .9-.4.9-1.1V44zM767.6 29.6c0-3.4 1.6-5.2 5-5.2 3.3 0 5 1.8 5 5.2v20.8c0 3.4-1.6 5.2-5 5.2-3.3 0-5-1.8-5-5.2V29.6zm5.9 0c0-.8-.3-1.1-.9-1.1-.6 0-.9.4-.9 1.1v20.8c0 .8.3 1.1.9 1.1.6 0 .9-.4.9-1.1V29.6zM786.2 55.2c-.4-4.5-.8-9.1-1.4-13.6h-.7v13.6h-4V24.8h4.8c3.6 0 5.4 1.5 5.4 5.5v6.3c0 2.3-.5 3.6-1.7 4.3.8 4.8 1.4 9.7 2 14.4h-4.4zm0-25c0-1-.4-1.4-1.4-1.4h-.8V38h.8c.9 0 1.3-.5 1.3-1.4v-6.4zM792.6 55.2V24.8h4.9c3.7 0 5.4 1.7 5.4 5.5v5c0 3.8-1.7 5.5-5.3 5.5h-.9v14.5h-4.1zm6.3-25c0-1-.4-1.4-1.4-1.4h-.9v8h.9c.9 0 1.4-.5 1.4-1.4v-5.2zM804.6 29.6c0-3.4 1.6-5.2 5-5.2s5 1.8 5 5.2v20.8c0 3.4-1.6 5.2-5 5.2s-5-1.8-5-5.2V29.6zm5.9 0c0-.8-.3-1.1-.9-1.1-.6 0-.9.4-.9 1.1v20.8c0 .8.3 1.1.9 1.1.6 0 .9-.4.9-1.1V29.6zM823.1 55.2c-.4-4.5-.8-9.1-1.4-13.6h-.7v13.6h-4V24.8h4.8c3.6 0 5.4 1.5 5.4 5.5v6.3c0 2.3-.5 3.6-1.7 4.3.8 4.8 1.4 9.7 2 14.4h-4.4zm.1-25c0-1-.4-1.4-1.4-1.4h-.8V38h.8c.9 0 1.3-.5 1.3-1.4v-6.4zM836.4 55.2l-.4-4.3h-3l-.5 4.3h-3.9l3.7-30.5h4.7l3.5 30.5h-4.1zm-.9-8c-.4-4-.7-8-1-12.1-.3 4.1-.7 8.2-1.1 12.1h2.1zM843.1 55.2V28.8h-3v-4h9.9v4h-2.9v26.4h-4zM851.9 55.2V24.8h4v30.5h-4zM858.5 29.6c0-3.4 1.6-5.2 5-5.2s5 1.8 5 5.2v20.8c0 3.4-1.6 5.2-5 5.2s-5-1.8-5-5.2V29.6zm5.9 0c0-.8-.3-1.1-.9-1.1-.6 0-.9.4-.9 1.1v20.8c0 .8.3 1.1.9 1.1.6 0 .9-.4.9-1.1V29.6zM877.9 55.2c-2.5-11.8-3.1-15.3-3.7-18.7.1 3.6.1 7.2.1 10.8v7.9h-3.4V24.8h4.6c2 12.9 2.5 15.9 3 19.1-.1-3.2-.1-6.4-.1-9.6v-9.5h3.4v30.5h-3.9zM885.7 58.2v-2.9h.3c2 0 2.9-1.1 2.9-3.5V28.2c0-2.4-.9-3.5-2.9-3.5h-.3v-2.9h.3c3.9 0 5.8 1.9 5.8 6.4v23.6c0 4.5-1.9 6.4-5.8 6.4h-.3zM894.2 57.5v-1.6h.5c.6 0 .8-.3.8-.9v-.6h-1.7v-3.8h3.7v4.2c0 1.4-.8 2.7-2.8 2.7h-.5zM10.3 100.4c-.4-4.1-.8-8.3-1.3-12.5h-.6v12.5H4.7V72.5h4.4c3.3 0 5 1.4 5 5v5.8c0 2.1-.5 3.3-1.6 3.9.7 4.4 1.3 8.9 1.8 13.2h-4zm0-22.9c0-.9-.4-1.3-1.3-1.3h-.6v8.4h.7c.8 0 1.2-.4 1.2-1.3v-5.8zM15.6 76.9c0-3.1 1.5-4.8 4.5-4.8s4.5 1.7 4.5 4.8v19c0 3.1-1.5 4.8-4.5 4.8S15.6 99 15.6 96V76.9zm5.4 0c0-.7-.3-1.1-.8-1.1s-.8.3-.8 1.1v19c0 .7.3 1.1.8 1.1.6 0 .8-.3.8-1.1v-19zM35.5 100.6l-1.2-1.1c-.7 1-2 1.3-3.3 1.3-2.4 0-4.3-1.2-4.3-4.8V77c0-3.1 1.5-4.8 4.6-4.8 3.1 0 4.4 1.7 4.4 4.8v4.9h-3.3v-5c0-.7-.4-1.1-1.1-1.1-.6 0-.9.3-.9 1.1v19c0 .7.3 1.1.8 1.1.7 0 1.1-.3 1.1-1.1v-5.5h-1.2V87h4.8v13.6h-.4zM38.2 100.4V72.5h7.7v3.7h-4v8.1h2.5V88h-2.5v8.7H46v3.7h-7.8zM53.5 100.4c-.4-4.1-.7-8.3-1.3-12.5h-.6v12.5h-3.7V72.5h4.4c3.3 0 5 1.4 5 5v5.8c0 2.1-.5 3.3-1.6 3.9.7 4.4 1.3 8.9 1.8 13.2h-4zm.1-22.9c0-.9-.4-1.3-1.3-1.3h-.7v8.4h.7c.8 0 1.2-.4 1.2-1.3v-5.8zM66 100.4V76.2h-2.7v-3.7h9.1v3.7h-2.7v24.2H66zM79.3 100.4l-.4-4h-2.7l-.5 4h-3.6l3.4-27.9h4.3l3.2 27.9h-3.7zm-.8-7.3c-.3-3.6-.7-7.3-1-11.1-.3 3.8-.6 7.5-1 11.1h2zM86 100.4V88.5l-3.6-16h3.9c1.2 6.9 1.5 8.7 1.7 10.6.3-1.9.6-3.7 1.8-10.6h3.6l-3.7 16v11.9H86zM94.9 100.4V72.5h3.7v24.2h4.1v3.7h-7.8zM104.2 76.9c0-3.1 1.5-4.8 4.5-4.8s4.5 1.7 4.5 4.8v19c0 3.1-1.5 4.8-4.5 4.8s-4.5-1.7-4.5-4.8v-19zm5.4 0c0-.7-.3-1.1-.8-1.1s-.8.3-.8 1.1v19c0 .7.3 1.1.8 1.1.6 0 .8-.3.8-1.1v-19zM121.2 100.4c-.4-4.1-.7-8.3-1.3-12.5h-.6v12.5h-3.7V72.5h4.4c3.3 0 5 1.4 5 5v5.8c0 2.1-.5 3.3-1.6 3.9.7 4.4 1.3 8.9 1.8 13.2h-4zm0-22.9c0-.9-.4-1.3-1.3-1.3h-.7v8.4h.7c.8 0 1.2-.4 1.2-1.3v-5.8zM138.4 103.1c-3.6 0-5.3-1.8-5.3-5.9V75.6c0-4.1 1.8-5.9 5.3-5.9h.3v2.6h-.3c-1.8 0-2.7 1.1-2.7 3.2v21.6c0 2.2.8 3.2 2.7 3.2h.3v2.6h-.3zM140.7 100.4V72.5h4.5c3 0 4.5 1.8 4.5 4.8v18.4c0 3.2-1.5 4.8-4.5 4.8h-4.5zm5.4-23.2c0-.7-.3-1.1-.9-1.1h-.8v20.5h.8c.6 0 .9-.4.9-1.1V77.2zM157.3 72.5h3.7V96c0 3.2-1.5 4.8-4.5 4.8S152 99.2 152 96V72.5h3.7V96c0 .7.3 1.1.8 1.1s.8-.3.8-1.1V72.5zM169 100.4c-.4-4.1-.7-8.3-1.3-12.5h-.6v12.5h-3.7V72.5h4.4c3.3 0 5 1.4 5 5v5.8c0 2.1-.5 3.3-1.6 3.9.7 4.4 1.3 8.9 1.8 13.2h-4zm0-22.9c0-.9-.4-1.3-1.3-1.3h-.7v8.4h.7c.8 0 1.2-.4 1.2-1.3v-5.8zM181.1 100.4l-.4-4H178l-.5 4H174l3.4-27.9h4.3l3.2 27.9h-3.8zm-.8-7.3c-.3-3.6-.7-7.3-1-11.1-.3 3.8-.6 7.5-1 11.1h2zM192.9 100.4c-2.3-10.8-2.9-14-3.4-17.1.1 3.3.1 6.6.1 9.9v7.2h-3.1V72.5h4.2c1.9 11.8 2.3 14.6 2.7 17.5-.1-3-.1-5.9-.1-8.8v-8.7h3.1v27.9h-3.5zM203.6 100.4V72.5h4.5c3 0 4.5 1.8 4.5 4.8v18.4c0 3.2-1.5 4.8-4.5 4.8h-4.5zm5.4-23.2c0-.7-.3-1.1-.9-1.1h-.8v20.5h.8c.6 0 .9-.4.9-1.1V77.2zM220.2 72.5h3.7V96c0 3.2-1.5 4.8-4.5 4.8s-4.5-1.6-4.5-4.8V72.5h3.7V96c0 .7.3 1.1.8 1.1s.8-.3.8-1.1V72.5zM231.9 100.4c-.4-4.1-.7-8.3-1.3-12.5h-.6v12.5h-3.7V72.5h4.4c3.3 0 5 1.4 5 5v5.8c0 2.1-.5 3.3-1.6 3.9.7 4.4 1.3 8.9 1.8 13.2h-4zm0-22.9c0-.9-.4-1.3-1.3-1.3h-.6v8.4h.7c.8 0 1.2-.4 1.2-1.3v-5.8zM244 100.4l-.4-4h-2.7l-.5 4h-3.6l3.4-27.9h4.3l3.2 27.9H244zm-.8-7.3c-.3-3.6-.7-7.3-1-11.1-.3 3.8-.6 7.5-1 11.1h2zM255.8 100.4c-2.3-10.8-2.9-14-3.4-17.1.1 3.3.1 6.6.1 9.9v7.2h-3.1V72.5h4.2c1.9 11.8 2.3 14.6 2.7 17.5-.1-3-.1-5.9-.1-8.8v-8.7h3.1v27.9h-3.5zM263 103.1v-2.6h.3c1.8 0 2.7-1.1 2.7-3.2V75.6c0-2.2-.8-3.2-2.7-3.2h-.3v-2.6h.3c3.6 0 5.3 1.8 5.3 5.9v21.6c0 4.1-1.8 5.9-5.3 5.9h-.3zM274.3 100.4l5.3-27.9h2.7l-5.3 27.9h-2.7zM294.9 100.4l-.4-4h-2.7l-.5 4h-3.6l3.4-27.9h4.3l3.2 27.9h-3.7zm-.9-7.3c-.3-3.6-.7-7.3-1-11.1-.3 3.8-.6 7.5-1 11.1h2zM300.2 100.4V72.5h3.7v24.2h4.1v3.7h-7.8zM309.7 100.4V72.5h7.7v3.7h-4v8.1h2.5V88h-2.5v8.7h4.1v3.7h-7.8zM318.5 96.8c.4.1.8.1 1.5.1.6 0 .9-.4.9-1.2V72.5h3.7v23.2c0 3.4-1.6 5-4.6 5-.5 0-1-.1-1.5-.2v-3.7zM333 100.4l-.4-4h-2.7l-.5 4h-3.6l3.4-27.9h4.3l3.2 27.9H333zm-.9-7.3c-.3-3.6-.7-7.3-1-11.1-.3 3.8-.6 7.5-1 11.1h2zM344.7 100.4c-2.3-10.8-2.9-14-3.4-17.1.1 3.3.1 6.6.1 9.9v7.2h-3.1V72.5h4.2c1.9 11.8 2.3 14.6 2.7 17.5-.1-3-.1-5.9-.1-8.8v-8.7h3.1v27.9h-3.5zM350.6 100.4V72.5h4.5c3 0 4.5 1.8 4.5 4.8v18.4c0 3.2-1.5 4.8-4.5 4.8h-4.5zm5.4-23.2c0-.7-.3-1.1-.9-1.1h-.8v20.5h.8c.6 0 .9-.4.9-1.1V77.2zM367.5 100.4c-.4-4.1-.7-8.3-1.3-12.5h-.6v12.5h-3.7V72.5h4.4c3.3 0 5 1.4 5 5v5.8c0 2.1-.5 3.3-1.6 3.9.7 4.4 1.3 8.9 1.8 13.2h-4zm.1-22.9c0-.9-.4-1.3-1.3-1.3h-.7v8.4h.7c.8 0 1.2-.4 1.2-1.3v-5.8zM379.7 100.4l-.4-4h-2.7l-.5 4h-3.6l3.4-27.9h4.3l3.2 27.9h-3.7zm-.8-7.3c-.3-3.6-.7-7.3-1-11.1-.3 3.8-.6 7.5-1 11.1h2zM395.5 100.4c-.4-4.1-.7-8.3-1.3-12.5h-.6v12.5h-3.7V72.5h4.4c3.3 0 5 1.4 5 5v5.8c0 2.1-.5 3.3-1.6 3.9.7 4.4 1.3 8.9 1.8 13.2h-4zm0-22.9c0-.9-.4-1.3-1.3-1.3h-.7v8.4h.7c.8 0 1.2-.4 1.2-1.3v-5.8zM401.4 100.4V72.5h3.7v27.9h-3.7zM412.9 90.1h3.4v5.8c0 3.3-1.3 4.8-4.2 4.8-3 0-4.6-1.5-4.6-4.7V77c0-3.2 1.6-4.8 4.6-4.8 2.8 0 4.2 1.5 4.2 4.8v5h-3.4v-5c0-.7-.3-1.1-.8-1.1s-.8.3-.8 1.1v19c0 .7.3 1.1.8 1.1.6 0 .8-.3.8-1.1v-5.9zM423.8 100.4V88h-1.7v12.4h-3.7V72.5h3.7v11.8h1.7V72.5h3.7v27.9h-3.7zM436.2 100.4l-.4-4h-2.7l-.5 4H429l3.4-27.9h4.3l3.2 27.9h-3.7zm-.8-7.3c-.3-3.6-.7-7.3-1-11.1-.3 3.8-.6 7.5-1 11.1h2zM447.2 100.4c-.4-4.1-.7-8.3-1.3-12.5h-.6v12.5h-3.7V72.5h4.4c3.3 0 5 1.4 5 5v5.8c0 2.1-.5 3.3-1.6 3.9.7 4.4 1.3 8.9 1.8 13.2h-4zm.1-22.9c0-.9-.4-1.3-1.3-1.3h-.7v8.4h.7c.8 0 1.2-.4 1.2-1.3v-5.8zM453.1 100.4V72.5h4.5c3 0 4.5 1.8 4.5 4.8v18.4c0 3.2-1.5 4.8-4.5 4.8h-4.5zm5.4-23.2c0-.7-.3-1.1-.9-1.1h-.8v20.5h.8c.6 0 .9-.4.9-1.1V77.2zM469.4 92.1c0-1.5-.5-2.1-2.7-5-1.7-2.2-2.6-3.9-2.6-6.2v-4.2c0-3.1 1.5-4.6 4.5-4.6 3.2 0 4.4 1.5 4.4 4.6v5.1h-3.4v-5.1c0-.6-.3-.9-.9-.9s-.9.3-.9.9v4.1c0 1.4.6 2 2.7 4.8 2 2.6 2.6 4 2.6 6.5v4c0 2.9-1.3 4.6-4.5 4.6-3.1 0-4.5-1.7-4.5-4.6v-5.9h3.5v5.9c0 .6.3.9.9.9.6 0 .9-.3.9-.9v-4zM479 100.4l5.3-27.9h2.7l-5.3 27.9H479zM493.2 100.4V72.5h3.7v24.2h4.1v3.7h-7.8zM508 72.5h3.7V96c0 3.2-1.5 4.8-4.5 4.8s-4.5-1.6-4.5-4.8V72.5h3.7V96c0 .7.3 1.1.8 1.1s.8-.3.8-1.1V72.5zM520.6 100.4c-2.2-9.1-2.6-11.3-3-13.3.1 2 .1 4.2.1 7.3v6H514V72.5h3.7V78c0 3.1 0 4.6-.1 6.1.3-1.5.7-3.4 2.9-11.7h3.9l-3.7 12.5 4 15.5h-4.1zM526.2 100.4V72.5h7.7v3.7h-4v8.1h2.5V88h-2.5v8.7h4.1v3.7h-7.8zM546.1 100.4V88h-1.7v12.4h-3.7V72.5h3.7v11.8h1.7V72.5h3.7v27.9h-3.7zM552 76.9c0-3.1 1.5-4.8 4.5-4.8s4.5 1.7 4.5 4.8v19c0 3.1-1.5 4.8-4.5 4.8S552 99 552 96V76.9zm5.4 0c0-.7-.3-1.1-.8-1.1s-.8.3-.8 1.1v19c0 .7.3 1.1.8 1.1.6 0 .8-.3.8-1.1v-19zM572.4 100.4c-1.3-13.9-1.5-16-1.5-18-.1 2-.3 4.1-1.7 18h-4.3l-2.7-27.9h3.9c1 14.7 1.2 17.1 1.3 19.5.2-2.4.4-4.8 2-19.5h3.3c1.3 14.7 1.5 17.1 1.7 19.5.1-2.4.3-4.8 1.6-19.5h3.9l-3.1 27.9h-4.4zM586.8 100.4l-.4-4h-2.7l-.5 4h-3.6l3.4-27.9h4.3l3.2 27.9h-3.7zm-.8-7.3c-.3-3.6-.7-7.3-1-11.1-.3 3.8-.6 7.5-1 11.1h2zM597.8 100.4c-.4-4.1-.7-8.3-1.3-12.5h-.6v12.5h-3.7V72.5h4.4c3.3 0 5 1.4 5 5v5.8c0 2.1-.5 3.3-1.6 3.9.7 4.4 1.3 8.9 1.8 13.2h-4zm.1-22.9c0-.9-.4-1.3-1.3-1.3h-.7v8.4h.7c.8 0 1.2-.4 1.2-1.3v-5.8zM603.7 100.4V72.5h4.5c3 0 4.5 1.8 4.5 4.8v18.4c0 3.2-1.5 4.8-4.5 4.8h-4.5zm5.4-23.2c0-.7-.3-1.1-.9-1.1h-.8v20.5h.8c.6 0 .9-.4.9-1.1V77.2zM618.7 100.4l5.3-27.9h2.7l-5.3 27.9h-2.7zM632.6 100.4v-3.8L638 76h-5.1v-3.6h8.8v3.3l-5.2 20.8h5.2v3.8h-9.1zM649 72.5h3.7V96c0 3.2-1.5 4.8-4.5 4.8s-4.5-1.6-4.5-4.8V72.5h3.7V96c0 .7.3 1.1.8 1.1s.8-.3.8-1.1V72.5zM661.6 100.4c-2.2-9.1-2.6-11.3-3-13.3.1 2 .1 4.2.1 7.3v6H655V72.5h3.7V78c0 3.1 0 4.6-.1 6.1.3-1.5.7-3.4 2.9-11.7h3.9l-3.7 12.5 4 15.5h-4.1zM667.2 100.4V72.5h7.7v3.7h-4v8.1h2.5V88h-2.5v8.7h4.1v3.7h-7.8zM682.5 100.4c-.4-4.1-.7-8.3-1.3-12.5h-.6v12.5h-3.7V72.5h4.4c3.3 0 5 1.4 5 5v5.8c0 2.1-.5 3.3-1.6 3.9.7 4.4 1.3 8.9 1.8 13.2h-4zm.1-22.9c0-.9-.4-1.3-1.3-1.3h-.7v8.4h.7c.8 0 1.2-.4 1.2-1.3v-5.8zM692.1 100.4l5.3-27.9h2.7l-5.3 27.9h-2.7zM706.4 100.4V72.5h7.7v3.7h-4v8.1h2.5V88h-2.5v8.7h4.1v3.7h-7.8zM722.5 100.4c-2.3-10.8-2.9-14-3.4-17.1.1 3.3.1 6.6.1 9.9v7.2h-3.1V72.5h4.2c1.9 11.8 2.3 14.6 2.7 17.5-.1-3-.1-5.9-.1-8.8v-8.7h3.1v27.9h-3.5zM730.3 100.4V76.2h-2.7v-3.7h9.1v3.7H734v24.2h-3.7zM743.9 100.4c-.4-4.1-.7-8.3-1.3-12.5h-.6v12.5h-3.7V72.5h4.4c3.3 0 5 1.4 5 5v5.8c0 2.1-.5 3.3-1.6 3.9.7 4.4 1.3 8.9 1.8 13.2h-4zm.1-22.9c0-.9-.4-1.3-1.3-1.3h-.7v8.4h.7c.8 0 1.2-.4 1.2-1.3v-5.8zM749.8 100.4V72.5h7.7v3.7h-4v8.1h2.5V88h-2.5v8.7h4.1v3.7h-7.8zM774.3 100.4v-7.9c0-3.3.1-6.6.2-9.8-.3 3.2-.7 6.5-2 17.7h-3.1l-1.9-17.7c.1 3.3.2 6.6.2 9.8v7.8h-3.4V72.5h4.9c1.4 15 1.6 17.3 1.7 19.5.2-2.2.4-4.5 1.8-19.5h5v27.9h-3.4zM785.3 72.5h3.7V96c0 3.2-1.5 4.8-4.5 4.8S780 99.2 780 96V72.5h3.7V96c0 .7.3 1.1.8 1.1s.8-.3.8-1.1V72.5zM796.6 90.1h3.4v5.8c0 3.3-1.3 4.8-4.2 4.8-3 0-4.6-1.5-4.6-4.7V77c0-3.2 1.6-4.8 4.6-4.8 2.8 0 4.2 1.5 4.2 4.8v5h-3.4v-5c0-.7-.3-1.1-.8-1.1s-.8.3-.8 1.1v19c0 .7.3 1.1.8 1.1.6 0 .8-.3.8-1.1v-5.9zM807.5 100.4V88h-1.7v12.4h-3.7V72.5h3.7v11.8h1.7V72.5h3.7v27.9h-3.7zM813.4 76.9c0-3.1 1.5-4.8 4.5-4.8s4.5 1.7 4.5 4.8v19c0 3.1-1.5 4.8-4.5 4.8s-4.5-1.7-4.5-4.8v-19zm5.4 0c0-.7-.3-1.1-.8-1.1s-.8.3-.8 1.1v19c0 .7.3 1.1.8 1.1.6 0 .8-.3.8-1.1v-19zM829.8 92.1c0-1.5-.5-2.1-2.7-5-1.7-2.2-2.6-3.9-2.6-6.2v-4.2c0-3.1 1.5-4.6 4.5-4.6 3.2 0 4.4 1.5 4.4 4.6v5.1H830v-5.1c0-.6-.3-.9-.9-.9-.6 0-.9.3-.9.9v4.1c0 1.4.6 2 2.7 4.8 2 2.6 2.6 4 2.6 6.5v4c0 2.9-1.3 4.6-4.5 4.6-3.1 0-4.5-1.7-4.5-4.6v-5.9h3.5v5.9c0 .6.3.9.9.9.6 0 .9-.3.9-.9v-4zM840.2 76.9c0-3.1 1.5-4.8 4.5-4.8s4.5 1.7 4.5 4.8v19c0 3.1-1.5 4.8-4.5 4.8s-4.5-1.7-4.5-4.8v-19zm5.4 0c0-.7-.3-1.1-.8-1.1s-.8.3-.8 1.1v19c0 .7.3 1.1.8 1.1.6 0 .8-.3.8-1.1v-19zM853.1 100.4V76.2h-2.7v-3.7h9.1v3.7h-2.7v24.2h-3.7zM866.7 100.4c-.4-4.1-.7-8.3-1.3-12.5h-.6v12.5h-3.7V72.5h4.4c3.3 0 5 1.4 5 5v5.8c0 2.1-.5 3.3-1.6 3.9.7 4.4 1.3 8.9 1.8 13.2h-4zm.1-22.9c0-.9-.4-1.3-1.3-1.3h-.7v8.4h.7c.8 0 1.2-.4 1.2-1.3v-5.8zM872 76.9c0-3.1 1.5-4.8 4.5-4.8s4.5 1.7 4.5 4.8v19c0 3.1-1.5 4.8-4.5 4.8S872 99 872 96V76.9zm5.4 0c0-.7-.3-1.1-.8-1.1s-.8.3-.8 1.1v19c0 .7.3 1.1.8 1.1.6 0 .8-.3.8-1.1v-19zM888.4 92.1c0-1.5-.5-2.1-2.7-5-1.7-2.2-2.6-3.9-2.6-6.2v-4.2c0-3.1 1.5-4.6 4.5-4.6 3.2 0 4.4 1.5 4.4 4.6v5.1h-3.4v-5.1c0-.6-.3-.9-.9-.9-.6 0-.9.3-.9.9v4.1c0 1.4.6 2 2.7 4.8 2 2.6 2.6 4 2.6 6.5v4c0 2.9-1.3 4.6-4.5 4.6-3.1 0-4.5-1.7-4.5-4.6v-5.9h3.5v5.9c0 .6.3.9.9.9.6 0 .9-.3.9-.9v-4zM894 100.4v-4.2h3.4v4.2H894z"/><path class="st1" d="M0 2.5h898.7M0 122.9h898.7"/></svg>