<svg xmlns="http://www.w3.org/2000/svg" width="894.8" height="85.1"><style>.st0{fill:none;stroke:#3f8bbe;stroke-miterlimit:10}</style><path class="st0" d="M.5 83.7V1.4h13.3c9.9 0 14.5 4.7 14.5 14.9v13.5c0 10.3-4.6 14.8-14.4 14.8h-2.5v39.1H.5zm17.1-67.5c0-2.6-1.2-3.9-3.8-3.9h-2.4V34h2.5c2.5 0 3.7-1.3 3.7-3.8v-14zM33 83.7V1.4h22.6v10.9H43.9v24h7.4v10.9h-7.4v25.6h12.2v10.9H33zM77.7 83.7c-1.1-12.2-2.2-24.5-3.8-36.7h-1.8v36.7H61.2V1.4h13c9.8 0 14.7 4 14.7 14.8v17c0 6.3-1.4 9.6-4.7 11.6 2.1 13 3.8 26.1 5.4 38.9H77.7zm.2-67.5c0-2.6-1.2-3.9-3.7-3.9h-2.1v24.8h2.2c2.4 0 3.6-1.3 3.6-3.8V16.2zM94.5 83.7V1.4h23.1v10.9h-12.2v24.4h7.5v10.9h-7.5v36.1H94.5zM120.6 14.5c0-9.1 4.4-14 13.4-14s13.4 4.9 13.4 14v56.1c0 9.1-4.4 14-13.4 14s-13.4-4.9-13.4-14V14.5zm15.9 0c0-2.1-.8-3.1-2.5-3.1-1.6 0-2.5 1-2.5 3.1v56.1c0 2.1.9 3.1 2.5 3.1 1.7 0 2.5-1 2.5-3.1V14.5zM170.1 83.7c-1.1-12.2-2.2-24.5-3.8-36.7h-1.8v36.7h-10.9V1.4h13c9.8 0 14.7 4 14.7 14.8v17c0 6.3-1.4 9.6-4.7 11.6 2.1 13 3.8 26.1 5.4 38.9h-11.9zm.2-67.5c0-2.6-1.2-3.9-3.7-3.9h-2.1v24.8h2.2c2.4 0 3.6-1.3 3.6-3.8V16.2zM216.2 83.7V60.5c0-9.6.2-19.3.6-28.9-.9 9.5-2.1 19.2-5.9 52.1h-9.2L196 31.6c.4 9.6.6 19.4.6 29v23.1h-9.9V1.4h14.4c4.1 44.3 4.8 50.9 5.1 57.3.5-6.4 1.1-13.2 5.3-57.3h14.6v82.3h-9.9zM273.9 83.7c-3.8-41-4.3-47-4.5-53-.3 6-.8 12-5 53h-12.7l-7.9-82.3h11.4c3 43.2 3.5 50.3 3.9 57.4.5-7.1 1.2-14.2 5.8-57.4h9.7c3.9 43.2 4.5 50.3 5 57.4.3-7.1.9-14.2 4.7-57.4h11.4l-9.2 82.3h-12.6zM300.2 83.7V1.4h10.9v82.3h-10.9zM323.6 83.7V12.3h-8V1.4h26.8v10.9h-7.9v71.4h-10.9zM362.6 83.7V47.2h-5v36.5h-10.9V1.4h10.9v34.9h5V1.4h10.8v82.3h-10.8zM394 83.7V1.4h10.9v82.3H394zM430.6 83.7c-6.7-31.8-8.5-41.2-10.1-50.4.3 9.7.3 19.4.3 29.2v21.2h-9.1V1.4h12.5c5.5 34.8 6.7 43 8 51.5-.3-8.7-.3-17.3-.3-25.8V1.4h9.1v82.3h-10.4zM453.1 83.7V12.3h-8V1.4h26.8v10.9H464v71.4h-10.9zM476.2 83.7V1.4h22.6v10.9h-11.7v24h7.4v10.9h-7.4v25.6h12.2v10.9h-23.1zM520.9 83.7c-1.1-12.2-2.2-24.5-3.8-36.7h-1.8v36.7h-10.9V1.4h13c9.8 0 14.7 4 14.7 14.8v17c0 6.3-1.4 9.6-4.7 11.6 2.1 13 3.8 26.1 5.4 38.9h-11.9zm.2-67.5c0-2.6-1.2-3.9-3.7-3.9h-2.1v24.8h2.2c2.4 0 3.6-1.3 3.6-3.8V16.2zM556.4 83.7c-6.7-31.8-8.5-41.2-10.1-50.4.3 9.7.3 19.4.3 29.2v21.2h-9.1V1.4H550c5.5 34.8 6.7 43 8 51.5-.3-8.7-.3-17.3-.3-25.8V1.4h9.1v82.3h-10.4zM592 83.7L590.8 72h-8l-1.4 11.7h-10.5l10-82.3h12.6l9.4 82.3H592zm-2.4-21.6c-1-10.7-2-21.6-2.8-32.8-.8 11.2-1.8 22.1-3 32.8h5.8zM621.8 53.5h9.9v17c0 9.6-3.7 14.1-12.4 14.1-8.9 0-13.6-4.5-13.6-13.9v-56c0-9.5 4.7-14.2 13.6-14.2 8.3 0 12.4 4.5 12.4 14v14.6h-9.9V14.5c0-2.1-.8-3.1-2.5-3.1-1.6 0-2.5 1-2.5 3.1v56.1c0 2.1.9 3.1 2.5 3.1 1.7 0 2.5-1 2.5-3.1V53.5zM637.6 83.7V1.4h10.9v82.3h-10.9zM654.9 14.5c0-9.1 4.4-14 13.4-14s13.4 4.9 13.4 14v56.1c0 9.1-4.4 14-13.4 14s-13.4-4.9-13.4-14V14.5zm15.9 0c0-2.1-.8-3.1-2.5-3.1-1.6 0-2.5 1-2.5 3.1v56.1c0 2.1.9 3.1 2.5 3.1 1.7 0 2.5-1 2.5-3.1V14.5zM706.6 83.7c-6.7-31.8-8.5-41.2-10.1-50.4.3 9.7.3 19.4.3 29.2v21.2h-9.1V1.4h12.5c5.5 34.8 6.7 43 8 51.5-.3-8.7-.3-17.3-.3-25.8V1.4h9.1v82.3h-10.4zM742.2 83.7L741 72h-8l-1.4 11.7h-10.5l10-82.3h12.6l9.4 82.3h-10.9zm-2.4-21.6c-1-10.7-2-21.6-2.8-32.8-.8 11.2-1.8 22.1-3 32.8h5.8zM757.5 83.7V1.4h10.9v71.4h12.2v10.9h-23.1zM798.5 83.7V1.4h13.3c8.9 0 13.4 5.3 13.4 14.1v54.2c0 9.5-4.5 14-13.4 14h-13.3zm15.9-68.3c0-2-.9-3.1-2.6-3.1h-2.4v60.5h2.4c1.7 0 2.6-1.1 2.6-3.1V15.4zM828.7 73c1.1.2 2.5.3 4.3.3 1.7 0 2.7-1.2 2.7-3.6V1.4h10.9v68.3c0 10.1-4.7 14.6-13.6 14.6-1.6 0-3-.2-4.3-.5V73zM853.7 20.1v-4.3h1.3c1.6 0 2.1-.7 2.1-2.3v-1.8h-4.6V1.4h10.1v11.3c0 3.9-2.2 7.4-7.6 7.4h-1.3zM883.5 59.3c0-4.3-1.4-6.2-8-14.6-5.1-6.6-7.7-11.4-7.7-18.4V14c0-9.1 4.4-13.5 13.3-13.5C890.4.5 894 4.9 894 14v15.1h-10V14c0-1.8-.8-2.6-2.6-2.6s-2.6.8-2.6 2.6v12.2c0 4.2 1.8 6 7.9 14 5.8 7.7 7.6 11.9 7.6 19V71c0 8.6-3.9 13.6-13.2 13.6-9.2 0-13.3-5-13.3-13.6V53.5h10.4V71c0 1.8.9 2.7 2.6 2.7 1.8 0 2.7-.9 2.7-2.7V59.3z"/></svg>