<svg xmlns="http://www.w3.org/2000/svg" width="579.9" height="142.9"><style>.st0{fill:none;stroke:#3f8bbe;stroke-miterlimit:10}</style><path class="st0" d="M.5 140.9V2h22.4c16.7 0 24.5 7.9 24.5 25.1v22.8c0 17.4-7.8 25-24.3 25h-4.2v66H.5zM29.4 27c0-4.4-2-6.6-6.4-6.6h-4V57h4.2c4.2 0 6.2-2.2 6.2-6.4V27zM54.3 24.1C54.3 8.7 61.7.5 76.9.5c15.2 0 22.6 8.3 22.6 23.6v94.7c0 15.4-7.4 23.6-22.6 23.6-15.2 0-22.6-8.3-22.6-23.6V24.1zm26.9 0c0-3.5-1.4-5.2-4.2-5.2-2.7 0-4.2 1.7-4.2 5.2v94.7c0 3.5 1.5 5.2 4.2 5.2 2.9 0 4.2-1.7 4.2-5.2V24.1zM137.9 140.9c-1.9-20.6-3.7-41.3-6.4-61.9h-3v61.9H110V2h21.9c16.5 0 24.8 6.8 24.8 25v28.7c0 10.6-2.4 16.2-7.9 19.6 3.5 21.9 6.4 44 9.1 65.6h-20zm.3-113.9c0-4.4-2-6.6-6.2-6.6h-3.5v41.8h3.7c4 0 6.1-2.2 6.1-6.4V27zM220.5 140.9l-2-19.7H205l-2.4 19.7h-17.7L201.8 2h21.3L239 140.9h-18.5zm-4-36.5c-1.7-18.1-3.4-36.4-4.7-55.3-1.4 18.9-3 37.3-5.1 55.3h9.8zM295.8 140.9v-39.1c0-16.2.3-32.6 1-48.8-1.5 16-3.5 32.4-10 87.9h-15.5L261.7 53c.7 16.2 1 32.7 1 48.9v39H246V2h24.3c6.9 74.8 8.1 85.9 8.6 96.7.8-10.8 1.9-22.3 8.9-96.7h24.6v138.9h-16.6zM322.6 24.1C322.6 8.7 330 .5 345.2.5c15.2 0 22.6 8.3 22.6 23.6v94.7c0 15.4-7.4 23.6-22.6 23.6-15.2 0-22.6-8.3-22.6-23.6V24.1zm26.8 0c0-3.5-1.4-5.2-4.2-5.2-2.7 0-4.2 1.7-4.2 5.2v94.7c0 3.5 1.5 5.2 4.2 5.2 2.9 0 4.2-1.7 4.2-5.2V24.1zM406.1 140.9c-1.9-20.6-3.7-41.3-6.4-61.9h-3v61.9h-18.4V2h21.9C416.8 2 425 8.8 425 27v28.7c0 10.6-2.4 16.2-7.9 19.6 3.5 21.9 6.4 44 9.1 65.6h-20.1zm.4-113.9c0-4.4-2-6.6-6.2-6.6h-3.5v41.8h3.7c4 0 6.1-2.2 6.1-6.4V27zM456.4 140.9v-21.1h17v21.1h-17zm53 0v-21.1h17v21.1h-17zm53 0v-21.1h17v21.1h-17z"/></svg>