<svg xmlns="http://www.w3.org/2000/svg" width="542.4" height="304.7"><style>.st0,.st1{fill:none;stroke-miterlimit:10}.st0{stroke-width:.75;stroke:#f25430}.st1{stroke:#418bc4}.st2{fill:#418bc4}.st3{fill:#f25430}</style><path class="st0" d="M4.3 192.7c-2.6-2.9-3.9-7.5-3.9-14v-6.3H13v8c0 3.2 1 4.8 3.1 4.8 1.1 0 1.9-.3 2.4-1 .4-.7.7-1.8.7-3.4 0-2.1-.2-3.8-.7-5.2-.5-1.4-1.1-2.5-1.9-3.4-.8-.9-2.2-2.4-4.1-4.3L7 162.4c-4.3-4.2-6.4-8.8-6.4-13.9 0-5.5 1.3-9.6 3.8-12.5 2.5-2.9 6.2-4.3 11-4.3 5.8 0 9.9 1.5 12.5 4.6 2.5 3.1 3.8 7.9 3.8 14.4H18.4l-.1-4.4c0-.8-.2-1.5-.7-2-.5-.5-1.1-.7-2-.7-1 0-1.7.3-2.2.8-.5.5-.7 1.3-.7 2.2 0 2.1 1.2 4.3 3.6 6.5l7.5 7.2c1.7 1.7 3.2 3.3 4.3 4.8 1.1 1.5 2.1 3.3 2.8 5.4.7 2.1 1 4.5 1 7.4 0 6.3-1.2 11.1-3.5 14.4-2.3 3.3-6.1 4.9-11.5 4.9-5.8-.2-10.1-1.7-12.6-4.5zM36.1 196.4v-64.1h25.7v12.4H49.1v12.5h12.1v12.1H49.1V184h13.4v12.5H36.1zM66.8 196.4v-64.1h12.8v53.2h13.2v10.9h-26zM114.6 196.5c-1.9.3-3 .5-3.2.5-5.2 0-9.1-1.5-11.8-4.4-2.7-3-4-7.3-4-13v-31c0-5.5 1.4-9.7 4.1-12.6 2.7-2.9 6.6-4.3 11.8-4.3 5.1 0 9 1.4 11.8 4.3 2.7 2.9 4.1 7.1 4.1 12.6v31c0 5.3-1.2 9.5-3.6 12.5l5.5 3.5-4.3 7.6-10.4-6.7zm-.8-13.1c.3-1.2.5-2.7.5-4.6v-30c0-1.6-.2-2.9-.6-3.9-.4-.9-1.2-1.4-2.4-1.4-2 0-3.1 1.7-3.1 5.2V179c0 1.8.2 3.3.6 4.4.4 1.2 1.2 1.8 2.5 1.8s2.1-.6 2.5-1.8zM136.5 192.5c-2.6-3-3.8-7.4-3.8-13.3v-47h12.5v46.4c0 2 .2 3.6.6 4.8.4 1.1 1.2 1.7 2.5 1.7s2.1-.6 2.5-1.7c.4-1.1.6-2.7.6-4.8v-46.4h12.5v47c0 5.9-1.3 10.3-3.8 13.3-2.6 3-6.5 4.5-11.8 4.5-5.4 0-9.3-1.5-11.8-4.5zM168.7 196.4v-64.1h25.7v12.4h-12.6v12.5h12.1v12.1h-12.1V184h13.4v12.5h-26.5zM205 196.4v-51.8h-7.6v-12.3h28.1v12.3h-7.6v51.8H205z"/><path class="st1" d="M277.9 193c-2.8-2.9-4.2-7-4.2-12.1v-29.6c0-6.4 1.3-11.2 3.8-14.4 2.5-3.2 6.5-4.9 11.9-4.9 4.7 0 8.5 1.3 11.4 3.9 2.9 2.6 4.3 6.3 4.3 11.2v11.1h-12.8v-9.5c0-1.8-.2-3.1-.7-3.8-.4-.7-1.2-1-2.3-1-1.1 0-1.9.4-2.4 1.2-.4.8-.6 2-.6 3.5v32.2c0 1.7.2 2.9.7 3.7.5.8 1.2 1.2 2.2 1.2 2 0 3-1.6 3-4.9v-11.6h12.9v12.1c0 10.8-5.4 16.1-16.2 16.1-4.4 0-8.2-1.5-11-4.4zM309.6 196.8v-64.1h12.8v22.9h6v-22.9h12.8v64.1h-12.8v-29.1h-6v29.1h-12.8zM345.2 196.8l6.2-64.1h21.7l6.1 64.1H367l-.9-10.4h-7.8l-.7 10.4h-12.4zm14.1-20.6h5.8l-2.8-32.6h-.6l-2.4 32.6zM401.2 196.9c-1.9.3-3 .5-3.2.5-5.2 0-9.1-1.5-11.8-4.4-2.7-3-4-7.3-4-13v-31c0-5.5 1.4-9.7 4.1-12.6 2.7-2.9 6.6-4.3 11.8-4.3 5.1 0 9 1.4 11.8 4.3 2.7 2.9 4.1 7.1 4.1 12.6v31c0 5.3-1.2 9.5-3.6 12.5l5.5 3.5-4.3 7.6-10.4-6.7zm-.8-13.1c.3-1.2.5-2.7.5-4.6v-30c0-1.6-.2-2.9-.6-3.9-.4-.9-1.2-1.4-2.4-1.4-2 0-3.1 1.7-3.1 5.2v30.3c0 1.8.2 3.3.6 4.4.4 1.2 1.2 1.8 2.5 1.8 1.4 0 2.2-.6 2.5-1.8zM423.1 192.9c-2.6-3-3.8-7.4-3.8-13.3v-47h12.5V179c0 2 .2 3.6.6 4.8.4 1.1 1.2 1.7 2.5 1.7s2.1-.6 2.5-1.7c.4-1.1.6-2.7.6-4.8v-46.4h12.5v47c0 5.9-1.3 10.3-3.8 13.3-2.6 3-6.5 4.5-11.8 4.5-5.3 0-9.3-1.5-11.8-4.5zM454.8 196.8v-64.1h12.4v64.1h-12.4zM472.3 132.7H492c3.1 0 5.6.7 7.3 2.1 1.7 1.4 2.9 3.4 3.5 6 .6 2.6.9 5.8.9 9.8 0 3.6-.5 6.5-1.4 8.5-.9 2-2.6 3.5-4.9 4.3 1.9.4 3.3 1.4 4.2 2.9.9 1.5 1.3 3.6 1.3 6.3l-.1 24.3h-12.5v-25.1c0-1.8-.3-2.9-1-3.4s-2-.7-3.8-.7V197h-13v-64.3zm16.1 23.7c1.8 0 2.7-1.9 2.7-5.8 0-1.7-.1-3-.2-3.8-.1-.8-.4-1.4-.8-1.8-.4-.3-1-.5-1.7-.5h-3v11.9h3zM506.2 196.8l6.2-64.1h21.7l6.1 64.1H528l-.9-10.4h-7.8l-.7 10.4h-12.4zm14.2-20.6h5.8l-2.8-32.6h-.6l-2.4 32.6z"/><g><path class="st2" d="M4.3 285.7v-57.8h11.6v47.9h11.9v9.8H4.3zM29.5 285.7l5.6-57.8h19.6l5.5 57.8h-11l-.8-9.3h-7l-.7 9.3H29.5zm12.8-18.6h5.2L45 237.7h-.5l-2.2 29.4zM66 282.3c-2.3-2.6-3.5-6.8-3.5-12.6v-5.6h11.4v7.2c0 2.9.9 4.3 2.8 4.3 1 0 1.7-.3 2.2-.9.4-.6.6-1.6.6-3.1 0-1.9-.2-3.4-.7-4.7-.4-1.2-1-2.3-1.7-3.1-.7-.8-1.9-2.1-3.7-3.9l-5-5c-3.9-3.8-5.8-7.9-5.8-12.5 0-4.9 1.1-8.7 3.4-11.3 2.3-2.6 5.6-3.9 9.9-3.9 5.2 0 8.9 1.4 11.2 4.1 2.3 2.8 3.4 7.1 3.4 12.9H78.7l-.1-4c0-.8-.2-1.4-.6-1.8-.4-.4-1-.7-1.8-.7-.9 0-1.6.2-2 .7-.4.5-.7 1.2-.7 2 0 1.9 1.1 3.8 3.2 5.9l6.7 6.5c1.6 1.5 2.9 3 3.9 4.3 1 1.4 1.9 3 2.5 4.8.6 1.9.9 4.1.9 6.6 0 5.7-1 10-3.1 12.9-2.1 2.9-5.5 4.4-10.3 4.4-5.2.4-9-.9-11.3-3.5zM115.7 285.7l-7.1-57.8h11l4.2 39.3 3.8-39.3h11l-7.1 57.8h-15.8zM139 285.7l5.6-57.8h19.6l5.5 57.8h-11l-.8-9.3h-7l-.7 9.3H139zm12.7-18.6h5.2l-2.6-29.4h-.5l-2.1 29.4zM176.5 282.2c-2.5-2.6-3.8-6.3-3.8-10.9v-26.6c0-5.7 1.1-10.1 3.4-13 2.3-2.9 5.9-4.4 10.8-4.4 4.3 0 7.7 1.2 10.3 3.5 2.6 2.3 3.9 5.7 3.9 10.1v10h-11.5v-8.5c0-1.7-.2-2.8-.6-3.4-.4-.6-1.1-.9-2.1-.9s-1.7.4-2.1 1.1c-.4.7-.6 1.8-.6 3.2v29c0 1.5.2 2.6.7 3.3.4.7 1.1 1 2 1 1.8 0 2.7-1.5 2.7-4.4v-10.4h11.6v10.9c0 9.7-4.9 14.5-14.6 14.5-4.2-.1-7.6-1.4-10.1-4.1zM203.5 285.7l5.6-57.8h19.6l5.5 57.8h-11l-.8-9.3h-7l-.7 9.3h-11.2zm12.7-18.6h5.2l-2.6-29.4h-.5l-2.1 29.4zM240 282.3c-2.3-2.6-3.5-6.8-3.5-12.6v-5.6h11.4v7.2c0 2.9.9 4.3 2.8 4.3 1 0 1.7-.3 2.2-.9.4-.6.6-1.6.6-3.1 0-1.9-.2-3.4-.7-4.7-.4-1.2-1-2.3-1.7-3.1-.7-.8-1.9-2.1-3.7-3.9l-5-5c-3.9-3.8-5.8-7.9-5.8-12.5 0-4.9 1.1-8.7 3.4-11.3 2.3-2.6 5.6-3.9 9.9-3.9 5.2 0 8.9 1.4 11.2 4.1 2.3 2.8 3.4 7.1 3.4 12.9h-11.8l-.1-4c0-.8-.2-1.4-.6-1.8-.4-.4-1-.7-1.8-.7-.9 0-1.6.2-2 .7-.4.5-.7 1.2-.7 2 0 1.9 1.1 3.8 3.2 5.9l6.7 6.5c1.6 1.5 2.9 3 3.9 4.3 1 1.4 1.9 3 2.5 4.8.6 1.9.9 4.1.9 6.6 0 5.7-1 10-3.1 12.9-2.1 2.9-5.5 4.4-10.3 4.4-5.2.4-9-.9-11.3-3.5zM286.7 282.3c-2.3-2.6-3.5-6.8-3.5-12.6v-5.6h11.4v7.2c0 2.9.9 4.3 2.8 4.3 1 0 1.7-.3 2.2-.9.4-.6.6-1.6.6-3.1 0-1.9-.2-3.4-.7-4.7-.4-1.2-1-2.3-1.7-3.1-.7-.8-1.9-2.1-3.7-3.9l-5-5c-3.9-3.8-5.8-7.9-5.8-12.5 0-4.9 1.1-8.7 3.4-11.3 2.3-2.6 5.6-3.9 9.9-3.9 5.2 0 8.9 1.4 11.2 4.1 2.3 2.8 3.4 7.1 3.4 12.9h-11.8l-.1-4c0-.8-.2-1.4-.6-1.8-.4-.4-1-.7-1.8-.7-.9 0-1.6.2-2 .7-.4.5-.7 1.2-.7 2 0 1.9 1.1 3.8 3.2 5.9l6.7 6.5c1.6 1.5 2.9 3 3.9 4.3 1 1.4 1.9 3 2.5 4.8.6 1.9.9 4.1.9 6.6 0 5.7-1 10-3.1 12.9-2.1 2.9-5.5 4.4-10.3 4.4-5.2.4-9-.9-11.3-3.5zM313.8 285.7l5.6-57.8H339l5.5 57.8h-11l-.8-9.3h-7l-.7 9.3h-11.2zm12.8-18.6h5.2l-2.6-29.4h-.5l-2.1 29.4zM350.6 281.8c-2-2.9-3.1-7.4-3.1-13.3v-24.9c0-5.3 1.2-9.4 3.6-12.1 2.4-2.7 5.9-4.1 10.6-4.1 3.8 0 6.8.8 8.9 2.3 2.1 1.5 3.6 3.7 4.4 6.7.8 2.9 1.2 6.7 1.2 11.2h-11.3v-5.2c0-1.4-.2-2.5-.6-3.2-.4-.8-1.1-1.1-2.1-1.1-2.2 0-3.3 1.4-3.3 4.3v28c0 1.7.2 3.1.7 4 .4.9 1.2 1.3 2.4 1.3 1.1 0 1.9-.4 2.4-1.3.4-.9.7-2.2.7-4V262H362v-10h14v33.6h-4.6l-1.9-4.8c-2.1 3.6-5.2 5.4-9.6 5.4-4.2 0-7.3-1.5-9.3-4.4zM380.6 227.9h17.8c2.8 0 5 .6 6.6 1.9 1.5 1.3 2.6 3.1 3.1 5.4.5 2.3.8 5.3.8 8.8 0 3.3-.4 5.8-1.3 7.7-.9 1.8-2.3 3.1-4.4 3.8 1.7.4 3 1.2 3.8 2.6.8 1.4 1.2 3.3 1.2 5.6l-.1 21.9h-11.3V263c0-1.6-.3-2.6-.9-3.1-.6-.4-1.8-.7-3.4-.7v26.4h-11.7v-57.7zm14.5 21.4c1.6 0 2.4-1.7 2.4-5.2 0-1.5-.1-2.7-.2-3.4-.1-.8-.4-1.3-.7-1.6-.4-.3-.9-.4-1.5-.4h-2.7v10.7h2.7zM411.1 285.7l5.6-57.8h19.6l5.5 57.8h-11l-.8-9.3h-7l-.7 9.3h-11.2zm12.8-18.6h5.2l-2.6-29.4h-.5l-2.1 29.4zM445.3 227.9h15.9c4.1 0 7.2 1.1 9.3 3.4 2.1 2.3 3.1 5.7 3.2 10.2l.1 27c0 5.7-.9 10-3 12.8-2 2.9-5.4 4.3-10 4.3h-15.5v-57.7zm13.6 47.5c2.1 0 3.2-1 3.2-3.1v-29.8c0-1.3-.1-2.3-.3-2.9-.2-.6-.6-1.1-1.1-1.3-.5-.2-1.4-.3-2.5-.3h-1.3v37.5h2zM476.9 285.7l5.6-57.8H502l5.5 57.8h-11l-.8-9.3h-7l-.7 9.3h-11.1zm12.8-18.6h5.2l-2.6-29.4h-.5l-2.1 29.4zM513.4 282.3c-2.3-2.6-3.5-6.8-3.5-12.6v-5.6h11.4v7.2c0 2.9.9 4.3 2.8 4.3 1 0 1.7-.3 2.2-.9.4-.6.6-1.6.6-3.1 0-1.9-.2-3.4-.7-4.7-.4-1.2-1-2.3-1.7-3.1-.7-.8-1.9-2.1-3.7-3.9l-5-5c-3.9-3.8-5.8-7.9-5.8-12.5 0-4.9 1.1-8.7 3.4-11.3 2.3-2.6 5.6-3.9 9.9-3.9 5.2 0 8.9 1.4 11.2 4.1 2.3 2.8 3.4 7.1 3.4 12.9h-11.8l-.1-4c0-.8-.2-1.4-.6-1.8-.4-.4-1-.7-1.8-.7-.9 0-1.6.2-2 .7-.4.5-.7 1.2-.7 2 0 1.9 1.1 3.8 3.2 5.9l6.7 6.5c1.6 1.5 2.9 3 3.9 4.3 1 1.4 1.9 3 2.5 4.8.6 1.9.9 4.1.9 6.6 0 5.7-1 10-3.1 12.9-2.1 2.9-5.5 4.4-10.3 4.4-5.2.4-9-.9-11.3-3.5z"/></g><g><path class="st3" d="M5.9 99.7V26.1h14.7v61h15.1v12.5H5.9zM37.9 99.7L45 26.1h24.9l7 73.5h-14l-1-11.9H53l-.9 11.9H37.9zM54.1 76h6.7l-3.3-37.4h-.7L54.1 76zM107.7 99.7V40.3H99V26.1h32.2v14.1h-8.7v59.4h-14.8zM138.8 95.2c-2.9-3.4-4.4-8.5-4.4-15.2V26.1h14.3v53.2c0 2.3.2 4.2.7 5.5.5 1.3 1.4 2 2.9 2s2.5-.6 2.9-1.9c.5-1.3.7-3.1.7-5.5V26.1h14.3V80c0 6.7-1.5 11.8-4.4 15.2-2.9 3.4-7.4 5.1-13.5 5.1s-10.5-1.7-13.5-5.1zM175.8 26.1h22.6c3.6 0 6.4.8 8.3 2.4 2 1.6 3.3 3.9 4 6.8.7 2.9 1 6.7 1 11.3 0 4.2-.5 7.4-1.6 9.8-1.1 2.3-3 4-5.6 4.9 2.2.5 3.8 1.6 4.8 3.3 1 1.8 1.5 4.2 1.5 7.2l-.2 27.8h-14.4V70.9c0-2.1-.4-3.4-1.2-3.9-.8-.6-2.3-.9-4.4-.9v33.5h-14.9V26.1zm18.5 27.3c2.1 0 3.1-2.2 3.1-6.7 0-1.9-.1-3.4-.3-4.4-.2-1-.5-1.6-.9-2-.5-.4-1.1-.6-2-.6h-3.4v13.6h3.5zM216.7 26.1h19.9c5.4 0 9.3 1.3 11.7 3.9 2.4 2.6 3.6 6.9 3.6 12.8v3.3c0 7-2.5 11.2-7.5 12.6 3.1.8 5.2 2.7 6.5 5.6 1.3 2.9 1.9 6.8 1.9 11.6 0 7.8-1.2 13.7-3.5 17.8-2.3 4-6.6 6-12.7 6h-19.9V26.1zM234 53.8c1.3 0 2.1-.5 2.6-1.4.5-.9.7-2.3.7-4V41c0-2.4-1.1-3.6-3.2-3.6H231v16.3h3zm4.2 27.5v-9.2c0-2.2-.3-3.9-1-5s-1.8-1.7-3.5-1.7H231v21.3l1.5.1c3.8-.1 5.7-1.9 5.7-5.5zM261.7 94.9c-3.1-3.6-4.6-8.7-4.6-15.3v-35c0-6.3 1.5-11.1 4.6-14.3 3.1-3.2 7.6-4.8 13.5-4.8s10.4 1.6 13.5 4.8c3.1 3.2 4.6 8 4.6 14.3v35c0 6.6-1.5 11.7-4.6 15.3-3.1 3.6-7.6 5.4-13.5 5.4s-10.4-1.8-13.5-5.4zm16.1-9.8c.5-1.1.7-2.7.7-4.8V44.4c0-1.6-.2-2.9-.6-3.9-.4-1-1.3-1.5-2.6-1.5-2.5 0-3.7 1.9-3.7 5.6v35.9c0 2.1.3 3.7.8 4.8.5 1.1 1.5 1.6 2.8 1.6 1.3-.1 2.2-.7 2.6-1.8zM302.2 95.4c-3-3.3-4.5-8.6-4.5-16v-7.2h14.5v9.2c0 3.7 1.2 5.5 3.5 5.5 1.3 0 2.2-.4 2.7-1.2.5-.8.8-2.1.8-3.9 0-2.4-.3-4.4-.9-5.9-.6-1.6-1.3-2.9-2.2-3.9-.9-1.1-2.5-2.7-4.7-4.9l-6.3-6.3c-4.9-4.8-7.4-10.1-7.4-15.9 0-6.3 1.4-11.1 4.3-14.3 2.9-3.3 7.1-4.9 12.6-4.9 6.6 0 11.4 1.8 14.3 5.3 2.9 3.5 4.4 9 4.4 16.5h-15l-.1-5c0-1-.3-1.7-.8-2.3-.5-.6-1.3-.9-2.3-.9-1.1 0-2 .3-2.6.9-.6.6-.9 1.5-.9 2.6 0 2.4 1.4 4.9 4.1 7.4l8.6 8.2c2 1.9 3.7 3.8 5 5.5 1.3 1.7 2.4 3.8 3.2 6.2.8 2.4 1.2 5.2 1.2 8.4 0 7.2-1.3 12.7-4 16.5-2.7 3.7-7 5.6-13.1 5.6-6.6-.3-11.4-1.9-14.4-5.2zM342.7 94.9c-3.1-3.6-4.6-8.7-4.6-15.3v-35c0-6.3 1.5-11.1 4.6-14.3 3.1-3.2 7.6-4.8 13.5-4.8s10.4 1.6 13.5 4.8c3.1 3.2 4.6 8 4.6 14.3v35c0 6.6-1.5 11.7-4.6 15.3-3.1 3.6-7.6 5.4-13.5 5.4s-10.4-1.8-13.5-5.4zm16.2-9.8c.5-1.1.7-2.7.7-4.8V44.4c0-1.6-.2-2.9-.6-3.9-.4-1-1.3-1.5-2.6-1.5-2.5 0-3.7 1.9-3.7 5.6v35.9c0 2.1.3 3.7.8 4.8.5 1.1 1.5 1.6 2.8 1.6 1.3-.1 2.1-.7 2.6-1.8zM380.3 99.7V26.1h15.1l6.8 35.2V26.1h14.2v73.5H402l-7.4-36.8v36.8h-14.3zM426.9 94.9c-3.1-3.6-4.6-8.7-4.6-15.3v-35c0-6.3 1.5-11.1 4.6-14.3 3.1-3.2 7.6-4.8 13.5-4.8s10.4 1.6 13.5 4.8c3.1 3.2 4.6 8 4.6 14.3v35c0 6.6-1.5 11.7-4.6 15.3-3.1 3.6-7.6 5.4-13.5 5.4s-10.4-1.8-13.5-5.4zm16.2-9.8c.5-1.1.7-2.7.7-4.8V44.4c0-1.6-.2-2.9-.6-3.9-.4-1-1.3-1.5-2.6-1.5-2.5 0-3.7 1.9-3.7 5.6v35.9c0 2.1.3 3.7.8 4.8.5 1.1 1.5 1.6 2.8 1.6 1.3-.1 2.2-.7 2.6-1.8zM464.5 26.1h22.6c3.6 0 6.4.8 8.3 2.4 2 1.6 3.3 3.9 4 6.8.7 2.9 1 6.7 1 11.3 0 4.2-.5 7.4-1.6 9.8-1.1 2.3-3 4-5.6 4.9 2.2.5 3.8 1.6 4.8 3.3 1 1.8 1.5 4.2 1.5 7.2l-.2 27.8H485V70.9c0-2.1-.4-3.4-1.2-3.9-.8-.6-2.3-.9-4.4-.9v33.5h-14.9V26.1zM483 53.4c2.1 0 3.1-2.2 3.1-6.7 0-1.9-.1-3.4-.3-4.4-.2-1-.5-1.6-.9-2-.5-.4-1.1-.6-2-.6h-3.4v13.6h3.5zM503.4 99.7l7.1-73.5h24.9l7 73.5h-14l-1-11.9h-8.9l-.9 11.9h-14.2zM519.6 76h6.7L523 38.6h-.7L519.6 76z"/></g><g><path class="st1" d="M233.7 198.5l14.9-64.4h13.3l-15 64.4h-13.2z"/></g><path class="st1" d="M2.6 113.9h536.9v7.1H2.6zM2.6.5h536.9v7.1H2.6zM2.6 209.3h536.9v7.1H2.6zM2.6 297.1h536.9v7.1H2.6z"/></svg>