<svg xmlns="http://www.w3.org/2000/svg" width="830.1" height="210.5"><style>.st0{fill:none;stroke:#3f8bbe;stroke-miterlimit:10}.st1{fill:#3f8bbe}</style><path class="st0" d="M39.6 147c0-10.7-3.5-15.4-19.9-36.4C7 94.2.5 82.2.5 64.8V34.1C.5 11.4 11.5.5 33.6.5c23.2 0 32.1 11 32.1 33.6v37.6H40.8V34.1c0-4.5-2-6.5-6.5-6.5s-6.5 2-6.5 6.5v30.4c0 10.5 4.5 14.9 19.7 34.9 14.5 19.2 19 29.6 19 47.3v29.4c0 21.4-9.7 33.9-32.9 33.9C10.7 210 .5 197.5.5 176.1v-43.6h25.9v43.6c0 4.5 2.2 6.7 6.5 6.7 4.5 0 6.7-2.2 6.7-6.7V147zM129.3 207.7c-15.9-66.5-18.9-83.2-21.9-97.6.7 14.4.7 30.6.7 53.3v44.3H80.9V2.7H108v40.8c0 22.7 0 33.6-.7 45.1 2.2-11.2 5.2-24.9 21.4-85.9h28.9l-27.1 91.4 29.6 113.6h-30.8zM169.4 207.7V2.7h27.1v205h-27.1z"/><path class="st1" d="M284.4 147c0-10.7-3.5-15.4-19.9-36.4-12.7-16.4-19.2-28.4-19.2-45.8V34.1c0-22.7 11-33.6 33.1-33.6 23.2 0 32.1 11 32.1 33.6v37.6h-24.9V34.1c0-4.5-2-6.5-6.5-6.5s-6.5 2-6.5 6.5v30.4c0 10.5 4.5 14.9 19.7 34.9 14.4 19.2 18.9 29.6 18.9 47.3v29.4c0 21.4-9.7 33.9-32.9 33.9-22.9 0-33.1-12.5-33.1-33.9v-43.6h25.9v43.6c0 4.5 2.2 6.7 6.5 6.7 4.5 0 6.7-2.2 6.7-6.7V147zM325.8 207.7V2.7h56.3v27.1H353v59.8h18.4v27.1H353v63.8h30.4v27.1h-57.6zM432.6 147c0-10.7-3.5-15.4-19.9-36.4-12.7-16.4-19.2-28.4-19.2-45.8V34.1c0-22.7 11-33.6 33.1-33.6 23.2 0 32.1 11 32.1 33.6v37.6h-24.9V34.1c0-4.5-2-6.5-6.5-6.5s-6.5 2-6.5 6.5v30.4c0 10.5 4.5 14.9 19.7 34.9 14.4 19.2 18.9 29.6 18.9 47.3v29.4c0 21.4-9.7 33.9-32.9 33.9-22.9 0-33.1-12.5-33.1-33.9v-43.6h25.9v43.6c0 4.5 2.2 6.7 6.5 6.7 4.5 0 6.7-2.2 6.7-6.7V147zM510.6 147c0-10.7-3.5-15.4-19.9-36.4-12.7-16.4-19.2-28.4-19.2-45.8V34.1c0-22.7 11-33.6 33.1-33.6 23.2 0 32.1 11 32.1 33.6v37.6h-24.9V34.1c0-4.5-2-6.5-6.5-6.5s-6.5 2-6.5 6.5v30.4c0 10.5 4.5 14.9 19.7 34.9 14.4 19.2 18.9 29.6 18.9 47.3v29.4c0 21.4-9.7 33.9-32.9 33.9-22.9 0-33.1-12.5-33.1-33.9v-43.6h25.9v43.6c0 4.5 2.2 6.7 6.5 6.7 4.5 0 6.7-2.2 6.7-6.7V147zM552.4 207.7V2.7h27.1v205h-27.1zM595.5 35.4c0-22.7 11-34.9 33.4-34.9s33.4 12.2 33.4 34.9v139.7c0 22.7-11 34.9-33.4 34.9s-33.4-12.2-33.4-34.9V35.4zm39.6 0c0-5.2-2-7.7-6.2-7.7-4 0-6.2 2.5-6.2 7.7v139.7c0 5.2 2.2 7.7 6.2 7.7 4.2 0 6.2-2.5 6.2-7.7V35.4zM724.3 207.7c-16.7-79.2-21.2-102.6-25.2-125.5.7 24.2.7 48.3.7 72.7v52.8h-22.7V2.7h31.1C722 89.4 725 109.8 728.3 131c-.7-21.7-.7-43.1-.7-64.3v-64h22.7v205h-26zM803.2 147c0-10.7-3.5-15.4-19.9-36.4-12.7-16.4-19.2-28.4-19.2-45.8V34.1c0-22.7 11-33.6 33.1-33.6 23.2 0 32.1 11 32.1 33.6v37.6h-24.9V34.1c0-4.5-2-6.5-6.5-6.5s-6.5 2-6.5 6.5v30.4c0 10.5 4.5 14.9 19.7 34.9 14.4 19.2 18.9 29.6 18.9 47.3v29.4c0 21.4-9.7 33.9-32.9 33.9-22.9 0-33.1-12.5-33.1-33.9v-43.6h26v43.6c0 4.5 2.2 6.7 6.5 6.7 4.5 0 6.7-2.2 6.7-6.7V147z"/></svg>