<svg xmlns="http://www.w3.org/2000/svg" width="486.2" height="205"><style>.st0{fill:#3f8bbe}</style><path class="st0" d="M75 205C65.5 102.9 64.3 87.9 63.8 73c-.7 14.9-2 29.9-12.5 132H19.7L0 0h28.4c7.5 107.6 8.7 125.3 9.7 143 1.2-17.7 3-35.4 14.4-143h24.2c9.7 107.6 11.2 125.3 12.5 143 .7-17.7 2.2-35.4 11.7-143h28.4l-22.9 205H75zM140.5 205V0h27.1v205h-27.1zM231.6 205c-16.7-79.2-21.2-102.6-25.2-125.5.7 24.2.7 48.3.7 72.7V205h-22.7V0h31.1c13.7 86.7 16.7 107.1 19.9 128.3-.7-21.7-.7-43.1-.7-64.3V0h22.7v205h-25.8zM287.7 205V27.1h-19.9V0h66.8v27.1h-19.7V205h-27.2zM345.2 205V0h56.3v27.1h-29.1v59.8h18.4V114h-18.4v63.8h30.4V205h-57.6zM456.5 205c-2.7-30.4-5.5-61-9.5-91.4h-4.5V205h-27.1V0h32.4c24.4 0 36.6 10 36.6 36.9v42.3c0 15.7-3.5 23.9-11.7 28.9 5.2 32.4 9.5 65 13.4 96.9h-29.6zm.5-168.1c0-6.5-3-9.7-9.2-9.7h-5.2V89h5.5c6 0 9-3.2 9-9.5V36.9z"/></svg>