<svg xmlns="http://www.w3.org/2000/svg" width="305.1" height="69.5" viewBox="0 0 305.1 69.5">
  <path d="M18.4 68.3l-11.7-33v33H.5V1.2h6.2v28.9L18 1.2h6.7L12 31.8l13.5 36.5h-7.1zm13.8 0V1.2H50v6.3H38.4v23.6h8.1v6.2h-8.1v24.9h12v6.1H32.2zm26.2 0V1.2h6.2v67.1h-6.2zm21.1 0V7.5H72V1.2h21.1v6.3h-7.5v60.8h-6.1zm35.6 0v-31h-8.6v31.1h-6.2V1.2h6.2v29.9h8.6V1.2h6.2v67.1h-6.2zm44.6 0v-31h-8.6v31.1h-6.2V1.2h6.2v29.9h8.6V1.2h6.2v67.1h-6.2zm32.5 0l-1.5-11.2h-10l-1.5 11.2h-6l9.2-67.1h7.3l8.7 67.1h-6.2zM185.8 17c-1.4 11.6-2.9 23-4.4 34.4h8.6c-1.4-11.5-2.9-22.9-4.2-34.4zm35.7 51.3c-1.4-10.3-2.9-20.4-4.7-30.5-.5.1-1 .1-1.5.1H212v30.4h-6.2V1.2H216c7.7 0 11.7 3.3 11.7 12.1v13.4c0 4.9-1.6 8.2-5 9.9 2.2 10.6 4 21.4 5.6 31.8h-6.8zm-.2-54.2c0-4.7-1.1-6.6-5.4-6.6h-4v24.8h4.1c3.8 0 5.3-1.7 5.3-5.5V14.1zm14.9 54.2V1.2h6.2v67.1h-6.2zm32.3 0l-11.6-49c.1 9.9.1 19.8.1 29.7v19.2h-5.4v-67h7.4l10.3 49.1c-.1-9.1-.1-18.2-.1-27.1v-22h5.5v67.1h-6.2zm35.1.4l-2-3.7c-1.3 2.6-4.5 4-8.1 4-5.8 0-10.1-2.9-10.1-11.4V12C283.4 4.7 287 .5 294 .5c7.2 0 10.2 4.2 10.2 11.5v11.8h-5.5V12c0-3.4-1.3-5.2-4.6-5.2-3.2 0-4.4 1.8-4.4 5.2v45.6c0 3.5 1.9 5.3 4.3 5.3 2.9 0 4.6-1.7 4.8-4.8V42.9h-5.1V37h11.1v31.7h-1.2z" fill="#f14e1d" stroke="#f25430" stroke-miterlimit="10"/>
</svg>