<svg xmlns="http://www.w3.org/2000/svg" width="798.7" height="752.2" viewBox="0 0 798.7 752.2">
  <style>
    .st0{fill:#3f8bbe}
  </style>
  <path class="st0" d="M208.1 590.8c-1.7-19.2-3.5-38.5-6-57.7h-2.8v57.7h-17.1V461.5h20.4c15.4 0 23.1 6.3 23.1 23.3v26.7c0 9.9-2.2 15.1-7.4 18.2 3.3 20.4 6 41 8.5 61.1h-18.7zm.3-106.1c0-4.1-1.9-6.1-5.8-6.1h-3.3v39h3.5c3.8 0 5.7-2 5.7-6v-26.9z"/>
  <path class="st0" d="M234.5 590.8V461.5H270v17.1h-18.4v37.7h11.6v17.1h-11.6v40.2h19.2v17.1h-36.3z"/>
  <path class="st0" d="M308.1 590.8l-1.9-18.4h-12.6l-2.2 18.4h-16.5l15.7-129.3h19.8l14.8 129.3h-17.1zm-3.8-34c-1.6-16.8-3.1-33.9-4.4-51.5-1.3 17.6-2.8 34.7-4.7 51.5h9.1z"/>
  <path class="st0" d="M354.9 543.3h15.6V570c0 15.1-5.8 22.2-19.5 22.2-14 0-21.4-7.1-21.4-21.8v-88c0-14.9 7.4-22.3 21.4-22.3 13 0 19.5 7.1 19.5 22V505h-15.6v-23c0-3.3-1.3-4.9-3.9-4.9-2.5 0-3.9 1.6-3.9 4.9v88.2c0 3.3 1.4 4.9 3.9 4.9 2.7 0 3.9-1.6 3.9-4.9v-26.9z"/>
  <path class="st0" d="M404.4 590.8v-57.4h-7.9v57.4h-17.1V461.5h17.1v54.8h7.9v-54.8h17v129.3h-17z"/>
  <path class="st0" d="M482.7 590.8l-1.9-18.4h-12.6l-2.2 18.4h-16.5l15.7-129.3H485l14.8 129.3h-17.1zm-3.8-34c-1.6-16.8-3.1-33.9-4.4-51.5-1.3 17.6-2.8 34.7-4.7 51.5h9.1z"/>
  <path class="st0" d="M536.1 590.8c-10.5-50-13.4-64.7-15.9-79.2.5 15.2.5 30.5.5 45.9v33.3h-14.3V461.5H526c8.6 54.7 10.5 67.6 12.6 80.9-.5-13.7-.5-27.2-.5-40.5v-40.4h14.3v129.3h-16.3z"/>
  <path class="st0" d="M561.9 482c0-14.3 6.9-22 21.1-22s21.1 7.7 21.1 22v88.2c0 14.3-6.9 22-21.1 22s-21.1-7.7-21.1-22V482zm25 0c0-3.3-1.3-4.9-3.9-4.9-2.5 0-3.9 1.6-3.9 4.9v88.2c0 3.3 1.4 4.9 3.9 4.9 2.7 0 3.9-1.6 3.9-4.9V482z"/>
  <path class="st0" d="M620.8 590.8V478.6h-12.6v-17.1h42.1v17.1h-12.4v112.2h-17.1z"/>
  <path class="st0" d="M682.1 590.8v-57.4h-7.9v57.4h-17.1V461.5h17.1v54.8h7.9v-54.8h17v129.3h-17z"/>
  <path class="st0" d="M709.7 590.8V461.5h35.5v17.1h-18.4v37.7h11.6v17.1h-11.6v40.2H746v17.1h-36.3z"/>
  <path class="st0" d="M780 590.8c-1.7-19.2-3.5-38.5-6-57.7h-2.8v57.7h-17.1V461.5h20.4c15.4 0 23.1 6.3 23.1 23.3v26.7c0 9.9-2.2 15.1-7.4 18.2 3.3 20.4 6 41 8.5 61.1H780zm.3-106.1c0-4.1-1.9-6.1-5.8-6.1h-3.3v39h3.5c3.8 0 5.7-2 5.7-6v-26.9z"/>
  <g>
    <path class="st0" d="M1.6 130.7V1.4h20.9c14 0 21.1 8.3 21.1 22.2v85.2c0 14.9-7.1 22-21.1 22H1.6zm25-107.3c0-3.1-1.4-4.9-4.1-4.9h-3.8v95.1h3.8c2.7 0 4.1-1.7 4.1-4.9V23.4z"/>
    <path class="st0" d="M80.9 130.7L79 112.4H66.5l-2.2 18.4H47.8L63.5 1.4h19.8l14.8 129.3H80.9zm-3.7-33.9C75.6 80 74 62.9 72.8 45.3 71.5 62.9 69.9 80 68 96.8h9.2z"/>
    <path class="st0" d="M134.4 130.7c-10.5-50-13.4-64.7-15.9-79.2.5 15.3.5 30.5.5 45.9v33.3h-14.3V1.4h19.6c8.6 54.7 10.5 67.6 12.6 80.9-.5-13.7-.5-27.2-.5-40.5V1.4h14.3v129.3h-16.3z"/>
    <path class="st0" d="M185.4 83.3H201V110c0 15.1-5.8 22.2-19.5 22.2-14 0-21.4-7.1-21.4-21.8v-88c0-14.9 7.4-22.3 21.4-22.3 13 0 19.5 7.1 19.5 22V45h-15.6V22c0-3.3-1.3-4.9-3.9-4.9-2.5 0-3.9 1.6-3.9 4.9v88.2c0 3.3 1.4 4.9 3.9 4.9 2.7 0 3.9-1.6 3.9-4.9V83.3z"/>
    <path class="st0" d="M210.3 130.7V1.4h17.1v129.3h-17.1z"/>
    <path class="st0" d="M267.8 130.7c-10.5-50-13.4-64.7-15.9-79.2.5 15.2.5 30.5.5 45.9v33.3h-14.3V1.4h19.6c8.6 54.7 10.5 67.6 12.6 80.9-.5-13.7-.5-27.2-.5-40.5V1.4h14.3v129.3h-16.3z"/>
    <path class="st0" d="M334.3 131.5l-5.5-5.2c-3.3 4.4-9.4 5.8-15.2 5.8-11.3 0-20-5.7-20-22v-88c0-14.1 7-22.1 21.2-22.1S335 8 335 22.2V45h-15.4V22c0-3.3-1.7-4.9-4.9-4.9-2.7 0-4.1 1.6-4.1 4.9v88.2c0 3.3 1.4 4.9 3.9 4.9 3.1 0 4.9-1.6 4.9-4.9V84.9H314V68.5h22v63h-1.7z"/>
    <path class="st0" d="M410.3 130.7c-6-64.4-6.8-73.9-7.1-83.3-.5 9.4-1.3 18.9-7.9 83.3h-20L363 1.4h17.9c4.7 67.9 5.5 79 6.1 90.2.8-11.2 1.9-22.3 9.1-90.2h15.2c6.1 67.9 7.1 79 7.9 90.2.5-11.2 1.4-22.3 7.4-90.2h17.9L430 130.7h-19.7z"/>
    <path class="st0" d="M476.2 130.7l-1.9-18.4h-12.6l-2.2 18.4H443L458.7 1.4h19.8l14.8 129.3h-17.1zm-3.8-33.9c-1.6-16.8-3.1-33.9-4.4-51.5-1.3 17.6-2.8 34.7-4.7 51.5h9.1z"/>
    <path class="st0" d="M521.7 92.4c0-6.8-2.2-9.7-12.6-22.9-8-10.4-12.1-17.9-12.1-28.9V21.2C497.1 6.9 504 0 518 0c14.6 0 20.3 6.9 20.3 21.2v23.7h-15.7V21.2c0-2.8-1.3-4.1-4.1-4.1s-4.1 1.3-4.1 4.1v19.2c0 6.6 2.8 9.4 12.4 22 9.1 12.1 11.9 18.7 11.9 29.9v18.5c0 13.5-6.1 21.4-20.7 21.4-14.5 0-20.9-7.9-20.9-21.4V83.3h16.3v27.5c0 2.8 1.4 4.2 4.1 4.2 2.8 0 4.2-1.4 4.2-4.2V92.4z"/>
    <path class="st0" d="M27.5 285.8c-1.7-19.2-3.5-38.5-6-57.7h-2.8v57.7H1.6V156.4H22c15.4 0 23.1 6.3 23.1 23.3v26.7c0 9.9-2.2 15.1-7.4 18.2 3.3 20.4 6 41 8.5 61.1H27.5zm.3-106.1c0-4.1-1.9-6.1-5.8-6.1h-3.3v39h3.5c3.8 0 5.7-2 5.7-6v-26.9z"/>
    <path class="st0" d="M53.9 285.8V156.4h35.5v17.1H71v37.7h11.6v17.1H71v40.2h19.2v17.1H53.9z"/>
    <path class="st0" d="M127.4 285.8l-1.9-18.4H113l-2.2 18.4H94.3L110 156.4h19.8l14.8 129.3h-17.2zm-3.7-34c-1.6-16.8-3.1-33.9-4.4-51.5-1.3 17.6-2.8 34.7-4.7 51.5h9.1z"/>
    <path class="st0" d="M151.5 285.8V156.4h17.1v112.2h19.2v17.1h-36.3z"/>
    <path class="st0" d="M194.5 285.8V156.4h17.1v112.2h19.2v17.1h-36.3z"/>
    <path class="st0" d="M243.4 285.8v-55.2l-16.5-74.2H245c5.3 31.9 6.8 40.4 7.9 49 1.3-8.6 2.7-17.3 8.3-49h16.7l-17.1 74.2v55.2h-17.4z"/>
    <path class="st0" d="M305.5 285.8V156.4h20.9c14 0 21.1 8.3 21.1 22.2v85.2c0 14.9-7.1 22-21.1 22h-20.9zm25-107.4c0-3.1-1.4-4.9-4.1-4.9h-3.8v95.1h3.8c2.7 0 4.1-1.7 4.1-4.9v-85.3z"/>
    <path class="st0" d="M384.9 285.8l-1.9-18.4h-12.6l-2.2 18.4h-16.5l15.7-129.3h19.8L402 285.8h-17.1zm-3.8-34c-1.6-16.8-3.1-33.9-4.4-51.5-1.3 17.6-2.8 34.7-4.7 51.5h9.1z"/>
    <path class="st0" d="M438.3 285.8c-10.5-50-13.4-64.7-15.9-79.2.5 15.2.5 30.5.5 45.9v33.3h-14.3V156.4h19.6c8.6 54.7 10.5 67.6 12.6 80.9-.5-13.7-.5-27.2-.5-40.5v-40.4h14.3v129.3h-16.3z"/>
    <path class="st0" d="M489.4 238.3H505V265c0 15.1-5.8 22.2-19.5 22.2-14 0-21.4-7.1-21.4-21.8v-88c0-14.9 7.4-22.3 21.4-22.3 13 0 19.5 7.1 19.5 22V200h-15.6v-23c0-3.3-1.3-4.9-3.9-4.9-2.5 0-3.9 1.6-3.9 4.9v88.2c0 3.3 1.4 4.9 3.9 4.9 2.7 0 3.9-1.6 3.9-4.9v-26.9z"/>
    <path class="st0" d="M514.2 285.8V156.4h17.1v129.3h-17.1z"/>
    <path class="st0" d="M571.7 285.8c-10.5-50-13.4-64.7-15.9-79.2.5 15.2.5 30.5.5 45.9v33.3H542V156.4h19.6c8.6 54.7 10.5 67.6 12.6 80.9-.5-13.7-.5-27.2-.5-40.5v-40.4H588v129.3h-16.3z"/>
    <path class="st0" d="M638.2 286.6l-5.5-5.2c-3.3 4.4-9.4 5.8-15.2 5.8-11.3 0-20-5.7-20-22v-88c0-14.1 7.1-22.2 21.2-22.2s20.3 8 20.3 22.2V200h-15.4v-23c0-3.3-1.7-4.9-4.9-4.9-2.7 0-4.1 1.6-4.1 4.9v88.2c0 3.3 1.4 4.9 3.9 4.9 3.1 0 4.9-1.6 4.9-4.9v-25.3h-5.5v-16.3h22v63h-1.7z"/>
    <path class="st0" d="M1.9 440.8V311.5H19v129.3H1.9z"/>
    <path class="st0" d="M59.4 440.8c-10.5-50-13.4-64.7-15.9-79.2.5 15.2.5 30.5.5 45.9v33.3H29.7V311.5h19.6c8.6 54.7 10.5 67.6 12.6 80.9-.5-13.7-.5-27.2-.5-40.5v-40.4h14.3v129.3H59.4z"/>
    <path class="st0" d="M136.7 440.8l-1.9-18.4h-12.6l-2.2 18.4h-16.5l15.7-129.3H139l14.8 129.3h-17.1zm-3.8-34c-1.6-16.8-3.1-33.9-4.4-51.5-1.3 17.6-2.8 34.7-4.7 51.5h9.1z"/>
    <path class="st0" d="M225.5 440.8c-6-64.4-6.8-73.9-7.1-83.3-.5 9.4-1.3 18.9-7.9 83.3h-20l-12.4-129.3H196c4.7 67.9 5.5 79 6.1 90.2.8-11.2 1.9-22.3 9.1-90.2h15.2c6.1 67.9 7.1 79 7.9 90.2.5-11.2 1.4-22.3 7.4-90.2h17.9l-14.5 129.3h-19.6z"/>
    <path class="st0" d="M291.3 440.8l-1.9-18.4h-12.6l-2.2 18.4h-16.5l15.7-129.3h19.8l14.8 129.3h-17.1zm-3.7-34c-1.6-16.8-3.1-33.9-4.4-51.5-1.3 17.6-2.8 34.7-4.7 51.5h9.1z"/>
    <path class="st0" d="M321.2 440.8v-55.2l-16.5-74.2h18.1c5.3 31.9 6.8 40.4 7.9 49 1.3-8.6 2.7-17.3 8.3-49h16.7l-17.1 74.2v55.2h-17.4z"/>
    <path class="st0" d="M391.9 440.8V328.6h-12.6v-17.1h42.1v17.1H409v112.2h-17.1z"/>
    <path class="st0" d="M425.7 332c0-14.3 6.9-22 21.1-22s21.1 7.7 21.1 22v88.2c0 14.3-6.9 22-21.1 22s-21.1-7.7-21.1-22V332zm25 0c0-3.3-1.3-4.9-3.9-4.9-2.5 0-3.9 1.6-3.9 4.9v88.2c0 3.3 1.4 4.9 3.9 4.9 2.7 0 3.9-1.6 3.9-4.9V332z"/>
    <path class="st0" d="M24.7 712.5c0-6.8-2.2-9.7-12.6-22.9-8-10.4-12.1-18-12.1-29v-19.3c0-14.3 6.9-21.2 20.9-21.2 14.6 0 20.3 6.9 20.3 21.2V665H25.5v-23.7c0-2.8-1.3-4.1-4.1-4.1s-4.1 1.3-4.1 4.1v19.2c0 6.6 2.8 9.4 12.4 22 9.1 12.1 11.9 18.7 11.9 29.9v18.5c0 13.5-6.1 21.4-20.7 21.4C6.4 752.2 0 744.4 0 730.9v-27.5h16.3v27.5c0 2.8 1.4 4.2 4.1 4.2 2.8 0 4.2-1.4 4.2-4.2v-18.4z"/>
    <path class="st0" d="M57.8 750.8V638.6H45.3v-17.1h42.1v17.1H75v112.2H57.8z"/>
    <path class="st0" d="M118.6 750.8l-1.9-18.4h-12.6l-2.2 18.4H85.5l15.7-129.3H121l14.8 129.3h-17.2zm-3.7-33.9c-1.6-16.8-3.1-33.9-4.4-51.5-1.3 17.6-2.8 34.7-4.7 51.5h9.1z"/>
    <path class="st0" d="M146.5 750.8V638.6h-12.6v-17.1H176v17.1h-12.4v112.2h-17.1z"/>
    <path class="st0" d="M182.8 750.8V621.5h35.5v17.1h-18.4v37.7h11.6v17.1h-11.6v40.2h19.2v17.1h-36.3z"/>
    <path class="st0" d="M247.5 642.1c0-14.3 6.9-22 21.1-22s21.1 7.7 21.1 22v88.2c0 14.3-6.9 22-21.1 22s-21.1-7.7-21.1-22v-88.2zm25 0c0-3.3-1.3-4.9-3.9-4.9-2.5 0-3.9 1.6-3.9 4.9v88.2c0 3.3 1.4 4.9 3.9 4.9 2.7 0 3.9-1.6 3.9-4.9v-88.2z"/>
    <path class="st0" d="M299.4 750.8V621.5h36.3v17.1h-19.2V677h11.8v17.1h-11.8v56.7h-17.1z"/>
    <path class="st0" d="M409.5 750.8v-36.5c0-15.1.3-30.3.9-45.4-1.4 14.9-3.3 30.2-9.3 81.9h-14.5l-9-81.9c.6 15.1.9 30.5.9 45.6v36.3h-15.6V621.5h22.6c6.4 69.6 7.5 80 8 90 .8-10.1 1.7-20.7 8.3-90h22.9v129.3h-15.2z"/>
    <path class="st0" d="M435.8 750.8V621.5h17.1v129.3h-17.1z"/>
    <path class="st0" d="M493.3 750.8c-10.5-50-13.4-64.7-15.9-79.2.5 15.2.5 30.5.5 45.9v33.3h-14.3V621.5h19.6c8.6 54.7 10.5 67.6 12.6 80.9-.5-13.7-.5-27.2-.5-40.5v-40.4h14.3v129.3h-16.3z"/>
    <path class="st0" d="M520 750.8V621.5h20.9c14 0 21.1 8.3 21.1 22.2v85.2c0 14.9-7.1 22-21.1 22H520zm25-107.3c0-3.1-1.4-4.9-4.1-4.9h-3.8v95.1h3.8c2.7 0 4.1-1.7 4.1-4.9v-85.3z"/>
    <path class="st0" d="M570.8 750.8v-19.6h15.9v19.6h-15.9z"/>
  </g>
</svg>