<svg xmlns="http://www.w3.org/2000/svg" width="1207.9" height="201.9" viewBox="0 0 1207.9 201.9">
  <style>
    .st0{fill:#f25430}
  </style>
  <path class="st0" d="M.9 198.9h33c.5 0 .9-.4.9-.9v-83.3h28.8c.5 0 .9-.4.9-.9V79.6H34.7V36.5h39.5c.5 0 .9-.4.9-.9V3.1c0-.5-.4-.9-.9-.9H.9c-.5.1-.9.4-.9.9V198c0 .6.4.9.9.9"/>
  <path class="st0" d="M118.4 114.7h29.3c.5 0 .9-.4.9-.9V80.5c0-.5-.4-.9-.9-.9h-29.4V36.5h38.2c.5 0 .9-.4.9-.9V3.2c0-.5-.4-.9-.9-.9h-72c-.5 0-.9.4-.9.9v194.9c0 .5.4.9.9.9h73.4c.5 0 .9-.4.9-.9v-33.4c0-.5-.4-.9-.9-.9h-39.5v-49.1z"/>
  <path class="st0" d="M301.4 114.7h29.4c.5 0 .9-.4.9-.9V80.5c0-.5-.4-.9-.9-.9h-29.4V36.5h38.2c.5 0 .9-.4.9-.9V3.1c0-.5-.4-.9-.9-.9h-72c-.5 0-.9.4-.9.9V198c0 .5.4.9.9.9H341c.5 0 .9-.4.9-.9v-33.4c0-.5-.4-.9-.9-.9h-39.6v-49z"/>
  <path class="st0" d="M216.1 2.3h-47.8c-.5 0-.9.4-.9.9v194.9c0 .5.4.9.9.9h47.2c21.7 0 39.3-6.8 39.3-40.8V38.3c0-2 2.8-36-38.7-36m-4.8 163.9c-4.1 0-6.9-.1-8.3-.1-.5 0-.8-.4-.8-.9V34.1c0-.5.4-.9.9-.9h8.6s7.9-.2 7.9 12.6v108.9c.1.1.2 11.5-8.3 11.5"/>
  <g>
    <path class="st0" d="M1012.4 114.6h29.4c.5 0 .9-.4.9-.9V80.3c0-.5-.4-.9-.9-.9h-29.4V36.3h38.2c.5 0 .9-.4.9-.9V3c0-.5-.4-.9-.9-.9h-72c-.5 0-.9.4-.9.9v195c0 .5.4.9.9.9h73.4c.5 0 .9-.4.9-.9v-33.5c0-.5-.4-.9-.9-.9h-39.6v-49z"/>
    <path class="st0" d="M427.6 38.2s-.5-8.6 7.7-8.6 7.9 7.6 7.9 9c0 1.2-.1 20.6-.1 25 0 .5.4.9.9.9h32c.5 0 .9-.4.9-.9V44.3c0-9.7 4.3-44.3-36.8-44.3H431c-21.1 0-38.5 12.4-38.5 34.4v17.3c0 48.3 50.3 63.1 50.2 91.2v15s.3 10.8-8.5 10.8c-8.7 0-9.6-8.8-9.6-11v-31.4c0-.5-.4-.9-.9-.9h-32.5c-.5 0-.9.4-.9.9v33.9c0 15.5 4.4 40.9 41.2 40.9h7.7c19.6 0 41.1-11.3 41.1-48.3v-11.9c0-46.4-52.6-64.8-52.6-93.2v-9.5z"/>
    <path class="st0" d="M540.5 0h-13C508.9 0 488 10.6 488 40.4v120.3c0 20 8.6 41.3 40.8 41.3h8.1c15.2 0 39.6-8.2 39.6-40.8v-49h-34.3v46.3s-.1 9.1-8.9 9.1c-8.7 0-9.1-8.9-9.1-10.3V41.4s0-8.7 9.1-8.7 8.6 9.3 8.6 9.3v34.2h34.6v-38S577.8 0 540.5 0"/>
    <path class="st0" d="M640.8 77.4h-19.2V3c0-.5-.4-.9-.9-.9h-33c-.5 0-.9.4-.9.9v195c0 .5.4.9.9.9h33.1c.5 0 .9-.4.9-.9v-82.1h19.1V198c0 .5.4.9.9.9h33c.5 0 .9-.4.9-.9V3c0-.5-.4-.9-.9-.9h-32.9c-.5 0-.9.4-.9.9v74.4z"/>
    <path class="st0" d="M803.4 2.9l-25.2 195c-.1.5.3 1 .9 1h30.7c.4 0 .8-.3.9-.8l3.4-32.6h21.4l3.5 32.6c0 .4.4.8.9.8h30.7c.5 0 .9-.5.9-1L846 2.9c-.1-.4-.4-.7-.9-.7h-40.9c-.4-.1-.8.2-.8.7m14.1 129.2l6.9-65.8c0-.2.4-.2.4 0l7.2 65.8h-14.5z"/>
    <path class="st0" d="M920.8 112.7h12v43.4s.4 11.6-10.2 11.6-10.1-12-10.1-12V41.8s-.1-9.4 9.3-9.4 9 10.2 9 10.2l.1 23.5c0 .5.4.8.8.8h32.4c.5 0 .8-.4.8-.8V44.3C965 28.6 960.8 0 929 0h-15.1c-11.5 0-37.6 7.4-37.6 43.7v123.1s1.5 34.8 32.2 34.8c24.9 0 31.5-21.8 31.5-21.8l5.1 18.5c.1.4.4.6.8.6h19.9c.5 0 .8-.4.8-.8V80.6c0-.5-.4-.8-.8-.8h-45c-.5 0-.8.4-.8.8v31.3c0 .5.4.8.8.8"/>
    <path class="st0" d="M1115.6 2.1h-54.3c-.5 0-.9.4-.9.9v195c0 .5.4.9.9.9h32.9c.5 0 .9-.4.9-.9v-83.2h8.7s8.6-.3 8.6 8.5V198c0 .5.4.9.9.9h33.4c.5 0 .9-.4.9-.9v-80.7c0-5 .2-17.1-15.2-24.5 0 0 15.5-5.8 15.5-24V34.3s3-32.2-32.3-32.2m-3.2 38.3v33.1c0 9.5-9.6 8.9-9.6 8.9h-6.9c-.5 0-.9-.4-.9-.9V33.1c0-.5.4-.9.9-.9h8.7c8.3 0 7.8 8.2 7.8 8.2"/>
    <path class="st0" d="M743 2.1h-54.3c-.5 0-.9.4-.9.9v195c0 .5.4.9.9.9h32.9c.5 0 .9-.4.9-.9v-83.2h8.7s8.6-.3 8.6 8.5V198c0 .5.4.9.9.9H774c.5 0 .9-.4.9-.9v-80.7c0-5 .2-17.1-15.2-24.5 0 0 15.5-5.8 15.5-24V34.3S778.3 2.1 743 2.1m-3.2 38.3v33.1c0 9.5-9.6 8.9-9.6 8.9h-6.9c-.5 0-.9-.4-.9-.9V33.1c0-.5.4-.9.9-.9h8.7c8.2 0 7.8 8.2 7.8 8.2"/>
  </g>
  <g>
    <path class="st0" d="M1164.7 5.7c0-.4.4-.8.8-.8h10.6c6.4 0 8.3 3.6 8.3 9.4V44c0 6-2.2 9.7-8.3 9.7h-10.6c-.4 0-.8-.4-.8-.8V5.7zm7.4 40.9h1.8c2.3 0 2.9-1.2 2.9-3.8V15.4c0-2.8-.7-3.8-2.6-3.8h-2.1v35z"/>
    <path class="st0" d="M1195.8 32.2c.4 0 .8.4.8.8v11.2c0 1.8.4 2.7 1.8 2.7h.3c1.4 0 1.7-1.2 1.7-2.7V5.7c0-.4.4-.8.8-.8h6c.4 0 .8.4.8.8v39.1c0 6.4-3.2 9.3-8.4 9.3h-2c-4.8 0-8.1-2.2-8.1-8.9V33c0-.4.4-.8.8-.8h5.5z"/>
  </g>
</svg>