<svg xmlns="http://www.w3.org/2000/svg" width="106.5" height="104.5" viewBox="0 0 106.5 104.5">
  <style>
    .st0{fill:#fff}
  </style>
  <path class="st0" d="M56.5 48.8c.7.4 1.2.7 1.7.9 7.1 3.7 11.4 9.6 12.9 17.4 1.6 8.3.3 16.2-4.7 23.2-4.1 5.7-9.8 9-16.3 11-4.2 1.3-8.6 1.9-13 1.9H.2c0-.4-.1-.8-.1-1.2V10.5C0 5.1 4.9.1 10.5.1c9.1 0 18.2-.2 27.3 0 7.6.2 14.7 2.1 20.8 7 5 4 7.9 9.1 8.8 15.4 1 7-.2 13.5-4.2 19.4-1.6 2.4-3.7 4.3-5.9 6.1-.2.3-.5.5-.8.8zM20.1 85.6c.2.1.2.1.3.1 6.2 0 12.4.2 18.5-.1 4.7-.2 8.5-2.3 10.7-6.8 1.6-3.3 1.9-6.8 1.2-10.3-.7-4-2.7-7.1-6.3-9-2.2-1.2-4.6-1.6-7-1.7h-11c-4 0-6.4 2.2-6.4 6.3C20 71.1 20 78 20 85c0 .2.1.4.1.6zm0-43.9c5.6 0 11.1.1 16.6 0 3.4-.1 6.4-1.5 8.4-4.5 2-2.9 2.4-6.2 2.3-9.6-.4-5.6-4.7-10.1-10.3-10.3-3.4-.1-6.9-.2-10.3-.1-4.6.1-6.7 2.4-6.7 7v17.5z"/>
  <path class="st0" d="M94.1 104.5c-6.2.1-12.3-4.7-12.4-12.5-.1-6.9 5.6-12.5 12.4-12.5 6.9 0 12.4 5.6 12.4 12.5s-5.6 12.5-12.4 12.5z"/>
</svg>