<svg xmlns="http://www.w3.org/2000/svg" xmlns:xlink="http://www.w3.org/1999/xlink" width="369" height="384.5" viewBox="0 0 369 384.5">
  <style>
    .st2{fill:#a2d9f6}.st3{fill:#9dd6f4}.st13{fill:#97d0f2}.st18{fill:#fff}.st20{fill:#f9af34}
  </style>
  <g id="XMLID_2_">
    <path d="M131.8 69.5L268.4 349c-18 7.2-37.6 11.2-58.2 11.2-86.1 0-156-69.8-156-156 0-57.4 31.2-107.7 77.6-134.7z" fill="#7a4418"/>
    <path d="M210.2 48.3c86.1 0 156 69.8 156 156 0 65.6-40.5 121.7-97.8 144.7L131.8 69.5c23-13.5 49.8-21.2 78.4-21.2z" fill="#398c60"/>
  </g>
  <path class="st2" d="M339.6 288.2c-3.4 4.3-6.7 8.6-10.1 13-1.4.5-2.6-.4-3.8-.6-3-.6-5.5-.3-6.9 2.9-1.2 2.8-2.4 2.2-3.2-.4-.1-4.3-.5-8.5-2-12.6-.6-1.6-1.2-3.1-2.4-4.3-.8-.8-1.8-1.8-3-1.1-1.5.8-.4 2 0 3 .6 1.7 1.9 3.5 0 4.9-1.9 1.5-4 1-5.8-.6-4.6-3.6-8.8-7.5-7.4-14.1 1.8-8.5 7.7-13.5 15.6-16 11.8-3.6 20.7 1.3 26.7 14.6 1.4 3.5 4.2 7 2.3 11.3z"/>
  <path class="st3" d="M263.8 348.1c-5.3 3.3-11.6 4.3-17.4 6-16.7 4.7-33.9 5-51 3.9-12.9-.8-25.9-2.8-37.8-8.7.1-3.6 2.8-4.2 5.5-4.3 18.6-.6 37.1-.4 55.7-.4h23.9c2.7 0 5.3-.5 7.8-1.5 3.1-.2 5.9-2.2 9-2.1 3.6 1.1 5.1 3.4 4.3 7.1z"/>
  <path class="st3" d="M119.8 329.9c-.1-1.5.8-2.5 1.9-3.3 1.4.4 2.9.9 4.4.7 18.7-3.1 37.6-1.1 56.4-1.5 18.8-.4 37.6.4 56.4-1 3.1-.2 6.4-.3 9.1 1.9 3.2 2.1 5.9 4.7 8.1 7.9.2.9 0 1.7-.8 2.3-.9.4-1.8.5-2.7.3-2.9-1.9-6.1-2.4-9.4-2.3-35.3 1.5-70.6.9-105.8 1-2.7 0-5.2 1.1-7.9.6-3.6-1.9-7-3.7-9.7-6.6z"/>
  <path class="st3" d="M129.4 336.4c2.1-1.9 4.6-2.3 7.4-2.2 19.3.1 38.6-.2 57.9.1 15.6.3 31.2-1.1 46.8-1.1 4.4 0 8.5.1 12.1 3.1 1 2.6-1 2.9-2.6 2.9-3-.1-5.9.7-8.9.7-19.4.1-38.9 1.4-58.3 1-12.3-.3-24.6.3-36.8-.1-3.1-.1-6.1 1.6-9.3.5-3.1-1.3-6-2.6-8.3-4.9z"/>
  <path class="st3" d="M251.6 344.2c-2.6 1.6-5.3 2.1-8.4 2.1-21.7-.1-43.5-.1-65.2-.1-2.8 0-5.6 0-8.3 1.1-1.2.5-2.3.8-3.7 0-3.4-2.1-6.3-1-8.5 2.1-5.8-.9-10.9-3.6-16-6.1.9-1.4 2.3-2.2 3.8-2 8.4 1.5 16.7-.8 25.1-.6 22.9.3 45.9.1 68.8 0 3.2 0 6.3.1 9.4-.6 3.9-.9 4.5.9 3 4.1z"/>
  <path class="st3" d="M251.6 344.2c-.5-1.3 1.2-4.9-2.8-2.5-1.3.8-3.2.5-4.9.5h-83.2c-2.6 0-5.2-.3-7.6 1.5-1.3 1-3.6 1.1-4.7 0-2.4-2.4-4.6-.8-6.9-.5-1.3-.7-2.6-1.4-3.9-2 6.8-3.2 14-1.8 21.1-1.9 11.2-.2 22.5-.3 33.7 0 17.1.5 34.1-1.6 51.2-1.1 2.9.1 5.7-2 8.7-.3.7.4 1.2-.9 1.3-1.8h1.8c3.3.7 4.7 2.7 4.2 6-2.9-.3-4.9 3.1-8 2.1z"/>
  <path class="st3" d="M315.3 316.1c-3.2 4.3-7.5 7.1-11.8 10.1-5.4-2.4-11.4-1-17.1-2.5-2.6-.7-5.5-.4-8.3.7-4 1.6-8.5-.4-12.4 2-2.1-3.7-3.6-7.6-2.8-11.9.9-1.2 2.2-1.5 3.5-1.3 2.4.4 4.5.3 6.5-1.2 1.3-.9 2.9-.3 4.3.2 2.1.8 4.2.7 6.3.3 2.2.1 4.4.2 6 1.9 4.7 1 9.5 1.1 14.1-.5 2.6-.9 5.2-1.1 7.8-.9 2.1.1 3.8.7 3.9 3.1z"/>
  <path class="st3" d="M266.7 325.9c1.7-1.8 2.9-4 6.1-2 1.1.7 3.3.1 5.1-.7 3.9-1.8 8-1.3 11.9-.1 1 .3 2 1.6 3.1.7 4.5-3.3 7.3.8 10.7 2.4-3.3 3.6-7.6 5.8-11.7 8.2-5.6-.9-11.1-1-16.7-.4-2.3.3-4.1 1.1-5.8 2.4-4.2-2.7-3.8-6.5-2.7-10.5z"/>
  <path d="M339.6 288.2c-1.5-8.6-5.3-16-11.6-22-5.6-5.3-12.1-4.6-18.7-2-7 2.8-12.3 7.5-13.4 15.4-.8 5.6 3.3 9.1 6.8 12.7-.3.4-.7.5-1.1.1-9.1-3.8-9.7-14.7-5.9-20.5 6.2-9.3 15.1-13.1 26-12.5 4 .2 7.3 2.3 9.9 5.3 4.4 5.2 8.9 10.5 10.3 17.5-.3 2.1-.2 4.5-2.3 6z" fill="#212464"/>
  <path class="st3" d="M91.6 305.2c-2-2.4-4.1-4.7-6.1-7.1-.5-1-.2-1.9.6-2.7 6.1-6.6 16.3-7.4 23.6-1.9 1.4 1 2.6 2.3 2.3 4.1-.4 2.1-2.3 2.2-4 2-2.4-.2-4.2.6-5.7 2.4-.7.9-1.7 1-2.7.8-3.1-.6-6.1-.9-8 2.4z"/>
  <path class="st3" d="M271 342.6c-2.1-1.8-1.2-4.2-1.5-6.4 0-2.6.1-3.8 3.9-3.5 4.1.3 8.5-.3 12.8-.5 2.3-.1 4.2.5 5.7 2.2-5 4.2-11.1 6.5-16.7 9.5-1.8.9-3.3.6-4.2-1.3z"/>
  <path d="M101.4 302.2c1.4-2.9 3.9-3.3 6.7-3 1.2.1 2.4.1 2.9-1.3.5-1.3-.5-2.2-1.3-3-3.5-3.3-7.6-4.8-12.3-3.8-4.7 1-9.1 2.8-11.9 7-1.3-1.9-2.5-3.8-3.8-5.7 3.8-.3 6.5-3 9.9-4.2 3.4-1.4 6.7-1.5 10.1-.1 4.6 1.7 9.1 3.4 11 8.6 1 2.5.3 3.5-2.6 3.6-2.5 0-6.8-1.2-6.6 2.8.1 3.8 4.2 3.2 7.1 3.2 1.9 0 4.1-1 5.1 1.7l-.2.3c-3.2 2.9-7 2.6-10.9 2-3.4-1.8-4.9-4.3-3.2-8.1z" fill="#2a2565"/>
  <path class="st3" d="M104.6 309.3c3.7.5 7.3-.6 11-1.1 0 3-.1 5.9-.1 8.9-2.8 3-6.6 1.1-9.8 2-3.6-2.5-6.6-5.5-9.3-8.8 2.4-3.4 5.3-1.9 8.2-1z"/>
  <path class="st2" d="M316.6 303.2c0 .2 0 .3.1.5.2.4.5 1 .8.2 2.6-6.2 6.4-7.1 12-2.8-2.5 3.8-5.5 7.1-8.9 10-3-1.1-5.8-1.6-8.4 1.2-1 1-3.1 1.3-3.8-1.2 2.8-2.4 4.6-6.1 8.2-7.9z"/>
  <path class="st2" d="M308.6 311.4c1.4 1.4 3.2.7 3.9-.3 2.9-4.8 5.4-2.5 8.1.1-1.2 2.2-3.4 3.4-5.2 4.9-2.7-3.5-7-2.6-9.6-1.4-6 2.8-12 .7-19.2 1.9.7-.3 1-1.4 1.4-1.2.4.3 1.3-.1 1.9-.3 6.1-1.3 12.3-2.9 18.7-3.7z"/>
  <path class="st3" d="M104.6 309.3c-2.7 0-5.5-.4-8.1 1-1.6-1.7-3.3-3.4-4.9-5.1 2.3-1.4-1.2-2.7 0-4.4 3.2.5 6.6.1 9.8 1.3.3 2.8.7 5.4 3.2 7.2z"/>
  <path class="st3" d="M105.8 319.2c2.7-3.2 6.7-.6 9.8-2 0 3.3.1 6.6.1 9.9-3.9-2.1-7.2-4.6-9.9-7.9z"/>
  <path d="M308.6 311.4c-6 2.8-12.2 4.3-18.8 3.7-2.1-.6-4.2-1.1-6.3-1.7-6.7-1.1-10.2-4.1-10.5-9 .1-.3.3-.7.6-.8 5.8-1 6.4-4.1 3.6-8.7.6-1.1 1.3-1.5 2.4-.6.7.7 1.5 1.3 2.2 2 2.7 1.5 3.3 4.1 2.8 6.7-.4 2.6-2.7 2.8-5 2.8-2 0-2.2 1-1.1 2.5 5.7 2.4 11.4 4.8 17.8 4.7 3.5-.1 6.2-1.9 9.4-2.6 1.5-.2 2.8-.8 3.8-2 4.8-5.4 5.2-11.5 2.5-17.9-.2-.5-1.2-4-2.3-.2.5 1.4 1.1 3-.8 3.8-2.8 1-5.5 1.1-7.5-1.7.4 0 .8-.1 1.1-.1 1.8.6 3.7 2.3 5.4.2 1.5-1.8-.8-2.9-1.4-4.3-.6-1.5-2.1-3.2-.2-4.4 2.1-1.4 4.2-.4 5.6 1.6 3.9 5.4 4.7 11.6 4.4 18-1.4 3.5-4.6 5.8-7.7 8z" fill="#133356"/>
  <path d="M279.6 294.2c-.9 0-1.7.3-2 1.2-4.7 1.2-9.8 1.8-12.1 7.1-1.2 1.1-1.9 2.9-3.8 3.1-.5-1.1-1.2-2.1-.9-3.4 1.6-2.1 3.3-4.1 4.9-6.2 4.2-5.3 8-5.8 13.9-1.8z" fill="#232562"/>
  <path d="M309.8 290.2c-.8-1.4-2.1-2.5-1.7-4.8 4.3 1.4 5.8 4.9 6.2 8.5.7 5.4 1.3 11-4.7 14.3 2.1-5.2 4.4-10.3 2-16.1-.4-.9-.7-1.7-1.8-1.9z" fill="#477f76"/>
  <path d="M305.8 310.3c-7.9 4.8-19.3 4-27.2-2.1 3.4-1 6.1 1.3 8.8 2.3 5.6 2.1 10.7 2.4 16-.2.7-.3 1.6 0 2.4 0z" fill="#487c79"/>
  <path d="M278.6 308.2c-1.3-.7-2.7-1.3-2.6-3.5 2.6-.1 5.9 2 7.6-1.2 1.4-2.6-.3-5.1-1.7-7.3 3.9.1 3.8 3 3.7 5.7 0 2.6-1 4.5-4.1 4.3-1.5-.1-2.7.3-2.9 2z" fill="#4b7879"/>
  <path d="M101.7 288.1c-3.4 0-6.8 0-10.1.1 3.4-2.9 6.7-3.1 10.1-.1z" fill="#482a48"/>
  <path class="st3" d="M243.6 321.8c2.5 1.5 4.1 3.7 5.3 6.3-5.7-3-11.9-2-17.9-1.5-3.1.2-6.2.7-9.4.7h-81.9c-4.4 0-8.9.1-13.1 1.8-2.5 1-4.1-.1-4.9-2.5l2.1-3.3c1.5-1 2.5-2.9 4.8-2.5.5.1 1 .4 1.5.3 18.3-2.7 36.7.2 55-1.2 14.7-1.2 29.6-1.9 44.4-.7 1.6.1 2.9-.7 4.3-1.1 3.7-.1 6.8 1.6 9.8 3.7z"/>
  <path d="M127.7 321.5c-1.3.6-2.6 1.2-3.9 1.7 1.3-2 2.6-4.1 3.9-6.1 10.9-5.4 22.4-7.3 34.6-7.4 6.6-.1 14.6-1.2 17.6-9.5.7-.6 1.4-.6 2.1-.1.7.9.7 2 .4 3-.7 2.1-2.1 3.7-3.6 5.2-5.2 4.3-11.4 5.7-17.9 6.1-6.1.4-12.1.8-18.1 2-5.4.9-9.5 5.1-15.1 5.1z" fill="#272169"/>
  <path class="st13" d="M261.6 305.6c1-1.2 1.9-2.4 2.9-3.6 3.6-1.3 5.9 2.3 9.2 2.3.6 5.9 6 6.7 9.9 9.1-1.6 1.4-3.5 1.1-5.2.5-2.6-.9-4.8-2.7-7.2 1-.5.8-5-1.1-7.7-.6-2.2-2.6-1.9-5.7-1.9-8.7z"/>
  <path d="M233.5 306.4c1.7 4.9 4 9.3 8.9 11.9 0 1.3 1.8 2 1.2 3.5-3.3-.4-6.4-1.1-8.7-3.7-.2-.1-.5-.2-.7-.2-2.5-3.2-3.1-6.8-2.4-10.7.2-.5.6-.8 1-1.1.3 0 .5.2.7.3z" fill="#2e2b5e"/>
  <path class="st13" d="M273.6 304.3c-1.6 2.3-3.1 0-4.5-.2-1.6-.3-3.1-1.3-4.6-2 4.5-7 6.2-7.8 13.1-6.5 1.1 1.1 2.2 2.1 3.2 3.2 1.1 1.2 1.6 2.7.8 4.2-.7 1.3-2.1.7-3.2.5-1.8-.5-3.4-.4-4.8.8z"/>
  <path d="M223.6 295.3c.3.6.6 1.3.9 1.9-.7 2.7-3.2 4-4.7 6-1.1 1.2-2.3 2.4-3.5 3.5-5 4.5-8.1 4.5-13.3 0-.8-1.5-1.4-3.2-2.3-4.7-1.8-4.5-2.8-9.2-4.2-13.8-4.3-13.7-19.9-17.6-30.7-7.7-1.2 1.1-2 3.3-4.3 2.6-.3-1-.5-2.1.2-3 0-4.4 3.5-6.6 6.4-8 11.9-5.7 22.3-4.1 29.9 8.9 3.8 6.6 5.7 13.6 8 20.6 1.7 5.4 5.6 6 9.6 2 2.6-2.7 4.1-6.7 8-8.3z" fill="#2a1f6a"/>
  <path d="M161.6 280.2c.1 1.1.1 2.3.2 3.4 2 2.5.3 6 2.9 8.8 1.2-2.5 1.2-5.7 4.2-6.8 2.7-1.1 5.4-1.5 8.2-.2 5.3 2.5 7.2 8.7 4.5 14.8h-1.8c-.1-2.3 0-4.7-.3-7-.5-3.1-1.9-5.6-5.6-6-3.9-.4-4.4 2.7-5.7 5.1-1 1.9 1.1 5.5-2.4 5.6-3 .1-4-3.3-5.1-5.5-2.2-4.1-1.1-8.3.9-12.2z" fill="#2f234f"/>
  <path class="st3" d="M127.7 321.5c4.5-2.3 9-4.7 14-6.1 6.6-.1 13.2-1 19.7-1.8 11.8-1.6 23.6.8 35.3 0 9.3-.6 18.6 0 27.8-.9 4.9-.5 7.8 1.6 10.2 5.3l.2-.1c-2.2 2.6-4.6 2.6-8.1 2.5-10.6-.3-21.2-1.4-31.8.6-.5.1-1 .1-1.5.1-12.6-.4-25.2.5-37.8 1-3.8.2-7.6.1-11.2-1.5-4.4-1.9-8.2 1.5-12.3 1.8-1.9.2-3.1.1-4.5-.9z"/>
  <path class="st3" d="M181.6 300.2c.8-2.7.4-5.3-.2-7.9-1-4.6-4.3-6.8-8.7-6.5-4.8.3-6.8 2.9-6.4 7.6.1.8.1 1.7-1 2.6-3.9-3.3-4.3-7.6-3.5-12.3 4.9-8 17.4-12.1 26.1-8.8 4.8 1.8 7.3 5.5 8.8 10.1 1.8 5.7 3.3 11.4 5 17.1.2.3.2.9.1.9-6.9-1-13.7.2-20.5.3.1-1.1.2-2.1.3-3.1z"/>
  <path class="st3" d="M234.8 318.1c-3.3-1.3-5.5-4.4-10.1-4.1-12.9 1-25.9 1-38.9 1.1-6.9.1-13.7-.7-20.6-.9-6.3-.2-12.5.9-18.7 1.8-1.6.2-3.3.7-4.8-.6 6.4-1.8 12.9-1.8 19.4-2.3 6.4-.5 12.3-1.9 17.3-6.1 8.4-.1 16.8-.6 25.3-.9 5.9 4.2 7.5 4.1 12.6-1 1-1 2.1-2 3.2-3 3.4.8 6.5 3.3 10.3 1.3 1.5.6 2.5 1.6 2.7 3.2 0 4.1 1 7.8 2.3 11.5z"/>
  <path class="st3" d="M203.8 306.2c-7.3 3.2-15.1 1.7-22.7 2-1 0-2-.2-2.6-1.1.9-1.3 1.8-2.6 2.8-3.9 5.4-3.5 11.8-.9 17.5-2.6 1.4-.4 1.2 2.5 3 1.5 1 1.1 1.8 2.5 2 4.1z"/>
  <path d="M225.4 297.6c1.4 2.3 3.7 3.9 4.4 6.6-4.2 3.4-7.2.6-10.2-2l4.9-4.9.9.3z" fill="#98c6f1"/>
  <circle class="st18" cx="98" cy="259.3" r="3.8"/>
  <circle class="st18" cx="320.5" cy="168.3" r="3.8"/>
  <circle class="st18" cx="281.9" cy="95.9" r="3.8"/>
  <circle class="st18" cx="279.6" cy="249.4" r="5.1"/>
  <g>
    <defs>
      <circle id="SVGID_1_" cx="210.2" cy="204.3" r="156"/>
    </defs>
    <clipPath id="SVGID_2_">
      <use xlink:href="#SVGID_1_" overflow="visible"/>
    </clipPath>
    <g clip-path="url(#SVGID_2_)">
      <path class="st20" d="M210.7 132.1l155.5 90-177-21.5z"/>
      <path class="st20" d="M175.1 107.2l179.2 10.1-148.9 59z"/>
      <path class="st20" d="M163 101.8l114.7-53.5-56.2 95.2z"/>
      <path class="st20" d="M167.3 127.6L212 9.3l26.2 107.3z"/>
      <path class="st20" d="M231 184.1l46 183.3-113.4-149.3z"/>
      <path class="st20" d="M204.8 187.2l-90.4 155.3 10.1-186.2z"/>
      <path class="st20" d="M182.5 200.6L21.9 251.8l112.6-136.2z"/>
      <path class="st20" d="M128.1 226.9L0 117.3l175.1 24z"/>
    </g>
    <circle cx="163.5" cy="144.2" r="96" clip-path="url(#SVGID_2_)" fill="#f9af34" stroke="#df821a" stroke-miterlimit="10"/>
  </g>
  <circle cx="210.2" cy="204.3" r="156" fill="none" stroke="#000" stroke-width="5.6693" stroke-miterlimit="10"/>
</svg>