<svg xmlns="http://www.w3.org/2000/svg" width="243.7" height="40.3" viewBox="0 0 243.7 40.3">
  <style>
    .st0{fill:#fff}
  </style>
  <path class="st0" d="M.2 39.7h6.6c.1 0 .2-.1.2-.2V22.9h5.7c.1 0 .2-.1.2-.2v-6.8h-6V7.3h7.9c.1 0 .2-.1.2-.2V.6c0-.1-.1-.2-.2-.2H.2C.1.4 0 .5 0 .6v38.9c0 .1.1.2.2.2"/>
  <path class="st0" d="M23.6 22.9h5.9c.1 0 .2-.1.2-.2v-6.6c0-.1-.1-.2-.2-.2h-5.9V7.3h7.6c.1 0 .2-.1.2-.2V.6c0-.1-.1-.2-.2-.2H16.9c-.1 0-.2.1-.2.2v38.9c0 .1.1.2.2.2h14.6c.1 0 .2-.1.2-.2v-6.7c0-.1-.1-.2-.2-.2h-7.9v-9.7z"/>
  <path class="st0" d="M60.1 22.9H66c.1 0 .2-.1.2-.2V16c0-.1-.1-.2-.2-.2h-5.9V7.3h7.6c.1 0 .2-.1.2-.2V.6c0-.1-.1-.2-.2-.2H53.3c-.1 0-.2.1-.2.2v38.9c0 .1.1.2.2.2H68c.1 0 .2-.1.2-.2v-6.7c0-.1-.1-.2-.2-.2h-7.9v-9.7z"/>
  <path class="st0" d="M43.1.4h-9.5c-.1 0-.2.1-.2.2v38.9c0 .1.1.2.2.2H43c4.3 0 7.8-1.4 7.8-8.1v-24c0-.4.6-7.2-7.7-7.2m-1 32.8h-1.6c-.1 0-.2-.1-.2-.2V6.8c0-.1.1-.2.2-.2h1.7s1.6 0 1.6 2.5v21.7c0 .1 0 2.4-1.7 2.4"/>
  <g>
    <path class="st0" d="M201.9 22.9h5.9c.1 0 .2-.1.2-.2V16c0-.1-.1-.2-.2-.2h-5.9V7.2h7.6c.1 0 .2-.1.2-.2V.6c0-.1-.1-.2-.2-.2h-14.4c-.1 0-.2.1-.2.2v38.9c0 .1.1.2.2.2h14.6c.1 0 .2-.1.2-.2v-6.7c0-.1-.1-.2-.2-.2h-7.9v-9.7z"/>
    <path class="st0" d="M85.3 7.6s-.1-1.7 1.5-1.7 1.6 1.5 1.6 1.8v5c0 .1.1.2.2.2H95c.1 0 .2-.1.2-.2V8.8C95.1 6.9 96 0 87.8 0H86c-4.2 0-7.7 2.5-7.7 6.9v3.5c0 9.6 10 12.6 10 18.2v3s.1 2.2-1.7 2.2c-1.7 0-1.9-1.8-1.9-2.2v-6.3c0-.1-.1-.2-.2-.2H78c-.1 0-.2.1-.2.2V32c0 3.1.9 8.1 8.2 8.1h1.5c3.9 0 8.2-2.3 8.2-9.6v-2.4c0-9.3-10.5-12.9-10.5-18.6V7.6z"/>
    <path class="st0" d="M107.8 0h-2.6c-3.7 0-7.9 2.1-7.9 8v24c0 4 1.7 8.2 8.1 8.2h1.6c3 0 7.9-1.6 7.9-8.1v-9.8h-6.8v9.2s0 1.8-1.8 1.8c-1.7 0-1.8-1.8-1.8-2.1V8.3s0-1.7 1.8-1.7 1.7 1.8 1.7 1.8v6.8h6.9V7.6c.1 0 .3-7.6-7.1-7.6"/>
    <path class="st0" d="M127.8 15.4H124V.6c0-.1-.1-.2-.2-.2h-6.6c-.1 0-.2.1-.2.2v38.9c0 .1.1.2.2.2h6.6c.1 0 .2-.1.2-.2V23.1h3.8v16.4c0 .1.1.2.2.2h6.6c.1 0 .2-.1.2-.2V.6c0-.1-.1-.2-.2-.2H128c-.1 0-.2.1-.2.2v14.8z"/>
    <path class="st0" d="M160.2.6l-5 38.9c0 .1.1.2.2.2h6.1c.1 0 .2-.1.2-.2l.7-6.5h4.3l.7 6.5c0 .1.1.2.2.2h6.1c.1 0 .2-.1.2-.2l-5-38.9c0-.1-.1-.1-.2-.1h-8.2c-.2-.1-.3 0-.3.1m2.8 25.7l1.4-13.1h.1l1.4 13.1H163z"/>
    <path class="st0" d="M183.6 22.5h2.4v8.7s.1 2.3-2 2.3-2-2.4-2-2.4V8.3s0-1.9 1.8-1.9c1.9 0 1.8 2 1.8 2v4.7c0 .1.1.2.2.2h6.5c.1 0 .2-.1.2-.2V8.8c0-3.1-.9-8.8-7.2-8.8h-3c-2.3 0-7.5 1.5-7.5 8.7v24.5s.3 6.9 6.4 6.9c5 0 6.3-4.4 6.3-4.4l1 3.7c0 .1.1.1.2.1h4c.1 0 .2-.1.2-.2V16.1c0-.1-.1-.2-.2-.2h-9c-.1 0-.2.1-.2.2v6.2c0 .1 0 .2.1.2"/>
    <path class="st0" d="M222.5.4h-10.8c-.1 0-.2.1-.2.2v38.9c0 .1.1.2.2.2h6.6c.1 0 .2-.1.2-.2V22.9h1.7s1.7-.1 1.7 1.7v14.9c0 .1.1.2.2.2h6.7c.1 0 .2-.1.2-.2V23.4c0-1 0-3.4-3-4.9 0 0 3.1-1.1 3.1-4.8V6.8c-.2 0 .4-6.4-6.6-6.4m-.7 7.6v6.6c0 1.9-1.9 1.8-1.9 1.8h-1.4c-.1 0-.2-.1-.2-.2V6.6c0-.1.1-.2.2-.2h1.7c1.7 0 1.6 1.6 1.6 1.6"/>
    <path class="st0" d="M148.2.4h-10.8c-.1 0-.2.1-.2.2v38.9c0 .1.1.2.2.2h6.6c.1 0 .2-.1.2-.2V22.9h1.7s1.7-.1 1.7 1.7v14.9c0 .1.1.2.2.2h6.7c.1 0 .2-.1.2-.2V23.4c0-1 0-3.4-3-4.9 0 0 3.1-1.1 3.1-4.8V6.8c-.2 0 .4-6.4-6.6-6.4m-.7 7.6v6.6c0 1.9-1.9 1.8-1.9 1.8h-1.4c-.1 0-.2-.1-.2-.2V6.6c0-.1.1-.2.2-.2h1.7c1.7 0 1.6 1.6 1.6 1.6"/>
  </g>
  <g>
    <path class="st0" d="M233.5.6c0-.1.1-.2.2-.2h2.5c1.5 0 2 .9 2 2.2v7c0 1.4-.5 2.3-2 2.3h-2.5c-.1 0-.2-.1-.2-.2V.6zm1.8 9.6h.4c.5 0 .7-.3.7-.9V2.9c0-.7-.2-.9-.6-.9h-.5v8.2z"/>
    <path class="st0" d="M240.9 6.9c.1 0 .2.1.2.2v2.6c0 .4.1.6.4.6h.1c.3 0 .4-.3.4-.6V.6c0-.1.1-.2.2-.2h1.4c.1 0 .2.1.2.2v9.2c0 1.5-.8 2.2-2 2.2h-.5c-1.1 0-1.9-.5-1.9-2.1V7c0-.1.1-.2.2-.2h1.3z"/>
  </g>
</svg>