<svg xmlns="http://www.w3.org/2000/svg" xmlns:xlink="http://www.w3.org/1999/xlink" width="913.6" height="178.6" viewBox="0 0 913.6 178.6">
  <style>
    .st0{fill:#fff}.st1{fill:#398c60}.st2{fill:#7a4418}.st3{fill:#a2d9f6}.st4{fill:#9dd6f4}.st5{fill:#212464}.st6{fill:#2a2565}.st7{fill:#133356}.st8{fill:#232562}.st9{fill:#477f76}.st10{fill:#487c79}.st11{fill:#4b7879}.st12{fill:#482a48}.st13{fill:#272169}.st14{fill:#97d0f2}.st15{fill:#2e2b5e}.st16{fill:#2a1f6a}.st17{fill:#2f234f}.st18{fill:#98c6f1}.st20{fill:#f9af34}
  </style>
  <path class="st0" d="M736.6 157.2c-1.4-.2-2.7-.4-4.1-.6-6.1-1.1-9.9-4.7-11.7-10.5-1.5-4.9-1.5-10-.9-15.1.6-4.8 1.4-9.6 2.3-14.3.9-4.5 2.1-9 3.1-13.5.2-.9.4-1.8.7-2.9-.8-.1-1.5-.3-2.2-.3-3.5-.4-7-.8-10.5-1.3-.8-.1-1.2.2-1.4 1-1.8 6.3-3.7 12.7-5.5 19-1.7 5.9-3.4 11.8-5.9 17.4-.5 1.1-1 2.1-1.6 3.1-2.4 3.9-5.6 4.7-9.6 3.7-1-.2-2.1-.7-3.1-1.1-1.3-.6-1.5-1.4-.4-2.3 2.5-2.1 3.4-5.1 4.4-8 2.7-8 5.2-16.1 7.8-24.1l2.4-7.8c.1-.3.1-.6.1-1-5.6.6-10.4 2.4-14.4 6.3-.2.2-.7.2-1.1.4-.1-.4-.4-.9-.3-1.2.4-1 .9-2 1.5-2.9 3.5-5.3 8.5-8.1 14.7-8.9.8-.1 1.3-.3 1.5-1.3.8-4.5 1.6-9.1 2.4-13.6.8-4.4.8-8.8.6-13.2-.3-5.6-1.3-11-4.8-15.7-2.4-3.2-5.6-5.2-9.4-6.1-2.4-.5-4.6.2-6.7 1.2-5.9 2.9-9.8 7.7-12.5 13.6-2.5 5.4-3.1 11.1-2.2 17 .5 3.5 1.5 6.8 3.8 9.6 3.1 3.8 6.7 4.1 10.7.9 3.6-2.8 6-6.6 8-10.6.5-1 1.1-2.1 1.3-3.2.3-1 1-1.2 1.7-1.1.8.1 1 .9.8 1.6-2.6 8-6.8 14.8-14.7 18.6-7 3.4-13.9.7-18-5.4-2.3-3.5-3.5-7.3-3.4-11.5.2-13.4 6.1-23.6 17.6-30.3 5.1-3 10.8-4.1 16.7-3.3 6.4.8 11.9 3.4 16 8.4 3 3.7 4.7 8 5.7 12.6 1.2 5.9 1.2 11.7.4 17.6-.7 4.7-1.5 9.3-2.3 14.1.2 0 .6.2 1.1.2l11.7 1.5c.3 0 .8-.4.9-.7 1-3.9 2.1-7.7 3-11.6.9-3.7 1.9-7.4 2.7-11.1 1.1-5.2 2.1-10.4 3.1-15.6.2-1.1 0-2.3-.2-3.4-.3-1.9.1-2.6 2-2.5 1.5.1 3 .5 4.4 1.1 1.9.8 2.8 2.6 2.8 4.5 0 2.8-.1 5.7-.6 8.5-.8 4.9-1.9 9.8-3 14.7-1 4.3-2.1 8.6-3.2 12.9-.3 1.3-.6 2.6-1 4 4.1-.1 7.8-.8 11.4-2.4.6 1 .1 1.8-.3 2.5-1.7 3-4.3 4.6-7.6 5.4-1.3.3-2.6.5-3.9.6-1 .1-1.4.5-1.7 1.4-.8 3.2-1.7 6.4-2.5 9.6-1 3.9-2 7.8-2.9 11.7-1.2 5.4-2.2 10.8-1.9 16.4.2 3.5.8 7 2.9 9.9 2.1 2.9 5 4.2 8.5 4.5.7.1 1.5-.1 2.1.1.5.1 1 .5 1.3.9.1.2-.2.9-.5 1.1-.5.4-1.1.6-1.7.7-.8.2-1.6.2-2.4.3-.5-.2-1.3-.2-2-.2z"/>
  <path class="st0" d="M781.5 106.8c1.8-.3 3.3-1.1 4.7-2.2 3.1-2.4 5-5.6 6.7-9 .7-1.5 1.3-3 1.9-4.5.1-.4.1-.9-.1-1.3-3.1-4.5-4.6-9.4-4.3-14.9.3-3.8 1.8-7 5-9.2 2.3-1.6 4.9-2 7.6-1 2 .7 3.1 3 2.4 5.5-.9 3.1-2.1 6.1-3.2 9.1-.4 1.2-.9 2.3-1.4 3.4-.3.7-.3 1.3.2 2.1 3.6 5.4 7 10.9 9.4 17 .8 1.9 1.2 4 1.8 6 .1.4.2.8.5 1.3.8-1.2 1.6-2.4 2.3-3.6 2.3-4.2 4.7-8.4 6.8-12.7.9-2 1.2-4.2 1.7-6.4 1-4.1 1.9-8.2 2.9-12.4v-.6c-.8.1-1.6.2-2.3.2-2.9 0-5.8.2-8.7 0-2.8-.2-5.6-1-6.9-4-.2-.4-.1-.9-.1-1.4.4 0 .9-.1 1.2.1 3.5 1.3 7.2 1.5 10.9 1.2 2.3-.2 4.6-.3 7.1-.5.4-1.7.8-3.4 1.2-5.2.3-1.5.7-2.9.8-4.4.1-1.5.2-3 0-4.5-.2-1.8.2-2.5 2-2.4 1.2.1 2.4.2 3.5.6 2.2.8 3.2 2.6 3.4 4.9.2 2.9-.2 5.8-.9 8.6-.4 1.6-.3 1.6 1.3 1.7 3.9.1 7.6.6 10.9 2.9 1.6 1.1 2.8 2.6 3.6 4.4.1.3 0 1-.2 1.2-.2.2-.9.1-1.2-.1-4.3-3.7-9.5-4-14.9-4-.3 0-.8.6-.9 1-.7 2.6-1.3 5.3-2 7.9-1.1 4.3-2.2 8.5-3.2 12.9-.8 3.4-1.5 6.8-2 10.3-.4 2.7-.5 5.4-.7 8.1 0 .9.2 1.8.5 2.6.5 1.4 1.4 1.7 2.8 1.1 2.9-1.1 4.8-3.3 6.6-5.6 3.6-4.7 6.3-10 8.8-15.3 2.2-4.7 3.8-9.7 7-13.9 2.4-3.1 5.2-5.7 8.9-7.2 6-2.3 12.3.6 14.4 6.7 2 6 0 10.8-4.3 14.9-3.9 3.6-8.5 5.9-13.7 7.3-.7.2-1.5.3-1.6 1.2-.5 2.9-.9 5.9-.2 8.8.5 2.2 1.8 3.9 4.2 4.1 1.3.1 2.7-.3 3.9-.8 2.8-1.2 4.7-3.5 6.5-5.8 3.3-4.5 5.9-9.4 8.5-14.3 1.6-3.1 2.3-6.4 3.2-9.7 2.4-9 5.1-18 10.3-25.9 1.9-2.8 4-5.3 7.2-6.6 1.2-.5 2.6-.6 3.9-.5 1.9.2 2.8 1.8 3.4 3.4 1.2 3.4.9 6.9-.2 10.3-3 9.7-9.4 17.3-16.5 24.2-.6.6-1.1 1.4-1.3 2.2-1.1 4.4-2.1 8.9-2.3 13.5-.1 1.8 0 3.5.3 5.3.6 3.2 3 4.3 5.9 2.8 2.6-1.4 4.5-3.5 6.2-5.9 3.9-5.3 6.7-11.2 9.5-17.1.3-.7.6-1.5 1.2-2 .3-.3 1.1-.5 1.5-.3.6.2.9.7.5 1.5-3.1 6.1-6.1 12.2-9.4 18.2-2 3.7-4.6 7-8.1 9.4-3.4 2.3-7.5 2.5-10.7.4-2.3-1.5-3.3-3.8-3.9-6.4-.9-3.5-1-7.1-.5-10.6 0-.3 0-.6-.3-.9-.8 1.5-1.6 3-2.5 4.4-2.3 4-4.7 7.8-8.1 10.9-3.9 3.6-8.4 5.5-13.7 5-4-.3-6.7-2.5-8.4-6.1-1.6-3.4-1.9-7.1-1.8-10.8 0-.4 0-.8-.3-1.3-.4.7-.9 1.5-1.3 2.2-2.3 4.2-4.8 8.3-8.3 11.6-1.9 1.8-4.1 3.3-6.8 3.5-4.7.3-8.9-1-9.9-6-.4-2.3-.3-4.6-.3-7 .1-1.6.5-3.3.7-4.9v-.9c-.1 0-.2 0-.3-.1-.8 1.4-1.5 2.9-2.4 4.2-2.4 3.5-4.7 7-7.3 10.3-2.5 3.3-6.3 4.6-10.1 5.7-3.1.9-6.4 1.2-9.6.7-1.7-.2-3.2-.7-4.5-1.8-1.6-1.3-2.1-3.7-1.1-5.2.2-.3.5-.7.8-.9.5-.2 1.1-.4 1.6-.3.2.1.5.8.4 1.3-.2 2.2 1.4 3.3 3.3 3.5 2.6.2 5.1 0 7.4-1.5 2.8-1.9 3.8-4.8 4.1-8 .4-4.3-.9-8.2-2.5-12.1-.7-1.8-1.6-3.4-2.6-5.4-.4.6-.6.8-.8 1.2-2 4.2-4.4 8.1-7.7 11.4-2.1 2-4.4 3.7-7.2 4.1-1.8.2-2.6 1.2-3.6 2.5-2.7 3.5-5.9 6.4-10.2 7.8-6.2 2.1-11.8-.3-14.3-6.4-2.4-5.8-2.7-11.8-1.9-18 .3-2.1.7-4.1 1.1-6.2.5-2.5 2.6-3.3 4.7-3.9 1.9-.5 3.7-.1 5.7.7.2-1.5.4-2.8.6-4.2.6-3.2 1.5-6.3 3.3-9 3.7-5.5 12.2-6.5 16.5-1.8 2.3 2.4 3.2 5.4 3.5 8.6 1.1 9.3-1.4 17.8-5.3 26.1-.1.2-.2.3-.2.5.2.1.2.2.3.4zm-12.3-17.6h.4c-.1 3.4.1 6.8 1.2 10.1 1 3.1 2.5 5.7 5.8 6.9.8.3 1.3.3 1.7-.6 4.4-8.3 6.7-17 5.1-26.4-.5-2.9-1.7-5.5-4.6-6.8-2.6-1.2-4.9-.8-6.3 1.7-.7 1.3-1.4 2.7-1.7 4.1-.7 3.7-1.1 7.4-1.6 11zm89.3 11.5c.8-.1 1.2 0 1.6-.1 2.9-.7 5.6-1.8 8.1-3.5 3.6-2.4 6.9-5.2 7.4-9.9.2-2-.3-3.8-1.5-5.4-.7-.9-1.7-1.4-2.8-.7-1 .6-2.1 1.3-3 2.2-2.6 2.7-4.4 5.9-6.1 9.2-1.3 2.5-2.4 5.2-3.7 8.2zm34-13.2h.4c.1-.1.3-.2.4-.4 4.1-4.1 7.6-8.8 10.3-13.9 1.7-3.1 3-6.4 3.1-10 0-1.2-.2-2.5-.5-3.7-.3-1-1-1.2-1.8-.4-1 1.1-2 2.2-2.8 3.5-3.9 6.9-6.3 14.4-8.4 21.9-.2 1-.5 2-.7 3zM763 94.9c-.1 0-.2 0-.3.1-.1.5-.3 1-.3 1.5 0 3.5-.2 6.9 0 10.3.1 1.8 1 3.5 1.9 5.1.4.8 1.4 1.5 2.3 1.8 2.7.8 6.9-1.1 8.4-3.6v-.3c-7.3-2.2-11.1-7.4-12-14.9zm35.8-13.2c.7-1.8 1.4-3.3 2-4.8.7-2 1.3-4 1.7-6 .1-.5-.2-1.5-.7-1.8-.7-.5-1.3.3-1.6.8-1.9 3.3-3 6.8-2 10.6.2.3.3.6.6 1.2z"/>
  <g id="XMLID_2_">
    <path class="st1" d="M65.7 30c11.5-6.7 24.8-10.5 39.1-10.5 43 0 77.8 34.8 77.8 77.8 0 32.7-20.2 60.7-48.8 72.2L65.7 30z"/>
    <path class="st2" d="M65.7 30l68.1 139.4c-9 3.6-18.8 5.6-29 5.6C61.9 175 27 140.2 27 97.3 27 68.6 42.6 43.5 65.7 30z"/>
  </g>
  <path class="st3" d="M169.3 139.1c-1.7 2.2-3.4 4.3-5 6.5-.7.2-1.3-.2-1.9-.3-1.5-.3-2.7-.2-3.5 1.5-.6 1.4-1.2 1.1-1.6-.2-.1-2.1-.2-4.3-1-6.3-.3-.8-.6-1.5-1.2-2.1-.4-.4-.9-.9-1.5-.6-.7.4-.2 1 0 1.5.3.8 1 1.7 0 2.5-1 .7-2 .5-2.9-.3-2.3-1.8-4.4-3.7-3.7-7 .9-4.3 3.8-6.7 7.8-8 5.9-1.8 10.3.7 13.3 7.3.8 1.6 2.2 3.3 1.2 5.5z"/>
  <path class="st4" d="M131.6 169c-2.7 1.7-5.8 2.2-8.7 3-8.3 2.3-16.9 2.5-25.4 2-6.5-.4-12.9-1.4-18.8-4.3.1-1.8 1.4-2.1 2.8-2.1 9.3-.3 18.5-.2 27.8-.2h11.9c1.3 0 2.6-.2 3.9-.7 1.6-.1 2.9-1.1 4.5-1 1.6.3 2.3 1.4 2 3.3z"/>
  <path class="st4" d="M59.7 159.9c-.1-.8.4-1.3 1-1.7.7.2 1.5.4 2.2.3 9.3-1.5 18.7-.6 28.1-.7 9.4-.2 18.8.2 28.1-.5 1.6-.1 3.2-.2 4.5.9 1.6 1.1 2.9 2.4 4 3.9.1.5 0 .9-.4 1.1-.4.2-.9.2-1.3.2-1.4-1-3-1.2-4.7-1.1-17.6.7-35.2.4-52.8.5-1.3 0-2.6.5-4 .3-1.6-.8-3.3-1.8-4.7-3.2z"/>
  <path class="st4" d="M64.5 163.1c1.1-.9 2.3-1.1 3.7-1.1 9.6 0 19.3-.1 28.9.1 7.8.1 15.6-.6 23.4-.6 2.2 0 4.3.1 6 1.5.5 1.3-.5 1.5-1.3 1.4-1.5-.1-3 .3-4.5.3-9.7 0-19.4.7-29.1.5-6.1-.1-12.2.1-18.4 0-1.6 0-3.1.8-4.6.3-1.5-.6-2.9-1.2-4.1-2.4z"/>
  <path class="st4" d="M125.5 167c-1.3.8-2.6 1.1-4.2 1-10.8-.1-21.7 0-32.5 0-1.4 0-2.8 0-4.1.5-.6.2-1.2.4-1.9 0-1.7-1-3.1-.5-4.2 1.1-2.9-.5-5.4-1.8-8-3.1.4-.7 1.1-1.1 1.9-1 4.2.7 8.3-.4 12.5-.3 11.4.1 22.9 0 34.3 0 1.6 0 3.1 0 4.7-.3 1.9-.4 2.2.5 1.5 2.1z"/>
  <path class="st4" d="M125.5 167c-.2-.6.6-2.4-1.4-1.2-.6.4-1.6.2-2.4.2H80.2c-1.3 0-2.6-.1-3.8.7-.7.5-1.8.6-2.3 0-1.2-1.2-2.3-.4-3.5-.2-.6-.3-1.3-.7-1.9-1 3.4-1.6 7-.9 10.5-1 5.6-.1 11.2-.2 16.8 0 8.5.2 17-.8 25.5-.5 1.4 0 2.8-1 4.3-.1.3.2.6-.5.6-.9h.9c1.6.3 2.3 1.3 2.1 3-1.4-.2-2.4 1.5-3.9 1z"/>
  <path class="st4" d="M157.2 153c-1.6 2.1-3.8 3.5-5.9 5-2.7-1.2-5.7-.5-8.5-1.2-1.3-.4-2.8-.2-4.1.3-2 .8-4.2-.2-6.2 1-1-1.8-1.8-3.8-1.4-5.9.4-.6 1.1-.8 1.8-.7 1.2.2 2.2.2 3.3-.6.6-.5 1.4-.2 2.1.1 1 .4 2.1.4 3.2.1 1.1 0 2.2.1 3 1 2.4.5 4.7.5 7-.3 1.3-.4 2.6-.5 3.9-.4.9.1 1.8.4 1.8 1.6z"/>
  <path class="st4" d="M133 157.9c.8-.9 1.4-2 3.1-1 .6.3 1.6.1 2.5-.3 1.9-.9 4-.7 5.9-.1.5.2 1 .8 1.6.4 2.3-1.6 3.6.4 5.3 1.2-1.6 1.8-3.8 2.9-5.8 4.1-2.8-.4-5.5-.5-8.4-.2-1.1.1-2 .5-2.9 1.2-2-1.4-1.9-3.3-1.3-5.3z"/>
  <path class="st5" d="M169.3 139.1c-.8-4.3-2.7-8-5.8-11-2.8-2.6-6-2.3-9.3-1-3.5 1.4-6.1 3.7-6.7 7.7-.4 2.8 1.6 4.5 3.4 6.3-.2.2-.4.2-.6 0-4.5-1.9-4.9-7.3-2.9-10.2 3.1-4.6 7.5-6.5 13-6.2 2 .1 3.7 1.1 4.9 2.6 2.2 2.6 4.5 5.2 5.1 8.7-.1 1.2 0 2.3-1.1 3.1z"/>
  <path class="st4" d="M45.7 147.6c-1-1.2-2-2.4-3-3.5-.3-.5-.1-.9.3-1.3 3.1-3.3 8.1-3.7 11.8-1 .7.5 1.3 1.2 1.1 2.1-.2 1.1-1.1 1.1-2 1-1.2-.1-2.1.3-2.8 1.2-.4.4-.9.5-1.4.4-1.6-.4-3.1-.6-4 1.1z"/>
  <path class="st4" d="M135.1 166.2c-1-.9-.6-2.1-.7-3.2 0-1.3.1-1.9 1.9-1.8 2 .2 4.2-.2 6.4-.3 1.2-.1 2.1.2 2.8 1.1-2.5 2.1-5.5 3.2-8.3 4.8-.9.5-1.6.4-2.1-.6z"/>
  <path class="st6" d="M50.6 146.1c.7-1.4 1.9-1.6 3.4-1.5.6.1 1.2.1 1.5-.6.2-.7-.2-1.1-.6-1.5-1.7-1.6-3.8-2.4-6.1-1.9s-4.5 1.4-6 3.5c-.6-.9-1.3-1.9-1.9-2.8 1.9-.1 3.3-1.5 4.9-2.1 1.7-.7 3.4-.7 5 0 2.3.8 4.5 1.7 5.5 4.3.5 1.3.1 1.8-1.3 1.8-1.3 0-3.4-.6-3.3 1.4.1 1.9 2.1 1.6 3.6 1.6.9 0 2-.5 2.5.8l-.1.2c-1.6 1.5-3.5 1.3-5.4 1-1.8-1.1-2.6-2.3-1.7-4.2z"/>
  <path class="st4" d="M52.2 149.6c1.9.2 3.7-.3 5.5-.5v4.4c-1.4 1.5-3.3.5-4.9 1-1.8-1.2-3.3-2.7-4.6-4.4 1.1-1.7 2.5-.9 4-.5z"/>
  <path class="st3" d="M157.9 146.6c0 .1 0 .2.1.2.1.2.2.5.4.1 1.3-3.1 3.2-3.5 6-1.4-1.2 1.9-2.8 3.5-4.5 5-1.5-.6-2.9-.8-4.2.6-.5.5-1.6.6-1.9-.6 1.4-1.2 2.3-3 4.1-3.9z"/>
  <path class="st3" d="M153.9 150.7c.7.7 1.6.4 1.9-.2 1.4-2.4 2.7-1.2 4 0-.6 1.1-1.7 1.7-2.6 2.5-1.4-1.7-3.5-1.3-4.8-.7-3 1.4-6 .4-9.6.9.3-.2.5-.7.7-.6.2.1.6-.1 1-.1 3.1-.6 6.2-1.4 9.4-1.8z"/>
  <path class="st4" d="M52.2 149.6c-1.4 0-2.8-.2-4 .5-.8-.8-1.6-1.7-2.4-2.5 1.1-.7-.6-1.4 0-2.2 1.6.2 3.3 0 4.9.7 0 1.3.2 2.6 1.5 3.5z"/>
  <path class="st4" d="M52.7 154.5c1.4-1.6 3.3-.3 4.9-1 0 1.6 0 3.3.1 4.9-1.9-.9-3.6-2.2-5-3.9z"/>
  <path class="st7" d="M153.9 150.7c-3 1.4-6.1 2.2-9.4 1.8-1-.3-2.1-.6-3.1-.9-3.4-.5-5.1-2-5.2-4.5.1-.1.2-.4.3-.4 2.9-.5 3.2-2.1 1.8-4.3.3-.5.7-.7 1.2-.3.4.3.7.7 1.1 1 1.4.7 1.6 2 1.4 3.3-.2 1.3-1.3 1.4-2.5 1.4-1 0-1.1.5-.5 1.2 2.8 1.2 5.7 2.4 8.9 2.3 1.8 0 3.1-1 4.7-1.3.8-.1 1.4-.4 1.9-1 2.4-2.7 2.6-5.7 1.2-8.9-.1-.2-.6-2-1.1-.1.3.7.6 1.5-.4 1.9-1.4.5-2.7.6-3.7-.8h.6c.9.3 1.9 1.2 2.7.1.7-.9-.4-1.5-.7-2.2-.3-.7-1-1.6-.1-2.2 1.1-.7 2.1-.2 2.8.8 1.9 2.7 2.3 5.8 2.2 9-1 1.8-2.6 2.9-4.1 4.1z"/>
  <path class="st8" d="M139.4 142.1c-.5 0-.8.1-1 .6-2.4.6-4.9.9-6 3.5-.6.6-.9 1.5-1.9 1.5-.2-.5-.6-1-.4-1.7.8-1 1.6-2 2.4-3.1 2.1-2.6 4-2.8 6.9-.8z"/>
  <path class="st9" d="M154.5 140.1c-.4-.7-1-1.3-.8-2.4 2.1.7 2.9 2.4 3.1 4.2.3 2.7.7 5.5-2.4 7.1 1-2.6 2.2-5.1 1-8-.2-.4-.4-.8-.9-.9z"/>
  <path class="st10" d="M152.5 150.1c-3.9 2.4-9.6 2-13.6-1 1.7-.5 3 .6 4.4 1.2 2.8 1 5.3 1.2 8-.1.3-.2.8-.1 1.2-.1z"/>
  <path class="st11" d="M138.9 149.1c-.7-.3-1.3-.7-1.3-1.8 1.3 0 2.9 1 3.8-.6.7-1.3-.2-2.5-.9-3.6 2 .1 1.9 1.5 1.9 2.8 0 1.3-.5 2.2-2.1 2.2-.7-.1-1.3.1-1.4 1z"/>
  <path class="st12" d="M50.7 139.1h-5c1.7-1.5 3.3-1.6 5 0z"/>
  <path class="st4" d="M121.5 155.8c1.3.7 2.1 1.8 2.6 3.1-2.9-1.5-6-1-8.9-.8-1.6.1-3.1.3-4.7.3H69.6c-2.2 0-4.4.1-6.5.9-1.3.5-2 0-2.4-1.2.3-.6.7-1.1 1-1.7.7-.5 1.3-1.5 2.4-1.2.2 0 .5.2.7.2 9.1-1.4 18.3.1 27.4-.6 7.4-.6 14.7-.9 22.1-.4.8.1 1.4-.3 2.1-.6 2 .1 3.6 1 5.1 2z"/>
  <path class="st13" d="M63.7 155.7c-.7.3-1.3.6-2 .9.6-1 1.3-2 1.9-3 5.4-2.7 11.1-3.6 17.2-3.7 3.3 0 7.3-.6 8.8-4.8.3-.3.7-.3 1 0 .3.5.3 1 .2 1.5-.4 1-1 1.8-1.8 2.6-2.6 2.1-5.7 2.8-8.9 3.1-3 .2-6 .4-9 1-2.6.3-4.6 2.4-7.4 2.4z"/>
  <path class="st14" d="M130.5 147.8c.5-.6 1-1.2 1.4-1.8 1.8-.6 2.9 1.2 4.6 1.1.3 3 3 3.3 4.9 4.6-.8.7-1.8.5-2.6.3-1.3-.4-2.4-1.3-3.6.5-.3.4-2.5-.5-3.8-.3-1.1-1.4-1-2.9-.9-4.4z"/>
  <path class="st15" d="M116.4 148.2c.9 2.4 2 4.7 4.4 5.9 0 .7.9 1 .6 1.7-1.6-.2-3.2-.5-4.3-1.9-.1 0-.2-.1-.4-.1-1.2-1.6-1.5-3.4-1.2-5.4.1-.2.3-.4.5-.5.2.1.3.2.4.3z"/>
  <path class="st14" d="M136.4 147.1c-.8 1.1-1.5 0-2.3-.1-.8-.1-1.5-.7-2.3-1 2.3-3.5 3.1-3.9 6.5-3.3.5.5 1.1 1 1.6 1.6.5.6.8 1.4.4 2.1-.3.6-1 .3-1.6.2-.8-.1-1.6-.1-2.3.5z"/>
  <path class="st16" d="M111.5 142.7c.1.3.3.6.4 1-.4 1.3-1.6 2-2.4 3-.6.6-1.1 1.2-1.8 1.7-2.5 2.3-4.1 2.3-6.6 0-.4-.8-.7-1.6-1.1-2.3-.9-2.2-1.4-4.6-2.1-6.9-2.2-6.8-9.9-8.8-15.3-3.9-.6.6-1 1.6-2.2 1.3-.1-.5-.2-1 .1-1.5 0-2.2 1.8-3.3 3.2-4 6-2.8 11.1-2.1 14.9 4.4 1.9 3.3 2.9 6.8 4 10.3.8 2.7 2.8 3 4.8 1 1.4-1.4 2.2-3.4 4.1-4.1z"/>
  <path class="st17" d="M80.6 135.1c0 .6.1 1.1.1 1.7 1 1.2.2 3 1.4 4.4.6-1.2.6-2.8 2.1-3.4 1.4-.5 2.7-.7 4.1-.1 2.6 1.2 3.6 4.3 2.3 7.4h-.9c0-1.2 0-2.3-.2-3.5-.3-1.6-1-2.8-2.8-3-2-.2-2.2 1.3-2.9 2.6-.5.9.5 2.8-1.2 2.8-1.5 0-2-1.6-2.5-2.8-1.1-2.1-.5-4.1.5-6.1z"/>
  <path class="st4" d="M63.7 155.7c2.3-1.1 4.5-2.4 7-3 3.3-.1 6.6-.5 9.8-.9 5.9-.8 11.8.4 17.6 0 4.6-.3 9.3 0 13.9-.5 2.4-.3 3.9.8 5.1 2.7h.1c-1.1 1.3-2.3 1.3-4.1 1.2-5.3-.2-10.6-.7-15.9.3h-.7c-6.3-.2-12.6.2-18.8.5-1.9.1-3.8 0-5.6-.8-2.2-.9-4.1.7-6.2.9-.9.2-1.5.1-2.2-.4z"/>
  <path class="st4" d="M90.6 145.1c.4-1.3.2-2.7-.1-3.9-.5-2.3-2.1-3.4-4.3-3.3-2.4.2-3.4 1.5-3.2 3.8 0 .4.1.8-.5 1.3-2-1.7-2.2-3.8-1.8-6.1 2.5-4 8.7-6.1 13-4.4 2.4.9 3.7 2.8 4.4 5 .9 2.8 1.7 5.7 2.5 8.5.1.2.1.4 0 .4-3.4-.5-6.8.1-10.2.1.1-.4.1-.9.2-1.4z"/>
  <path class="st4" d="M117.1 154c-1.7-.6-2.7-2.2-5-2-6.4.5-12.9.5-19.4.6-3.4 0-6.9-.3-10.3-.4-3.1-.1-6.2.5-9.3.9-.8.1-1.6.3-2.4-.3 3.2-.9 6.5-.9 9.7-1.2 3.2-.3 6.1-.9 8.7-3 4.2-.1 8.4-.3 12.6-.4 2.9 2.1 3.8 2 6.3-.5.5-.5 1.1-1 1.6-1.5 1.7.4 3.3 1.7 5.1.7.8.3 1.2.8 1.4 1.6-.2 1.8.3 3.7 1 5.5z"/>
  <path class="st4" d="M101.6 148.1c-3.7 1.6-7.5.9-11.3 1-.5 0-1-.1-1.3-.6.5-.6.9-1.3 1.4-1.9 2.7-1.7 5.9-.5 8.7-1.3.7-.2.6 1.3 1.5.7.5.6.9 1.3 1 2.1z"/>
  <path class="st18" d="M112.4 143.8c.7 1.1 1.9 1.9 2.2 3.3-2.1 1.7-3.6.3-5.1-1l2.4-2.4c.2 0 .3 0 .5.1z"/>
  <circle class="st0" cx="48.9" cy="124.7" r="1.9"/>
  <circle class="st0" cx="159.8" cy="79.3" r="1.9"/>
  <circle class="st0" cx="140.6" cy="43.2" r="1.9"/>
  <circle class="st0" cx="139.4" cy="119.7" r="2.5"/>
  <g>
    <defs>
      <circle id="SVGID_1_" cx="104.8" cy="97.3" r="77.8"/>
    </defs>
    <clipPath id="SVGID_2_">
      <use xlink:href="#SVGID_1_" overflow="visible"/>
    </clipPath>
    <g clip-path="url(#SVGID_2_)">
      <path class="st20" d="M105.1 61.3l77.5 44.8-88.3-10.7z"/>
      <path class="st20" d="M87.3 48.8l89.4 5.1-74.3 29.4z"/>
      <path class="st20" d="M81.3 46.1l57.2-26.6-28.1 47.4z"/>
      <path class="st20" d="M83.4 59l22.3-59 13.1 53.5z"/>
      <path class="st20" d="M115.2 87.2l22.9 91.4-56.5-74.5z"/>
      <path class="st20" d="M102.1 88.8L57 166.2l5.1-92.9z"/>
      <path class="st20" d="M91 95.4l-80.1 25.5L67.1 53z"/>
      <path class="st20" d="M63.9 108.5L0 53.9l87.3 12z"/>
    </g>
    <circle cx="81.5" cy="67.3" r="47.9" clip-path="url(#SVGID_2_)" fill="#f9af34" stroke="#df821a" stroke-miterlimit="10"/>
  </g>
  <circle cx="104.8" cy="97.3" r="77.8" fill="none" stroke="#000" stroke-width="5.6693" stroke-miterlimit="10"/>
  <g id="XMLID_1_">
    <path class="st1" d="M182.6 97.3c0 32.7-20.2 60.7-48.8 72.2L65.7 30c11.5-6.7 24.8-10.5 39.1-10.5 43 0 77.8 34.8 77.8 77.8z"/>
    <path class="st2" d="M133.8 169.4c-9 3.6-18.8 5.6-29 5.6C61.9 175 27 140.2 27 97.3 27 68.6 42.6 43.5 65.7 30l68.1 139.4z"/>
  </g>
  <g>
    <path class="st3" d="M169.3 139.1c-1.7 2.2-3.4 4.3-5 6.5-.7.2-1.3-.2-1.9-.3-1.5-.3-2.7-.2-3.5 1.5-.6 1.4-1.2 1.1-1.6-.2-.1-2.1-.2-4.3-1-6.3-.3-.8-.6-1.5-1.2-2.1-.4-.4-.9-.9-1.5-.6-.7.4-.2 1 0 1.5.3.8 1 1.7 0 2.5-1 .7-2 .5-2.9-.3-2.3-1.8-4.4-3.7-3.7-7 .9-4.3 3.8-6.7 7.8-8 5.9-1.8 10.3.7 13.3 7.3.8 1.6 2.2 3.3 1.2 5.5z"/>
    <path class="st4" d="M131.6 169c-2.7 1.7-5.8 2.2-8.7 3-8.3 2.3-16.9 2.5-25.4 2-6.5-.4-12.9-1.4-18.8-4.3.1-1.8 1.4-2.1 2.8-2.1 9.3-.3 18.5-.2 27.8-.2h11.9c1.3 0 2.6-.2 3.9-.7 1.6-.1 2.9-1.1 4.5-1 1.6.3 2.3 1.4 2 3.3z"/>
    <path class="st4" d="M59.7 159.9c-.1-.8.4-1.3 1-1.7.7.2 1.5.4 2.2.3 9.3-1.5 18.7-.6 28.1-.7 9.4-.2 18.8.2 28.1-.5 1.6-.1 3.2-.2 4.5.9 1.6 1.1 2.9 2.4 4 3.9.1.5 0 .9-.4 1.1-.4.2-.9.2-1.3.2-1.4-1-3-1.2-4.7-1.1-17.6.7-35.2.4-52.8.5-1.3 0-2.6.5-4 .3-1.6-.8-3.3-1.8-4.7-3.2z"/>
    <path class="st4" d="M64.5 163.1c1.1-.9 2.3-1.1 3.7-1.1 9.6 0 19.3-.1 28.9.1 7.8.1 15.6-.6 23.4-.6 2.2 0 4.3.1 6 1.5.5 1.3-.5 1.5-1.3 1.4-1.5-.1-3 .3-4.5.3-9.7 0-19.4.7-29.1.5-6.1-.1-12.2.1-18.4 0-1.6 0-3.1.8-4.6.3-1.5-.6-2.9-1.2-4.1-2.4z"/>
    <path class="st4" d="M125.5 167c-1.3.8-2.6 1.1-4.2 1-10.8-.1-21.7 0-32.5 0-1.4 0-2.8 0-4.1.5-.6.2-1.2.4-1.9 0-1.7-1-3.1-.5-4.2 1.1-2.9-.5-5.4-1.8-8-3.1.4-.7 1.1-1.1 1.9-1 4.2.7 8.3-.4 12.5-.3 11.4.1 22.9 0 34.3 0 1.6 0 3.1 0 4.7-.3 1.9-.4 2.2.5 1.5 2.1z"/>
    <path class="st4" d="M125.5 167c-.2-.6.6-2.4-1.4-1.2-.6.4-1.6.2-2.4.2H80.2c-1.3 0-2.6-.1-3.8.7-.7.5-1.8.6-2.3 0-1.2-1.2-2.3-.4-3.5-.2-.6-.3-1.3-.7-1.9-1 3.4-1.6 7-.9 10.5-1 5.6-.1 11.2-.2 16.8 0 8.5.2 17-.8 25.5-.5 1.4 0 2.8-1 4.3-.1.3.2.6-.5.6-.9h.9c1.6.3 2.3 1.3 2.1 3-1.4-.2-2.4 1.5-3.9 1z"/>
    <path class="st4" d="M157.2 153c-1.6 2.1-3.8 3.5-5.9 5-2.7-1.2-5.7-.5-8.5-1.2-1.3-.4-2.8-.2-4.1.3-2 .8-4.2-.2-6.2 1-1-1.8-1.8-3.8-1.4-5.9.4-.6 1.1-.8 1.8-.7 1.2.2 2.2.2 3.3-.6.6-.5 1.4-.2 2.1.1 1 .4 2.1.4 3.2.1 1.1 0 2.2.1 3 1 2.4.5 4.7.5 7-.3 1.3-.4 2.6-.5 3.9-.4.9.1 1.8.4 1.8 1.6z"/>
    <path class="st4" d="M133 157.9c.8-.9 1.4-2 3.1-1 .6.3 1.6.1 2.5-.3 1.9-.9 4-.7 5.9-.1.5.2 1 .8 1.6.4 2.3-1.6 3.6.4 5.3 1.2-1.6 1.8-3.8 2.9-5.8 4.1-2.8-.4-5.5-.5-8.4-.2-1.1.1-2 .5-2.9 1.2-2-1.4-1.9-3.3-1.3-5.3z"/>
    <path class="st5" d="M169.3 139.1c-.8-4.3-2.7-8-5.8-11-2.8-2.6-6-2.3-9.3-1-3.5 1.4-6.1 3.7-6.7 7.7-.4 2.8 1.6 4.5 3.4 6.3-.2.2-.4.2-.6 0-4.5-1.9-4.9-7.3-2.9-10.2 3.1-4.6 7.5-6.5 13-6.2 2 .1 3.7 1.1 4.9 2.6 2.2 2.6 4.5 5.2 5.1 8.7-.1 1.2 0 2.3-1.1 3.1z"/>
    <path class="st4" d="M45.7 147.6c-1-1.2-2-2.4-3-3.5-.3-.5-.1-.9.3-1.3 3.1-3.3 8.1-3.7 11.8-1 .7.5 1.3 1.2 1.1 2.1-.2 1.1-1.1 1.1-2 1-1.2-.1-2.1.3-2.8 1.2-.4.4-.9.5-1.4.4-1.6-.4-3.1-.6-4 1.1z"/>
    <path class="st4" d="M135.1 166.2c-1-.9-.6-2.1-.7-3.2 0-1.3.1-1.9 1.9-1.8 2 .2 4.2-.2 6.4-.3 1.2-.1 2.1.2 2.8 1.1-2.5 2.1-5.5 3.2-8.3 4.8-.9.5-1.6.4-2.1-.6z"/>
    <path class="st6" d="M50.6 146.1c.7-1.4 1.9-1.6 3.4-1.5.6.1 1.2.1 1.5-.6.2-.7-.2-1.1-.6-1.5-1.7-1.6-3.8-2.4-6.1-1.9s-4.5 1.4-6 3.5c-.6-.9-1.3-1.9-1.9-2.8 1.9-.1 3.3-1.5 4.9-2.1 1.7-.7 3.4-.7 5 0 2.3.8 4.5 1.7 5.5 4.3.5 1.3.1 1.8-1.3 1.8-1.3 0-3.4-.6-3.3 1.4.1 1.9 2.1 1.6 3.6 1.6.9 0 2-.5 2.5.8l-.1.2c-1.6 1.5-3.5 1.3-5.4 1-1.8-1.1-2.6-2.3-1.7-4.2z"/>
    <path class="st4" d="M52.2 149.6c1.9.2 3.7-.3 5.5-.5v4.4c-1.4 1.5-3.3.5-4.9 1-1.8-1.2-3.3-2.7-4.6-4.4 1.1-1.7 2.5-.9 4-.5z"/>
    <path class="st3" d="M157.9 146.6c0 .1 0 .2.1.2.1.2.2.5.4.1 1.3-3.1 3.2-3.5 6-1.4-1.2 1.9-2.8 3.5-4.5 5-1.5-.6-2.9-.8-4.2.6-.5.5-1.6.6-1.9-.6 1.4-1.2 2.3-3 4.1-3.9z"/>
    <path class="st3" d="M153.9 150.7c.7.7 1.6.4 1.9-.2 1.4-2.4 2.7-1.2 4 0-.6 1.1-1.7 1.7-2.6 2.5-1.4-1.7-3.5-1.3-4.8-.7-3 1.4-6 .4-9.6.9.3-.2.5-.7.7-.6.2.1.6-.1 1-.1 3.1-.6 6.2-1.4 9.4-1.8z"/>
    <path class="st4" d="M52.2 149.6c-1.4 0-2.8-.2-4 .5-.8-.8-1.6-1.7-2.4-2.5 1.1-.7-.6-1.4 0-2.2 1.6.2 3.3 0 4.9.7 0 1.3.2 2.6 1.5 3.5z"/>
    <path class="st4" d="M52.7 154.5c1.4-1.6 3.3-.3 4.9-1 0 1.6 0 3.3.1 4.9-1.9-.9-3.6-2.2-5-3.9z"/>
    <path class="st7" d="M153.9 150.7c-3 1.4-6.1 2.2-9.4 1.8-1-.3-2.1-.6-3.1-.9-3.4-.5-5.1-2-5.2-4.5.1-.1.2-.4.3-.4 2.9-.5 3.2-2.1 1.8-4.3.3-.5.7-.7 1.2-.3.4.3.7.7 1.1 1 1.4.7 1.6 2 1.4 3.3-.2 1.3-1.3 1.4-2.5 1.4-1 0-1.1.5-.5 1.2 2.8 1.2 5.7 2.4 8.9 2.3 1.8 0 3.1-1 4.7-1.3.8-.1 1.4-.4 1.9-1 2.4-2.7 2.6-5.7 1.2-8.9-.1-.2-.6-2-1.1-.1.3.7.6 1.5-.4 1.9-1.4.5-2.7.6-3.7-.8h.6c.9.3 1.9 1.2 2.7.1.7-.9-.4-1.5-.7-2.2-.3-.7-1-1.6-.1-2.2 1.1-.7 2.1-.2 2.8.8 1.9 2.7 2.3 5.8 2.2 9-1 1.8-2.6 2.9-4.1 4.1z"/>
    <path class="st8" d="M139.4 142.1c-.5 0-.8.1-1 .6-2.4.6-4.9.9-6 3.5-.6.6-.9 1.5-1.9 1.5-.2-.5-.6-1-.4-1.7.8-1 1.6-2 2.4-3.1 2.1-2.6 4-2.8 6.9-.8z"/>
    <path class="st9" d="M154.5 140.1c-.4-.7-1-1.3-.8-2.4 2.1.7 2.9 2.4 3.1 4.2.3 2.7.7 5.5-2.4 7.1 1-2.6 2.2-5.1 1-8-.2-.4-.4-.8-.9-.9z"/>
    <path class="st10" d="M152.5 150.1c-3.9 2.4-9.6 2-13.6-1 1.7-.5 3 .6 4.4 1.2 2.8 1 5.3 1.2 8-.1.3-.2.8-.1 1.2-.1z"/>
    <path class="st11" d="M138.9 149.1c-.7-.3-1.3-.7-1.3-1.8 1.3 0 2.9 1 3.8-.6.7-1.3-.2-2.5-.9-3.6 2 .1 1.9 1.5 1.9 2.8 0 1.3-.5 2.2-2.1 2.2-.7-.1-1.3.1-1.4 1z"/>
    <path class="st12" d="M50.7 139.1h-5c1.7-1.5 3.3-1.6 5 0z"/>
    <path class="st4" d="M121.5 155.8c1.3.7 2.1 1.8 2.6 3.1-2.9-1.5-6-1-8.9-.8-1.6.1-3.1.3-4.7.3H69.6c-2.2 0-4.4.1-6.5.9-1.3.5-2 0-2.4-1.2.3-.6.7-1.1 1-1.7.7-.5 1.3-1.5 2.4-1.2.2 0 .5.2.7.2 9.1-1.4 18.3.1 27.4-.6 7.4-.6 14.7-.9 22.1-.4.8.1 1.4-.3 2.1-.6 2 .1 3.6 1 5.1 2z"/>
    <path class="st13" d="M63.7 155.7c-.7.3-1.3.6-2 .9.6-1 1.3-2 1.9-3 5.4-2.7 11.1-3.6 17.2-3.7 3.3 0 7.3-.6 8.8-4.8.3-.3.7-.3 1 0 .3.5.3 1 .2 1.5-.4 1-1 1.8-1.8 2.6-2.6 2.1-5.7 2.8-8.9 3.1-3 .2-6 .4-9 1-2.6.3-4.6 2.4-7.4 2.4z"/>
    <path class="st14" d="M130.5 147.8c.5-.6 1-1.2 1.4-1.8 1.8-.6 2.9 1.2 4.6 1.1.3 3 3 3.3 4.9 4.6-.8.7-1.8.5-2.6.3-1.3-.4-2.4-1.3-3.6.5-.3.4-2.5-.5-3.8-.3-1.1-1.4-1-2.9-.9-4.4z"/>
    <path class="st15" d="M116.4 148.2c.9 2.4 2 4.7 4.4 5.9 0 .7.9 1 .6 1.7-1.6-.2-3.2-.5-4.3-1.9-.1 0-.2-.1-.4-.1-1.2-1.6-1.5-3.4-1.2-5.4.1-.2.3-.4.5-.5.2.1.3.2.4.3z"/>
    <path class="st14" d="M136.4 147.1c-.8 1.1-1.5 0-2.3-.1-.8-.1-1.5-.7-2.3-1 2.3-3.5 3.1-3.9 6.5-3.3.5.5 1.1 1 1.6 1.6.5.6.8 1.4.4 2.1-.3.6-1 .3-1.6.2-.8-.1-1.6-.1-2.3.5z"/>
    <path class="st16" d="M111.5 142.7c.1.3.3.6.4 1-.4 1.3-1.6 2-2.4 3-.6.6-1.1 1.2-1.8 1.7-2.5 2.3-4.1 2.3-6.6 0-.4-.8-.7-1.6-1.1-2.3-.9-2.2-1.4-4.6-2.1-6.9-2.2-6.8-9.9-8.8-15.3-3.9-.6.6-1 1.6-2.2 1.3-.1-.5-.2-1 .1-1.5 0-2.2 1.8-3.3 3.2-4 6-2.8 11.1-2.1 14.9 4.4 1.9 3.3 2.9 6.8 4 10.3.8 2.7 2.8 3 4.8 1 1.4-1.4 2.2-3.4 4.1-4.1z"/>
    <path class="st17" d="M80.6 135.1c0 .6.1 1.1.1 1.7 1 1.2.2 3 1.4 4.4.6-1.2.6-2.8 2.1-3.4 1.4-.5 2.7-.7 4.1-.1 2.6 1.2 3.6 4.3 2.3 7.4h-.9c0-1.2 0-2.3-.2-3.5-.3-1.6-1-2.8-2.8-3-2-.2-2.2 1.3-2.9 2.6-.5.9.5 2.8-1.2 2.8-1.5 0-2-1.6-2.5-2.8-1.1-2.1-.5-4.1.5-6.1z"/>
    <path class="st4" d="M63.7 155.7c2.3-1.1 4.5-2.4 7-3 3.3-.1 6.6-.5 9.8-.9 5.9-.8 11.8.4 17.6 0 4.6-.3 9.3 0 13.9-.5 2.4-.3 3.9.8 5.1 2.7h.1c-1.1 1.3-2.3 1.3-4.1 1.2-5.3-.2-10.6-.7-15.9.3h-.7c-6.3-.2-12.6.2-18.8.5-1.9.1-3.8 0-5.6-.8-2.2-.9-4.1.7-6.2.9-.9.2-1.5.1-2.2-.4z"/>
    <path class="st4" d="M90.6 145.1c.4-1.3.2-2.7-.1-3.9-.5-2.3-2.1-3.4-4.3-3.3-2.4.2-3.4 1.5-3.2 3.8 0 .4.1.8-.5 1.3-2-1.7-2.2-3.8-1.8-6.1 2.5-4 8.7-6.1 13-4.4 2.4.9 3.7 2.8 4.4 5 .9 2.8 1.7 5.7 2.5 8.5.1.2.1.4 0 .4-3.4-.5-6.8.1-10.2.1.1-.4.1-.9.2-1.4z"/>
    <path class="st4" d="M117.1 154c-1.7-.6-2.7-2.2-5-2-6.4.5-12.9.5-19.4.6-3.4 0-6.9-.3-10.3-.4-3.1-.1-6.2.5-9.3.9-.8.1-1.6.3-2.4-.3 3.2-.9 6.5-.9 9.7-1.2 3.2-.3 6.1-.9 8.7-3 4.2-.1 8.4-.3 12.6-.4 2.9 2.1 3.8 2 6.3-.5.5-.5 1.1-1 1.6-1.5 1.7.4 3.3 1.7 5.1.7.8.3 1.2.8 1.4 1.6-.2 1.8.3 3.7 1 5.5z"/>
    <path class="st4" d="M101.6 148.1c-3.7 1.6-7.5.9-11.3 1-.5 0-1-.1-1.3-.6.5-.6.9-1.3 1.4-1.9 2.7-1.7 5.9-.5 8.7-1.3.7-.2.6 1.3 1.5.7.5.6.9 1.3 1 2.1z"/>
    <path class="st18" d="M112.4 143.8c.7 1.1 1.9 1.9 2.2 3.3-2.1 1.7-3.6.3-5.1-1l2.4-2.4c.2 0 .3 0 .5.1z"/>
  </g>
  <circle class="st0" cx="48.9" cy="124.7" r="1.9"/>
  <circle class="st0" cx="159.8" cy="79.3" r="1.9"/>
  <circle class="st0" cx="140.6" cy="43.2" r="1.9"/>
  <circle class="st0" cx="139.4" cy="119.7" r="2.5"/>
  <g>
    <defs>
      <circle id="SVGID_3_" cx="104.8" cy="97.3" r="77.8"/>
    </defs>
    <clipPath id="SVGID_4_">
      <use xlink:href="#SVGID_3_" overflow="visible"/>
    </clipPath>
    <g clip-path="url(#SVGID_4_)">
      <path class="st20" d="M105.1 61.3l77.5 44.8-88.3-10.7z"/>
      <path class="st20" d="M87.3 48.8l89.4 5.1-74.3 29.4z"/>
      <path class="st20" d="M81.3 46.1l57.2-26.6-28.1 47.4z"/>
      <path class="st20" d="M83.4 59l22.3-59 13.1 53.5z"/>
      <path class="st20" d="M115.2 87.2l22.9 91.4-56.5-74.5z"/>
      <path class="st20" d="M102.1 88.8L57 166.2l5.1-92.9z"/>
      <path class="st20" d="M91 95.4l-80.1 25.5L67.1 53z"/>
      <path class="st20" d="M63.9 108.5L0 53.9l87.3 12z"/>
    </g>
    <circle cx="81.5" cy="67.3" r="47.9" clip-path="url(#SVGID_4_)" fill="#f9af34" stroke="#df821a" stroke-miterlimit="10"/>
  </g>
  <path d="M104.8 177.4c-44.2 0-80.1-35.9-80.1-80.1s35.9-80.1 80.1-80.1 80.1 35.9 80.1 80.1-35.9 80.1-80.1 80.1zm0-155.6c-41.6 0-75.4 33.8-75.4 75.4s33.8 75.4 75.4 75.4 75.4-33.8 75.4-75.4-33.8-75.4-75.4-75.4z"/>
  <g>
    <path class="st0" d="M302.5 139c-5.9-4.6-12.5-8.2-20.4-10.8-5.2-1.7-9.9-3.2-15.1-3.6.3-.6.5-1.1.7-1.6 3-6.9 4.9-14.2 6.4-20.3 1-4.2 2-8.3 3-12.5.3-1.3.7-1.8 1.5-2.1.3-.1.6-.3.8-.5l.1-.1c2.9-2.2 5.5-4.8 8.1-7.8 5.9-7 10.2-13.8 12.9-20.7 1.1-2.8 2.2-6.1 2-9.7-.2-5-3.3-8.2-8.2-8.3-5.2-.1-9.5 1.7-12.8 5.5-2.8 3.2-5 7.1-6.8 12.1-3.2 8.9-6 18.4-8.4 28.4-.2.9-.6 1.4-1.5 1.7-3.7 1.4-7 1.4-10.1.1-3.4-1.4-5.7-4.2-6.9-8.4-1.1-3.8-1.3-7.8-.6-12.3.7-4.4 2.1-8 4.3-11 2.5-3.4 5.4-5 9.1-5 2.6 0 4.3 1.1 5.3 3.4.3.7.5 1.5.7 2.3l.3 1.2c0 .2.1.3.2.5l.3 1 1.9-.1.1-.9c0-.1 0-.2.1-.4.1-.3.1-.7.1-1.1-.3-4-2-7.2-5.3-9.7-3.6-2.7-7.9-3.2-12.8-1.4-3.7 1.4-6.7 3.9-9.2 7.9-4.4 7-5.6 14.7-3.6 23 1.2 5 3.6 8.9 7.1 11.7 5.2 4 11.4 5.2 18.4 3.5-.5 1.7-.9 3.3-1.3 5-1.3 4.9-2.6 9.9-4.1 14.8-.8 2.7-1.9 5.4-3 8-.5 1.1-.9 2.3-1.4 3.5-.3.7-.5.8-.9.9-3.3.5-6.4 1.7-9.6 3.7l.3-.9c1.3-4.6-.9-9.6-5-11.3-3.7-1.5-7.2-1.4-10.6.5-4.5 2.5-7 6.6-7.5 12.1-.3 4.1.7 7.4 3.2 9.9 2.8 2.9 6.2 4.7 10.1 5.4 5 .9 10 .2 15.2-2.1 5.4-2.4 9.8-5.7 13-9.9.3-.3.4-.3.5-.3.4.1.9.1 1.3.2.6.1 1.1.1 1.6.3 4.3 1.1 8.3 2.4 12 4 8.6 3.7 15.3 7.5 21.2 11.9 3.1 2.3 5.3 4.6 6.9 7.2 1 1.6 1.4 3.2 1.2 4.8-.1.4 0 .9 0 1.1l.1.8h1.5l.3-.1c2-1.7 2.9-3.2 3.1-5.4.2-3-.4-5.8-2.1-8.7-1.5-3.7-4.2-6.6-7.7-9.4zm-23.2-58.4c1.1-6 2.7-12.5 4.8-19.9 1.3-4.6 3.5-8.7 6.5-12.3 1-1.2 2-2.1 3.2-2.7.6-.3 1.3-.5 1.8-.5.4 0 .7.1 1 .2.8.3 1.4 1.1 1.7 2.1.3 1.1.5 2.4.5 3.7 0 3.5-1.3 6.8-2.6 9.6-2.9 6.8-7.2 13.1-12.7 18.8-1.3 1.4-2.9 2.5-4.6 3.4.1-.7.3-1.6.4-2.4zm-43 59.8c-3.4-.7-5.5-2.4-6.7-5.1-1.4-3.4-1.5-6.8-.1-10 .9-2.1 1.9-3.4 3.3-4.3 1.2-.7 2.4-1.1 3.5-1.1 1.7 0 3.3.7 4.4 2.1 1.2 1.5 1.5 3.2 1 5.2-.1.4-.2.9-.3 1.4 0 .2-.1.4-.1.6l-.2 1 .5.1c-1.7 1.5-2.7 3.4-3.6 5.1l-.4.7.6.5c.5.4 1 .5 1.5.5.7-.1 1.1-.6 1.4-1 1.2-1.8 2.9-3.1 5-3.9 1-.3 2-.6 3.1-.8l.8-.2c.2 0 .3-.1.5-.1-.2.3-.5.6-.7.9l-.1.1c-1.8 2.3-4 4.9-7 6.7-2.3 1.6-4.3 2-6.4 1.6z"/>
    <path class="st0" d="M654.5 93.2l-.7-.2-.1.3c0-.2.2-.4.2-.4l-.1.1c-.2.2-.6.4-.8.8-.6 1.1-1.1 2.2-1.7 3.3l-1.5 3-.1.3c-2.5 4.8-5 9.8-8.3 14.1-.8 1-1.7 2-3 3.1-.2.2-.5.3-.7.2-.2-.1-.4-.3-.5-.6-.4-1.5-.7-3.3-.3-5.1l.1-.5c.3-1.6.7-3.2 1.2-4.8 1.3-4.2 2.5-8.5 3.8-12.7.6-1.9 1.1-3.8 1.7-5.7 1-3.2 1.3-6.2.9-8.9s-2.3-4.5-5-4.5c-2.4 0-4.4 1.2-5.8 2.3-2.1 1.5-3.5 3.6-4.9 5.7-2 3.1-4 6.1-6.1 9.2l-.9 1.3c.2-1.1.5-2.2.7-3.3.5-2.4 1-5 .7-7.7-.5-3.7-2.6-5.6-6.3-5.7-.7 0-1.5 0-2 .6s-.5 1.4-.4 2.1l.1.5c.1.7.2 1.4.1 2.1-.4 2.8-.9 5.3-1.4 7.6l-.5 2.3c-1.2 5.6-2.5 11.4-3.3 17.2-.4 2.9-.6 6.3.5 9.7.6 1.9 1.8 3.2 3.5 4 .8.4 1.5.5 2.2.5.3 0 .7 0 1-.1l1-.2-.3-1.4c0-.2-.1-.3-.1-.5-.1-.4-.1-.7-.2-1.1-.1-.8-.3-1.6-.3-2.4-.1-3.5.7-7 1.5-10.2.1-.3.1-.5.2-.8.3-1.2.6-2.2 1.1-3.2 1.9-3.5 4-7 6-10.4l1.2-2c2.1-3.5 4.7-6.6 7.2-9.3.7-.8 1.5-1.1 2.4-1.1.2 0 .3.1.3.1v.2c0 .7 0 1.2-.2 1.6-1.5 4.7-3.1 9.5-4.6 14.2-.9 2.7-1.8 5.4-2.7 8.2-1.4 4.3-1.9 7.9-1.5 11.3.2 1.7.7 4 3.1 5.3 2.7 1.5 5.3 1.3 7.7-.4 1.9-1.3 3.5-3 5.2-5.4 4.3-6.2 7.6-13 10.6-19.6l1.3-2.6v-.7h-1.2z"/>
    <path class="st0" d="M334.4 92.4c-.2.1-.4.2-.5.5l-.1.2c-.2.4-.5.8-.7 1.2-2.2 4.5-4.8 9.8-7.8 14.7-1.7 2.9-3.8 5.4-5.5 7.6-.1.2-.4.4-.6.3-.7-.5-.7-.9-.7-1 0-.6 0-1.1.1-1.7.1-1.9.1-4 .4-5.9.2-1.4.4-2.8.7-4.2.2-1 .4-2 .6-3.1.4-2.8-1-5.1-3.7-6-.9-.3-1.8-.3-2.5-.4-1.7-.1-2.1.5-2.5 1.9-.1.3-.2.7-.2 1-.2.7-.3 1.4-.6 2-1.8 3.9-4 8.3-7.1 12.4-1.1 1.5-2.4 2.8-3.6 3.9-.5.5-1.2.8-1.8 1-1 .4-1.9.4-2.7 0-.7-.4-1.2-1.3-1.4-2.4-.2-1.6-.2-3.2.2-4.7 1.9-8.1 5.2-15.4 9.7-21.8 1.4-2 3-3.5 4.8-4.6 1.1-.7 2.2-1 3.3-.9 1.7.1 2.9 1 3.9 2.8 1.3 2.3 1.6 4.9 1.2 7.7v1.7l1.8.6.4-.7c0-.1.1-.1.1-.2.2-.3.4-.6.4-1 .1-.5.2-1.1.2-1.6v-.5c.4-3.9-.3-7.1-2.2-9.8-1.3-1.9-3.2-4.1-6.5-4.5-2.2-.3-4.4.1-6.4 1-3.6 1.6-6.6 4.1-9.5 7.7-5 6.3-8.5 13.5-10.5 21.5-.9 3.5-1 6.7-.4 9.6.9 4.1 3.7 6.5 7.5 6.5.5 0 1 0 1.5-.1 1.6-.2 3.1-.8 4.6-1.8 2.8-1.8 5.1-4.1 6.9-6.7 1.4-2 2.6-4 3.9-6 0-.1.1-.1.1-.2v.2c-.1 1.2-.2 2.4-.2 3.5-.1 2.2.2 4.6 1.1 7.3.8 2.4 2.6 3.7 5.2 3.4 1.7-.1 3.4-.9 5.1-2.3 1.8-1.5 3.1-3.3 4.4-5.3 4.5-6.8 8-14.2 11.1-20.8.1-.3.2-.6.2-.9 0-.1 0-.3.1-.4l.4-2.4-2 1.3c-.1.3-.2.4-.2.4z"/>
    <path class="st0" d="M610.3 103.5v-.1l.2-.8-1.7-.9-.5.8c-2.4 3.5-5 5.5-8.1 6.3 4-8.2 5.9-16 5.6-23.9-.1-3.5-.7-6.3-1.9-8.9-2.2-4.6-6.8-6.7-11.7-5.3-3.1.9-5.4 2.9-6.9 6.2-1.2 2.6-2 5.5-2.5 9.3l-.3 2.1c-.2-.1-.3-.2-.5-.2-2.1-1-4.3-1-6.1-.1-1.8.9-3.1 2.6-3.6 4.8-.7 3.2-1.1 6.4-1.1 9.6l-1.6-.4-.5.8c-.1.2-.2.3-.3.5-.6 1-1.1 2-1.7 3-1.3 2.3-2.6 4.6-4 6.9-.8 1.4-2 3.1-3.7 4.3-.7.5-1.2.7-1.6.5-.4-.1-.7-.6-1-1.4-.4-1.5-.5-3-.4-4.6.7-6 1.9-12 3.4-17.8.2-.7.4-1.3.5-2 .6-2.1 1.1-4.3 1.6-6.4.3-1.5 0-3-1-4.2-1-1.3-2.5-2.1-4.2-2.1-.7 0-1.8.2-2 1.7-.1 1.1-.2 2.1-.5 3-.7 2.5-1.4 5.1-2.1 7.6-.5 1.7-.9 3.4-1.4 5.1-1.2 4.6-2.4 9.5-2.4 14.7 0 3.5.2 7.6 3.5 10.7.3.3 1.1.9 1.9 1 .3 0 .7.1 1 .1 1.7 0 3.2-.5 4.3-1.6 1.4-1.4 3.1-3 4.5-4.8 2.8-3.7 5-7.2 6.7-10.8.3-.6.4-1.2.6-1.8 0-.2.1-.3.1-.5 0 1.7.1 3.3.3 4.9.5 3.8 1.5 6.9 3.1 9.6 1.9 3.2 4.7 4.8 8.3 4.8h1c3.2-.2 5.9-1.9 7.5-3.1 2.3-1.6 4.3-3.8 6.2-6.8.4-.6.8-.9 1.5-1 1-.1 1.8-.3 2.6-.7 3-1.3 5.6-3.5 8.1-7 .7-.5.8-.8.8-1.1zm-22.4 12.4c-1.7.2-3-.5-3.9-2-1.1-1.8-1.4-3.7-1.7-5.6-.5-4-.1-7.8.4-11.5.2 1.6.5 3.3 1 4.9 1.6 5.1 5.1 8.6 10.3 10.3.1 0 .2.1.4.1-2 2.4-4 3.5-6.5 3.8zm13.4-37.1c1 3.1 1.4 5.6 1.3 7.9-.3 8.1-2.1 15.1-5.5 21.4-.1.2-.2.4-.3.5-.2 0-.5-.1-.6-.2-2.5-.8-4.2-2.6-5.4-5.6-1.1-3.1-1.6-6.6-1.6-11.2.1-4.8.6-8.9 1.5-12.5.2-.9.7-1.9 1.3-3 1.2-1.9 2.9-2.5 5.1-1.7 2.1.7 3.5 2.2 4.2 4.4z"/>
    <path class="st0" d="M549.3 104.6v-.2l.2-.8-1.8-.7-.6 1.1c-.1.2-.3.5-.4.7-1.7 3.3-4.1 7.5-7.4 11.1-1.8 2-3.6 3.1-5.6 3.6-2.9.7-4.8-.4-5.6-3.2-.6-2-.7-4.2-.3-6.4 1.4-8.1 4.4-15.6 9-22.4 1-1.6 2.2-2.7 3.5-3.6.6-.4 1.5-.8 2.3-.6.8.2 1.3 1.1 1.6 1.7.7 1.7.9 3.6.6 6 0 .3-.1.7-.1 1l-.1 1.2 1.7.6.4-.7c.1-.1.1-.2.2-.3.2-.3.5-.7.6-1.2.7-3.8.1-7.3-1.7-10.5-2.8-5-8-6.7-13.2-4.2-2.6 1.2-4.8 3-6.7 5.4-4.4 5.6-7.2 12.4-8.5 20.5l-1.3-.4-.3.1c-.3.1-.5.3-.7.5-.3.5-.6 1-.8 1.5-2.2 3.9-4.5 8-7.4 11.5-.4.4-.7.7-1 .9-.2.1-.4.1-.5.1-.2-.1-.3-.2-.4-.4-.1-.2-.2-.5-.2-.8-.1-2.3.1-4.8.6-7.9l.1-.7c.4-2.2.8-4.4 1-6.6.3-2.1-.7-3.8-2.6-4.8-1.1-.6-2.4-.9-3.8-.9-1.3 0-2 .3-2.3 1.9-.3 2.1-1.2 4-2.3 6.1-2.3 4.5-4.5 8-7 11.1-1.4 1.7-2.7 2.7-4.1 3.2-.9.3-1.7.3-2.4 0-.6-.3-1.1-1-1.4-1.9-.1-.4-.2-.9-.3-1.3-.2-1.4.1-2.7.5-4.1.1-.3.1-.5.2-.8 1.9-8 5-14.8 9.3-20.8 1.3-1.8 3.1-3.9 5.7-5.1 2.4-1 4.8-.3 6 1.8 1.5 2.6 2 5.3 1.4 8.1-.1.3-.1.6-.1.8v.3l-.1.8 1.7.6.4-.7c0-.1.1-.2.2-.2.2-.2.4-.5.5-.9.8-2.3.8-4.8-.1-7.9-.9-3.3-2.6-5.8-5.1-7.4-2.3-1.5-5.1-1.7-8.4-.7-3.1 1-5.9 2.9-8.6 5.8-6.7 7.3-11.1 16.2-13 26.3 0 .1 0 .2-.1.3l-1.1.1h-.1c-.1 0-.5 0-.9.4-.2.2-.4.4-.5.7-1.3 1.9-2.7 3.8-4.5 5.3-1.2 1.1-2.3 1.6-3.4 1.9-1 .3-1.6-.1-1.9-1-.3-.8-.4-1.6-.5-2.3-.2-2.9-.1-6 .6-9.3.9-4.8 2-10 3.3-15.9.8-3.4 1.6-6.9 2.4-10.3.3-1.4.7-2.9 1-4.3 0-.2.1-.3.1-.3h1.2c1.3 0 2.6.1 3.8.1 3.4.2 6.2 1.1 8.7 2.9.1.1.2.2.4.2l2.2 1.3-.6-2.4c-.2-.7-.5-1.4-.9-1.9-1.3-1.8-3-3-5.4-3.9-2.1-.8-4.3-1-6.4-1.1-.7 0-1.3-.1-2-.1l.1-.7c.2-1.3.4-2.5.6-3.8l.1-.8c.3-1.7.5-3.4.2-5.3-.5-2.8-2.1-4.6-4.8-5.1-.5-.1-1.1-.1-1.7-.2-.6 0-1.3 0-1.8.5s-.5 1.2-.5 1.8V58c.1 1.2.1 2.4-.1 3.5-.3 2-.7 3.9-1.1 5.9l-.6 3c-.1.3-.1.3-.3.3-.8.1-1.7.1-2.5.2-2 .1-4 .3-6 .4-1.1 0-2.1-.1-3.3-.2-.5 0-1-.2-1.6-.2h-2.2l1.5 1.8c.2.2.3.5.5.6.4.5.8 1 1.3 1.5.4.4 1 .7 1.6.8 2 .3 4 .2 6 0 .6 0 1.2-.1 1.8-.1.7 0 1.5-.1 2.2-.1l-.9 4.2c-1.6 7.3-3.3 14.8-4.7 22.3l-1.7-.8-5.8 9.7c0-.5-.1-1-.2-1.4-1-4-2.4-7.8-4.1-11.4-1.8-3.8-4-7.6-6.7-11.7-.3-.5-.3-.8-.1-1.2.4-1 .8-2 1.2-2.9l.3-.8c1.1-3 2.4-6.6 3-10.3.4-2.3-.6-4.2-2.6-4.7-2.9-.8-5.4-.4-7.6 1.2-1.6 1.2-2.7 2.8-3.6 5.2-1 2.7-1.2 5.6-.6 9.5.6 3.4 1.9 6.6 3.9 9.4.3.4.3.6.1 1-.3.6-.5 1.2-.7 1.8-.1.2-.1.4-.2.6 0 .1-.3.7-.7 1.5-.6 1.4-1.5 3.3-1.9 4.3-.2.2-.3.4-.5.6-.3.5-.5.9-.8 1.4-.2.3-.3.5-.5.8-1.2 2.1-2.5 4.3-3.7 6.5-2.9 5.1-5.9 10.3-9 15.4-3.2 5.3-6.9 9.9-11 13.7-2.2 2-5.2 4.5-8.9 5.8-4.5 1.7-8.5 1.1-11.7-1.6-3.6-3-5.2-7.1-4.9-12.1.2-3.1.9-6.3 2.2-9.6 2.5-6.5 6.4-12.8 11.4-18.6 3.5-4 6.6-6.7 9.9-8.6.6-.4 1.1-1 1.4-1.4.6-.7.7-1.6.3-2.3-.3-.7-1.1-1.1-2-1.1-1 0-2 .1-2.9.1h-.8c-.5 0-1 .1-1.5.1-1 .1-1.9.2-2.8.1-1.9-.1-3.6-.6-5-1.6-.6-.4-1-.9-1.3-1.4 4.2-2.4 7.5-4.7 10.5-7.1 3-2.4 5.7-4.9 8-7.6.3 4.4 2.8 7.5 7 8.7 3 .9 5.8.1 7.7-2.3 1-1.3 1.9-2.7 2.5-4.2 1.6-3.6 2.1-7.5 1.6-12.1-.6-5.5-1.9-9.8-4-13.6-2.7-4.8-6.4-7.8-11.2-9l-.4.1c-.9-.2-1.8-.3-2.7-.3h-.9c-.3 0-.6-.1-.7-.1l-.1-.1c-.4.1-.8.1-1.2.2-1 .2-2.1.4-3.2.7-5 1.7-9.6 4.6-14.2 8.8-6.6 6-11.1 12.4-13.9 19.5-1.9 4.7-2.5 8.5-2 12.3v.3c-1.4-.4-2.6-1-3.7-1.9-2.4-2-4.3-4.7-5.8-8.5-1.6-4.1-2-8.4-1-13.4.5-2.6 1.2-4.4 2.4-5.9.6-.9 1.3-1.3 2.2-1.3.3 0 .5-.1.6-.1l1.2-.3-.4-1.1c-.3-1-.9-1.4-1.3-1.6-.4-.2-1.1-.3-2 .1-1.5.7-2.7 1.9-3.7 3.6-1.5 2.6-2.5 5.5-3.1 9.1-.5 3.4-1 7.9.2 12.4 1.2 4.6 3.4 8.2 6.5 10.9 2.4 2 5.3 3.3 8.8 3.9.8.1 1 .4 1.2.7 1.6 3.2 4.1 5.7 7.6 7.6.4.2.8.4 1.1.6-2.1 1.3-4 2.7-5.6 4.3-6.3 6.2-10.6 13.7-12.8 22.3-1.5 5.7-1.7 10.5-.8 15 1.1 5.4 3.4 9.3 7.2 12 3.8 2.8 8.2 4.2 12.9 4.2 1.4 0 2.9-.1 4.4-.4 3.7-.6 7.3-2.2 11.6-5 6.9-4.5 12.9-10.6 17.7-18.1 2.7-4.2 5.2-8.6 7.6-12.8.5-1 1.1-1.9 1.7-2.9 1.7-3 3.4-6 5-9 .7-1.2 1.3-2.4 2-3.6.1-.2.2-.5.3-.6 0-.1 0-.1.1-.2l.3-.8-.1-.1 1.3-2.9c.5-1.1 1-2.2 1.4-3.1 2 3.6 3.4 7.1 4.4 10.7.7 2.9.9 5.8.4 8.5s-1.5 4.6-3.2 5.9c-2.4 1.9-5.3 2.3-8.8 1.3-.5-.1-1.2-.5-1.3-1.9 0-.3-.1-.7-.1-1l-.2-2.1-1.4.7c-1.1.5-1.7 1.3-1.9 2.4-.3 1.6.2 3.1 1.5 4.2 1 .9 2.2 1.5 3.7 1.8 3 .7 6.1.5 9.9-.6 4.8-1.3 8.4-3.7 10.9-7.1 2.7-3.6 5.1-7.6 7.8-12.7.2-.5.4-.9.6-1.4-.1.7-.3 1.5-.4 2.2-.6 3.4-1.1 6.8-.6 10.3.3 1.9.9 4.3 3.2 5.8 1.5 1 3.4 1.5 5.3 1.5 2 0 4-.6 5.5-1.7 3.4-2.5 5.7-5.8 7.5-8.7l.3-.6c0 2 .3 3.9.9 5.7.9 2.6 2.8 4.2 5.3 4.7.7.1 1.3.2 1.9.2 2.1 0 4.2-.7 5.9-2 1.5-1.1 3-2.4 4.5-4 2.6-2.6 4.5-5.7 6.2-8.7v.4c-.1 1.6-.2 3.2-.3 4.9-.1 2 .4 4 1.5 6.4.8 1.7 2.2 2.6 4.2 2.6 2.3 0 4.1-.8 5.6-2.2 1.1-1.1 2.2-2.3 3.3-3.6 2.9-3.6 5-7.7 7.1-11.9.1-.3.2-.6.3-.8-.5 3.6-.2 7.4.9 11.9 1 4.3 3.8 7.1 7.8 8 .8.2 1.5.2 2.3.2 1.4 0 3-.3 4.7-.8 3.3-1 6.2-3.2 9.2-6.7 3-3.5 5.1-7.6 7.2-11.7v.1zM429.5 83.5c-.7-2-.8-4.1-.3-6.1.3-1.4.8-2.8 1.3-4.1.2-.5.5-.9.8-1.4.3-.4.6-.6.9-.6.1 0 .2 0 .3.1.5.2.9 1 .7 1.5-1 3.5-2.4 7.1-3.7 10.6zm-27.4-19.4l-.8-2.1-1.1 2c-4.7 8.5-12 14.3-23.6 18.6-.1-1.4 0-2.9.3-4.3 1.1-5.1 3.5-10 7.5-15.1 4-5.2 7.9-8.9 12.1-11.7 1.9-1.3 3.6-2 5.4-2.2.4-.1.8-.1 1.2-.1 2.1 0 3.8.9 5.1 2.6 1.9 2.4 2.7 5.3 3.3 7.7.8 3.8 1.1 7.8.8 12.2-.2 2.4-1 4.2-2.4 5.7-.8.8-1.6 1-2.6.6-1.9-.6-3.2-1.9-4.1-3.9-1.1-2.7-1.4-5.4-.8-8.4.1-.5-.1-1.1-.3-1.6z"/>
    <path class="st0" d="M588.7 66l.6.2c.1 0 .3.1.4.2.5.2 1 .4 1.6.4h.4c1.2-.3 2.4-.9 3.6-1.8 3.1-2.4 5.6-5.7 7.9-10.2.2-.4.3-.8.4-1.2 0-.2.1-.3.1-.4l.1-.2v-.2c-.1-1.8-1.4-3.3-3.3-3.9-1.3-.4-2.2 0-2.7 1.2-.2.4-.3.7-.4 1.1-.1.4-.3.7-.4 1l-.4.9c-1.8 4.2-3.6 8.2-7.5 10.7-.7.4-.6 1.3-.5 1.5l.1.7z"/>
    <path class="st0" d="M561.9 75.8h.5c2.4-.3 4.1-2.4 4.1-5.1-.1-1.7-.9-3.4-2.2-4.5-1.1-1-2.5-1.1-3.6-.2-2.2 1.7-3.1 5.5-1.9 8 .6 1.1 1.7 1.8 3.1 1.8z"/>
  </g>
</svg>